<?xml version="1.0" encoding="utf-8"?>
<!-- Generator: Adobe Illustrator 24.1.1, SVG Export Plug-In . SVG Version: 6.00 Build 0)  -->
<svg version="1.1" id="Capa_1" xmlns="http://www.w3.org/2000/svg" xmlns:xlink="http://www.w3.org/1999/xlink" x="0px" y="0px"
	 viewBox="0 0 145 161" style="enable-background:new 0 0 145 161;" xml:space="preserve">
<style type="text/css">
	.st0{fill:#EBCD9F;}
	.st1{fill:#E8B47F;}
	.st2{fill:#464247;}
	.st3{fill:#D48D7B;}
	.st4{fill:#ED9E88;}
	.st5{fill:#F5C5A0;}
	.st6{fill:#EDB68B;}
	.st7{fill:#F4DE98;}
	.st8{fill:#F3E2B4;}
	.st9{fill:#573828;}
	.st10{fill:none;stroke:#CA3C4F;stroke-width:2;stroke-linecap:round;stroke-miterlimit:10;}
</style>
<g>
	<g>
		<path class="st0" d="M97,70.5c-0.4,7.1-6.1,12.8-13.2,13.1c-6.1,0.3-12.2,0.3-18.3,0.2h0c-1.5,0-3.1-0.1-4.6-0.2
			c-7.1-0.3-12.8-6-13.2-13.1c-0.3-5.2-0.3-10.4-0.1-15.7v0c0.1-1.6,0.2-3.3,0.3-4.9c1.1-5.4,5.5-12.6,11.7-15.3
			c0.2-0.1,0.4-0.2,0.6-0.2c2.5-1,5.3-1.7,8.2-2.1c1.3-0.2,2.6-0.2,4-0.2c3,0,5.9,0.4,8.5,1.1v0c8.3,2.2,14.5,10.2,15.9,16.8
			c0,0,0,0,0,0C97.3,56.8,97.4,63.7,97,70.5L97,70.5z"/>
		<path class="st1" d="M65.5,83.8L65.5,83.8c-1.6,0-3.1-0.1-4.7-0.2c-7.1-0.3-12.8-6-13.2-13.1c-0.4-6.8-0.3-13.7,0.2-20.5
			c1.1-5.4,5.5-9.9,11.7-12.6c0.2-0.1,0.4-0.2,0.6-0.2c-0.4,10.3-0.5,25.2-0.3,33.7C60,77.3,62.4,82.6,65.5,83.8L65.5,83.8z"/>
		<g>
			<path class="st2" d="M60.9,55.5c-1.2,0-2.2,1.5-2.2,3.3s1,3.3,2.2,3.3c1.2,0,2.2-1.5,2.2-3.3S62.1,55.5,60.9,55.5z"/>
			<path class="st2" d="M83.9,55.5c-1.2,0-2.2,1.5-2.2,3.3s1,3.3,2.2,3.3s2.2-1.5,2.2-3.3S85.1,55.5,83.9,55.5z"/>
		</g>
		<g>
			<ellipse class="st3" cx="57" cy="66.9" rx="4.2" ry="2.7"/>
			<ellipse class="st4" cx="87.8" cy="66.9" rx="4.2" ry="2.7"/>
		</g>
		<path class="st5" d="M38.3,78.6L21,61.3l17.4-19.2c3.2-3.6,3.1-9.2-0.4-12.6l0,0c-3.6-3.6-9.4-3.6-13,0c-0.1,0.1-0.2,0.2-0.3,0.3
			L3.4,52.2c-4.7,5.1-4.5,13,0.4,17.9l22.3,21.5L38.3,78.6z"/>
		<path class="st6" d="M101.1,80.9l27.5-30.2c3.4-3.7,9.2-4,12.9-0.6c0.1,0.1,0.2,0.2,0.3,0.3c3.5,3.5,3.6,9,0.3,12.6L115,92.8
			L101.1,80.9z"/>
		<path class="st7" d="M34,74.3l-13,13l26,21.6v51.9h51.9v-51.9l17.3-17.3l-13-13l-17.3,13H55.6L34,74.3z"/>
		<path class="st8" d="M85.9,91.6H55.6L34,74.3l-13,13l26,21.6v47.6h27.7c16.7-25.2,21.9-58.9,23.5-74.1L85.9,91.6z"/>
		<ellipse class="st9" cx="72.4" cy="43.4" rx="14.5" ry="7.2"/>
		<path class="st9" d="M73.1,24.8c-5.8,0-12.3,0.5-21.5,7.9s-9.5,28.5-7.6,31.4c1.9,2.9,3.9,1.1,3.9,1.1s2.4-14.6,6-20.2
			s13-0.5,14.3-0.1h8.5c1.3-0.4,10.8-5.5,14.3,0.1c3.6,5.6,6,20.2,6,20.2s1.9,1.8,3.9-1.1c1.9-2.9,3.2-23-6-30.4s-17.3-8.9-23.1-8.9
			"/>
		<path class="st10" d="M80,71.3c0,3.8-3.1,6.9-6.9,6.9s-6.9-3.1-6.9-6.9"/>
	</g>
</g>
</svg>
