<?xml version="1.0" encoding="utf-8"?>
<!-- Generator: Adobe Illustrator 24.1.2, SVG Export Plug-In . SVG Version: 6.00 Build 0)  -->
<svg version="1.1" id="Capa_1" xmlns="http://www.w3.org/2000/svg" xmlns:xlink="http://www.w3.org/1999/xlink" x="0px" y="0px"
	 viewBox="0 0 1080 1080" style="enable-background:new 0 0 1080 1080;" xml:space="preserve">
<style type="text/css">
	.st0{fill:#A652A6;}
	.st1{fill:#E7A4CF;}
	.st2{fill:#E19CCA;}
	.st3{fill:#D58EC3;}
	.st4{fill:#B8589E;}
	.st5{fill:#D086BF;}
	.st6{fill:#BF72B6;}
	.st7{fill:#842B7F;}
	.st8{fill:#AF5198;}
	.st9{fill:#8E3484;}
	.st10{fill:#BA6CB3;}
	.st11{fill:#C67ABA;}
	.st12{fill:#AC59A9;}
	.st13{fill:#B462AE;}
	.st14{fill:#7355C4;}
</style>
<g>
	<path class="st0" d="M758.9,893.8c-0.4,0.4-0.7,0.7-1.1,1.1c-3.6,2-7.5,2.4-11.5,2.3c-0.5,0-1,0.7-1.5,1.1
		c-0.6-0.1-1.3-0.3-1.9-0.4c-2.9-2.3-6.1-4.2-9.8-5c-0.7-0.5-1.3-1.1-2-1.6c-0.3-1-1-1.4-2-1.4c0,0-0.1-0.1-0.1,0
		c-1.7-3.3-4.3-5.3-7.9-5.9c-0.4-0.3-0.8-0.6-1.2-0.9c-0.1-2-1.4-2.1-2.9-2.1c0,0,0,0,0,0c-0.1-1.8-1.5-2-2.9-2
		c-0.3-0.2-0.7-0.4-1-0.6c-0.3-1-1-1.4-2.1-1.4c0,0,0,0,0,0c-0.3-2.4-1.8-3-4-3c-0.4-0.3-0.7-0.6-1.1-1c-0.1-2-1.4-2.1-2.9-2.1
		c-0.6-0.5-1.3-1.1-1.9-1.6c-0.5-1.5-1.5-2.3-3.1-2.4c-0.6-0.5-1.3-1.1-1.9-1.6c-0.1-1.9-1.3-2.5-3-2.4c-1-1-2.1-1.9-3.1-2.9
		c-0.4-2.8-2.1-4-4.8-4.1c-0.7-0.7-1.4-1.3-2.1-2c-1.1-3.3-4-4.7-6.9-6c-1-0.8-2-1.7-3-2.5c-1-2.2-2.4-3.9-4.9-4.5
		c-1.1-1-2.1-2-3.2-3c-0.9-2.9-2.6-4.7-5.8-5c-1.4-1.3-2.8-2.6-4.2-4c-0.8-3-2.6-4.9-5.9-5c-0.7-0.5-1.3-1.1-2-1.6
		c-1.4-2.5-3.1-4.6-6-5.4c-0.4-0.3-0.7-0.7-1.1-1c-1.8-4.6-4.9-3.5-8.2-1.9c-0.7,0.2-1.3,0.3-2,0.5c-2.2-0.5-4.1,0.1-5.8,1.3
		c-0.6,0.1-1.2,0.2-1.8,0.3c-3.2,0.2-6.3,0.3-9.2,1.8c-0.9,0.1-1.8,0.2-2.7,0.3c-1.2-0.3-2.4-0.6-3.3,0.6c-1,0.1-2,0.2-3,0.3
		c-3.7-0.5-7.4-0.7-11,0.9c-3,0-6,0-9,0c-3.3-2-6.8-0.8-10.2-0.8c-1.6-0.1-3.2-0.2-4.8-0.4c-0.9-1.1-2.1-0.9-3.3-0.6
		c-0.6-0.1-1.1-0.1-1.7-0.2c-1.1-1.5-2.7-1-4.2-0.9c-0.6-0.1-1.2-0.2-1.8-0.3c-2.2-1.2-4.6-1.9-7.2-1.7c-0.6-0.1-1.2-0.2-1.8-0.3
		c-0.6-0.9-1.4-0.9-2.3-0.6c-0.6-0.1-1.1-0.2-1.7-0.3c-2.6-2.1-5.2-3.3-8.2-0.7c-0.1,0.2-0.2,0.4-0.5,0.5c-1.6,0.9-2.2,2.4-2.4,4.1
		c-0.2,0.3-0.3,0.6-0.5,1c-1.8,0.7-2.3,2.3-2.6,4c-0.2,0.3-0.4,0.7-0.6,1c-1.7,0.8-2.1,2.3-2.4,3.9c-0.2,0.4-0.5,0.7-0.7,1.1
		c-1.9,0.7-2.4,2.1-2.3,3.9c-0.2,0.4-0.4,0.7-0.6,1.1c-1.8,1.3-3.1,2.9-3.2,5.3c-0.2,0.6-0.4,1.1-0.7,1.7c-1.5,0.4-1.8,1.8-2.4,3
		c-8.9,15.8-17.7,31.8-25.5,48.2c-4.4,9.2-9.3,18.2-14.5,26.9c-0.5,0.6-1,1.2-1.4,1.8c-1.9,0.8-3.8,1.7-4.7,3.7
		c-0.3,0.2-0.5,0.4-0.9,0.4c-5,0.7-10,0.7-15,0c-0.3-0.1-0.6-0.3-0.9-0.4c-3.5-4.6-6.7-9.1-7.4-15.3c-0.6-4.7-0.3-9.2,0.2-13.8
		c1.9-19.1,7.1-37.3,13.6-55.3c3.7-10.3,8.3-20.2,12.5-30.3c0.1-1.9,1.4-3.3,2.2-4.9c1.6-0.1,1.9-1.5,2.7-2.6
		c3.5-5.1,6.1-10.7,10.2-15.4c0.9,0,1.9,0,2.8,0c0.8,0.6,1.6,1.1,2.4,1.7c2.5,1.9,5.2,3.5,8.1,1.2c2.6-2.1,3.3-4.9,1.8-8.1
		c-1.3-2.7-2.4-5.5-3.7-8.1c-3.9-8-8.3-15.9-10.9-24.5c-0.8-2.7-0.2-4,2.2-5.1c3.1-1.5,6.3-3,9.3-4.7c1.5-0.9,2.4-2.4,1.8-4.3
		c-0.6-2.1-2.3-2.1-4-2.2c-2.6-0.1-4.9,0.9-7.2,1.7c-7.2,2.4-7.3,2.3-10.1-4.8c-0.2-0.6-0.4-1.3-0.6-1.9c-3.8-10.9-3.8-11,6.4-16.6
		c2.4-1.3,4.2-2.8,3.6-5.8c-0.6-3.1-3.1-4.2-5.9-4.5c-3.2-0.3-6.3,0.7-9.1,2c-2.3,1-3.4,0.5-4-1.8c-1.9-7.4-4-14.7-5.8-22.1
		c-0.7-3,0.2-5.2,4-5.2c2.9,0,5.4-1.5,8-2.4c2.8-1,5-2.5,4.5-5.6c-0.5-3.4-3.1-4.9-6.5-5c-3.3,0-6.7-0.1-10,0
		c-2.5,0.1-4-0.8-4.3-3.6c-0.6-4.8-1.2-9.5-2.4-14.2c-1-4-0.1-5.2,4.1-5.4c7.7-0.4,10-2.5,10.4-7.8c-0.3-1-0.7-2-1-3
		c2-0.3,3.9,0.7,5.8,0.9c2.2,0.3,3.3,1.3,3.1,3.6c-0.1,1.3-1.6,3,0.4,3.9c1.8,0.8,3-0.7,4.3-1.6c3.3-2.2,6.5-4.3,0.7-9.1
		c3.8,0.6,7.1,0.1,8.2,1.4c1.9,2.2-1.8,3.7-2.4,5.8c-0.1,0.3-0.1,0.6-0.2,1c-2.5,0.1-3.6,2.2-5.1,3.7c-0.9,0.9-1.1,2.1-0.3,3.2
		c0.9,1.2,1.8,0.5,3,0.2c4.5-1.2,2.6-4.4,2.4-7c1.5,0.2,2.9,0.5,4.4,0.6c2.9,0.3,5.4-1.2,7.5-2.8c2.3-1.8-0.2-3.3-1.1-4.9
		c-1.3-2.3-0.8-4.1,1.9-5c2.4-0.8,3.1-2.4,1.6-4.5c-0.6-0.9-3.3,0.1-2.5-2.1c0.7-1.9,2.8-1.2,4.4-1.4c0.3,0.6,0.7,1.1,0.9,1.7
		c5,17,12.8,32.3,26.4,44.2c11.6,10.2,28,10.6,35.5-7c3.2-7.5,3.1-15.1,3.4-22.9c1.8,0.3,1.9,1.7,1.8,3c-0.4,4.2,0.9,6.1,5.4,4.4
		c2-0.8,3.4,0.2,3.6,2.2c0.2,1.9,1.4,2.8,2.6,4c1.8,1.7,3.4,3.6,4.9,5.6c1,1.3,0.9,2.9-0.5,4c-1.1,0.9-1.7-0.1-2.3-1
		c-0.7-1.1-1.3-2.9-2.9-1.8c-1.5,1.1-1.4,3.6-0.4,4.5c2.8,2.6,5.1,5.9,8.6,7.7c0.9-0.9,0.5-1.5,0.1-2c-2-2.7,0.1-4.3,1.7-5.9
		c1.4-1.4,2.4,0,3.4,0.9c2.1,1.8,1.8,3.2-0.5,4.7c-1,0.6-0.8,1.9,0,2.7c3.5,3.5,4.5,7.7,3.4,13.8c4.9-5.5,7-5.3,7.3,1.4
		c0.1,3.3,3,3.6,4.8,0.9c2.3-3.6,6.7-3.1,9.6-5.5c0.9-0.8,2.1-0.4,2.1,1c0.4,8,7.7,7.6,12.3,8.6c4.3,0.9,8.6,1.6,12.7,3.2
		c4.4,1.7,8.5,1.6,12.7-1.1c2.1-1.3,5.1-3.6,7.3-1.5c3.6,3.4,5.1,0.7,7.1-1.4c1-1.1,1.7-2.4,2.7-3.5c0.9-0.9,2.2-1.2,3.2-0.5
		c1.5,1.1,0,1.9-0.5,2.9c-1.1,2.1-2.6,4.1-0.2,6.3c1,0.9,3.1,1.2,2.2,3.3c-0.8,1.7-2.3,0.4-3.5,0.4c-2.1,0-4,0.8-4.7,3
		c-0.5,1.8-0.4,3.9,1.7,4.7c3.9,1.5,6.8,4.7,10.8,6.1c2.3,0.8,3.9,1.2,4.3-1.8c0.2-1.7,1.2-2.4,2.7-2c5.4,1.7,10.5,4.4,16.4,3.5
		c0.3,0,0.6,0.2,0.9,0.4c-0.8,14.1-5.7,27.1-11.5,39.7c-6.2,13.3-13.9,25.6-24,36.4c-4.7,5-4.6,5.5,0.9,9.9
		c13.2,10.5,26.7,20.7,38.7,32.6c0.9,0.8,1.8,1.5,3.1,1.3c1.9,1.5,3.8,3,5.7,4.5c0.2,1.1,0.9,1.6,1.9,1.7c0.7,0.7,1.4,1.4,2.1,2
		c4.4,6.7,10.3,11.9,16.3,17.1c0.2,0.3,0.4,0.7,0.6,1c-0.2,2.2,1.3,3.1,3,3.8c0,0,0.1,0.1,0.1,0.1c0,1.4,0.1,2.8,2,2.9
		c0,0,0,0.1,0,0.1c0,1,0.4,1.7,1.4,2c0.2,0.3,0.4,0.7,0.6,1c0.8,3.1,1.7,6.1,4.5,8c0.2,0.6,0.4,1.1,0.7,1.7
		c1.8,5.8,0.3,11.7,0.2,17.5c-0.1,0.6-0.3,1.1-0.4,1.7C760.5,890.4,758.7,891.4,758.9,893.8z"/>
	<path class="st1" d="M592.8,247c2.8-4.4,7.7-5.6,11.8-8c30.5-17.7,61-35.3,91.3-53.1c21.7-12.8,44.4-23.9,68-32.9
		c19.8-7.5,40-13.2,60.9-16.4c23.3-3.7,46.6-4.4,69.2,4.6c11.8,4.7,22.6,10.8,29.8,21.6c12.3,18.4,2.3,38.5-15.1,45
		c-0.6-6.9,0.8-12.4,8.2-15.6c3.6-1.6,6.4-5.3,8.4-9c1.2-2.1,1.6-4.6-0.4-6.4c-1.9-1.7-3.4,0.4-4.8,1.4c-2.4,1.7-4.7,3.7-7.1,5.4
		c-2.5,1.8-3.9,1.9-4.3-2c-0.4-3.4-0.7-8.4-5.6-8c-4.4,0.4-4.2,5.3-5,8.8c0,0.2,0,0.3,0,0.5c1.4,6.6-2.3,9-8.1,10.5
		c-7.7,2-7.7,2.3-10.1-5.2c-0.6-1.9-1.6-3.5-3.6-3.7c-2.1-0.2-3.4,1.3-3.9,3.2c-0.6,1.9-1.2,3.9-1.3,5.8c-0.1,3.4-1.4,4.9-4.8,5.8
		c-6.9,1.8-14,2.8-21,4.1c-3.7,0.7-5.7,0.8-5.6-3.8c0.1-1.8-0.7-3.6-1.3-5.3c-0.5-1.4-1.1-3-2.9-3c-1.7-0.1-2.7,1.2-3.4,2.5
		c-1.3,2.5-2.2,5.2-2.1,8.1c0.2,3-1.2,4-4.1,4.2c-7.3,0.5-14.5,1.1-21.8,2c-4.3,0.5-7.9,1.1-7.5-5.2c0.1-1.8-1.3-3.7-3.8-3.9
		c-2.4-0.1-3.2,1.5-3.8,3.2c-0.5,1.4-0.8,2.9-0.9,4.3c-0.2,3.1-1.9,4.5-4.9,4.4c-7.5-0.1-14.8,1.6-22.2,2.4c-2.6,0.3-3.8,0-3.9-2.7
		c-0.1-2.8-1.6-5.2-4.3-5.3c-3.3-0.1-4.4,2.9-4.5,5.6c-0.2,2.9-1.5,4-4.2,4.4c-7.2,1.1-14.4,2.4-21.6,3.6c-2.9,0.5-3.9-1.1-4.4-3.5
		c-0.5-2.4-0.9-5.5-4.2-5.2c-3.5,0.3-3.9,3.5-3.6,6.1c0.4,4.1-1.8,5-5.1,5.8c-7.9,1.8-15.8,3.7-23.6,6.1c-4.1,1.3-6.6,1.2-7.3-3.7
		c-0.4-2.4-1.7-4.6-4.6-4.3c-2.8,0.3-4,2.6-3.6,5.1c1.1,6.4-1.7,9.6-7.7,10.7c-1.1,0.2-2.2,0.7-3.3,1.1c-2.2-1.8-4.6-0.8-7.1-0.6
		c-4.9,0.4-9.6,1.3-14.7,0.9c-8.6-0.6-17.3-0.3-25.8,3.1C602.5,242.6,598.8,247.5,592.8,247z"/>
	<path class="st2" d="M592.8,247c6,0.5,9.7-4.4,14.6-6.4c8.5-3.4,17.2-3.7,25.8-3.1c5.1,0.4,9.8-0.5,14.7-0.9
		c2.4-0.2,4.8-1.3,7.1,0.6c-5.8,2.9-11.5,5.7-17.3,8.6c-1.8,0.9-3,0.3-4.2-1.4c-1.2-1.7-2.5-3.8-5.2-2.8c-3.1,1.1-2.6,3.7-2.2,5.9
		c0.7,4-1.6,5.8-4.5,7.4c-1.7,1-3.7,1.7-5.2,2.9c-2.2,1.7-3.7,1.8-5.2-0.8c-0.7-1.2-1.9-2-3.4-1.5c-1.5,0.5-3,1.8-2.5,3.3
		c1.8,6.5-3.2,7.9-7.1,10.5c-4.4,2.9-9.2,5.4-12.4,9.8c-1.7,2.4-2.9,5.2-0.8,7.8c2.2,2.7,4.8,2.6,7.9,0.6
		c7.5-4.8,14.4-11.3,24.2-11.3c-0.7,2.5-3.2,2.9-5,3.6c-5.6,2.1-10.3,5.9-15.6,8.6c-2.9,1.5-2.9,3.4,0.1,4.9
		c10.1,5.3,18.9,12.4,26.8,20.4c5.6,5.7,12.2,10.7,15.5,18.4c-1.3,0-2.3-0.7-2.9-1.7c-3.8-5.5-9.3-9.6-13.5-14.7
		c-4.4-5.4-9.8-7.6-16.8-7.8c-8.8-0.2-17.5-1.2-26.2-1.9c-1.4-0.1-2.4-0.6-3.2-1.9c-3.9-6.8-4.9-7.1-13-5.3c-2.6,0.6-5.7,3-8-0.8
		c-0.6-1-1.8-0.6-2.5,0.3c-0.9,1-1.2,3.2-3.2,2.3c-1.9-0.8-2.3-2.6-2.3-4.6c0-2.9-0.5-4-4.2-2.6c-9.1,3.5-18.3,4.9-26.4-3
		c-2.1-2-5.6-2.9-8.7-1.2c-1.8,0.9-2.9,0.8-4.5-0.2c-2.4-1.5-6.6-3.3-7.8-1.4c-2.7,4-7.2,3.6-10.3,6.1c-1,0.8-2.3,2.2-3.4,0.8
		c-1-1.4,0.9-2.2,1.7-3.1c4.4-4.7,4.4-4.7-1.3-6.2c0.4-0.3,0.7-0.7,1.1-0.9c1.5-0.6,3.6-0.6,3.6-2.7c0-1.9-2.2-2.3-3.7-2.8
		c-4-1.4-8.1-2.5-12.2-3.7c5.9-7.1,5.9-7.1,13.8-3.1c5.5,2.8,10.8,5.8,15.6,9.6c2,1.6,4.4,2.5,6.6-0.1c2-2.5,0-3.9-1.4-5.5
		c-4.1-4.7-8.7-8.7-14.1-11.7c-10.2-5.5-10.3-5.4-7.2-16.6c0.7-2.4,0.6-4.3-1.5-5.7c-2.4-1.6-4.2-0.2-5.7,1.5
		c-2.3,2.6-4.3,5.5-6.3,8.3c-1.2,1.8-2.3,2.2-4.5,1.5c-5.7-1.8-11.4-3.7-17.3-4.7c-5-0.9-5.9-3.6-4.8-7.7c0.9-3.3,1-6.2-2.6-7.5
		c-3.6-1.3-4.8,2-6.4,4.2c-0.5,0.7-0.9,1.5-1,2.3c-0.6,3.6-2.8,4.6-6.1,4c-10.5-1.8-21-2.6-31.6-3.2c-3.6-0.2-6.3-1.4-5.6-6.1
		c0.3-1.9-0.5-3.9-0.9-5.9c-0.3-1.8-1.1-3.2-2.9-3.7c-2.2-0.5-3.5,1.2-4.3,2.8c-1.5,2.8-2.5,5.8-2.9,9c-1.8,0.1-2.8,1.1-3,2.8
		c-0.6,0-1.3,0-1.9,0c-3.6-2.8-7.7-2.4-11.7-1.8c-0.1,0-0.2,0.6-0.3,0.9c-3.3,0-6.6-0.1-9.9-0.1c-2.7-3.2-5.9-1.9-9-0.8
		c-2,0.2-3.2-0.6-3.1-2.8c0.1-1.2,0.2-2.3,0-3.5c-0.4-2.5,0-5.7-4-5.7c-3.7,0-5,2.6-5.9,5.5c-0.2,0.8-0.1,1.6-0.1,2.5
		c-2.2,0.6-4.1,1.8-6,3.1c-0.7,0-1.3,0-2-0.1c-0.1-1-0.4-2-1.7-1.8c-1,0.1-1.2,1-1.3,1.8c-2.3,0-4.6-0.1-7-0.1
		c-2.2-3.4-6.6-3.9-9-3.1c-6.4,2.3-12.6,0.5-18.9,1.2c-0.1-1.8-0.1-3.6-0.1-5.4c-0.1-5.6-1.4-6.5-7-4.5c-0.7,0-1.4-0.1-2,0
		c-4.5,0.9-8.9,1.9-13.3,2.9c-1.2,0.3-2.7-1.8-3.4,0.2c-0.6,1.7,0.9,2.8,2.2,3.5c2.2,1.2,3.8,2.7,3.6,5.4c-1.5,1.3-3.3,0.7-5,0.7
		c-1-4.7-4.8-3.7-8-3.8c0-0.7,0-1.3,0-2c2.7-0.7,3.7-3.1,2.6-4.9c-1.6-2.4-3.3-0.2-4.7,1.2c-2.3-0.4-4.6-0.6-6.8,0.8
		c-5,0.4-3.1,3.3-2.1,5.9c-0.3,0.7-0.5,1.4-0.8,2.1c-1.2,0-2.3,0-3.5-0.1c-1.9-0.2-4.5,0.9-5.2-1.7c-0.6-2.3,2.2-1.9,3.3-2.9
		c0.7-0.6,1.6-1.5,1.7-2.3c0-1.3-1.4-1.2-2.3-1.1c-2.8,0.2-4.1-1.5-5.6-3.4c-2.4-3.1-5-2.3-7.5,0c-0.8,0.7-1.4,1.7-0.7,2.6
		c0.9,1.2,1.7,0,2.4-0.5c0.8-0.6,1.5-1.7,2.5-1c1,0.8,0.8,2.2,0.5,3.2c-1.2,3-2.5,6-3.8,9c-1.6,0-3.3,0-4.9,0.1
		c0.1-3.5,2.3-7.3-2-9.9c0-1.6-0.1-3.3-0.1-4.9c0.3-3.1,0.1-5.8-3.9-6.1c-1.2-0.1-2.4,0.1-3.3-0.9c-3.9-4.1-6.9-0.2-8.4,2
		c-2.1,3.2-5.8,3.5-7.9,6.3c-0.8,1-2.8,0.9-3.5-1.2c-0.5-1.5-1.1-3-1.8-4.9c1.5,0.2,2.7,0.4,4,0.5c1.2,0.1,2.4-0.1,2.6-1.6
		c0.2-1.1,0.4-2.8-0.8-3.1c-3.8-0.9-6.6-4.4-10.8-4.3c-1.3,0-3-0.2-3.6,1.1c-1.5,3.2-4.6,2.8-7.1,3.8c-1.6,0.7-4.9-1.2-4.8,1.5
		c0.1,2.7,3.3,1.7,5.3,1.9c0.2,0,0.3,0.5,0.5,1c-1.4,0.9-4.2,0.8-3.6,3.7l0,0c-1,0-2.4,0.2-2.6-0.9c-1.7-6.2-4.4-6-8.1-1.6
		c0,0.1-0.5-0.2-0.8-0.4c-0.2-1,0.4-1.6,1-2.1c1.7-1.3,1.3-2.8,0.6-4.4c-0.3-0.6-0.4-1.4-1.3-1.2c-1.7,0.4-2,2.1-2.5,3.4
		c-0.5,1.1,0,3.4-1.8,2.9c-3.6-1.1-4.6,1.2-6.1,3.4c-0.9,1.3-2,2.5-4.1,1c-4.7-3.3-9.7-6.4-15.9-4.1c-0.2-3.6,1.5-6.5,3.6-9.2
		c0.1,0.6,0.1,1.3,0.3,1.9c0.2,1,0.7,1.9,1.9,1.7c0.3,0,0.7-0.6,0.8-1c0.2-1,0.1-2-1.1-2.3c-0.6-0.2-1.3-0.2-1.9-0.3
		c0.1-1.5-0.4-3.3,1.8-3.9c1-0.1,2.4,0.6,2.8-0.8c0.3-1-0.9-1-1.6-1.2c0-1.6,0.7-2.8,1.8-3.9c7.9-7.8,16.4-14.6,27.1-18.1
		c6.3,3.2,7.8-3.3,11.3-5.6c1.3-0.4,2.7-0.8,4-1.2c3.1,1.3,6,3.4,8.8-1c1.5-2.4,3.7-0.5,4.6,1.4c0.6,1.2,0.4,2.9,0.7,4.4
		c0.1,0.9,0.6,1.6,1.5,1.8c0.9,0.2,1.8-0.3,1.9-1.1c1-5.1,4.6-8.2,8.4-11.2c0.7,0,1.4-0.1,2-0.1c2.5,1.2,5,2.2,7-0.9
		c1,0,2-0.1,3-0.1c4.4,1.1,8.5,2.3,6,8.4c-0.3,0.6,0.1,1.7,0.5,2.3c5,7,11.3,11.7,21.1,7.9c2.2-0.8,3.5-0.6,3.2,1.7
		c-0.6,4.7,2.5,6.6,5.9,8.2c1.9,0.8,2.9,1.8,3.6,3.7c0.9,2.3,3,3,5.4,2.5c2.3-0.4,3.3-1.7,3.3-4.2c0.1-3.5,2.1-5.5,5.6-5.7
		c2-0.1,3.6-0.4,4.5-2.4c0.5-1.1,1.6-1.8,2.9-1.6c4.9,0.9,9.7,1.8,14.6,2.7c2.6,0.5,3.9,2,2.9,4.6c-0.9,2.4,0.3,3.7,2.1,4.3
		c1.9,0.6,4.1,2.6,6,0.4c2.4-2.7,4.5-3.8,7.3-0.7c0.8,0.9,1.9,0,2.8-0.2c1.7-0.4,2.4,0.3,3.2,2c2.6,4.8,4.9,10.4,12.3,8.8
		c1.2-0.2,2.2,0.4,3.2,1c3,1.8,6,3.4,9.1,5.1c1.7,0.9,3.3,1.6,4.3-1.1c1.5-4.3,8.3-6.2,10.7-2.6c2.8,4.3,5.4,6.4,10.2,3.6
		c0.2-0.1,0.7,0,1,0.1c7.5,1.7,14.9,3.5,22.6,4.3c4.5,0.5,9.7-0.6,13.8,2.5c3.9,3,7.9,4.8,12.7,2.2c0.6-0.3,1.7,0.8,2.7,1
		c3,0.7,6.6,3.1,9,1.6c2.7-1.7,3.9-1.7,5.8,0.2c1.1,1.1,2.3,1.1,3.7,0.5c1.9-0.9,4-0.4,5.2,0.7c3.8,3.5,8.3,3.2,12.7,2.8
		c6.4-0.6,12.8,1.8,19.2-0.1c8.3,1.8,15.2,6.5,22.6,10.3c9.9,5,19.6,10.4,29.1,16.3c6,3.8,11.1,8.9,17.7,11.9
		c3.2,1.5,5.6,2.1,8.7-0.1c11.3-7.9,22.6-15.7,34.8-22.3c2.2-0.2,4.4-0.2,4.9-3C592.3,247,592.5,246.9,592.8,247z M206.2,185.6
		c-0.3-2.4,0.4-3.7,1.7-4.6c1.8-1.3,3.1,0.1,4.4,1.1c1.5,1.1,2.6,2.7,4.8,1.8c1.1-0.5,1-1.6,1-2.6c-0.1-2.3-1.4-3.7-3.7-4
		c-1.6-0.2-2.2-1.2-3.1-2.2c-2.5-2.9-4.8-2.2-6.9,0.6c-1.8,2.3-2.7,5.4-5.2,6.9c-2.1,1.3-1.9,2.2-0.4,3.8c1,1,1.9,2.3,2.8,3.5
		c1.3,1.8,3.4,1.8,5,1.2c2.1-0.8,0.2-2.5,0.1-3.7C206.5,186.4,206.2,185.6,206.2,185.6z M182.2,198.7c-3.8,0.8-1.8,3.6-1.1,5.8
		c1.1,3.4,4.2,3.6,6.9,3.3c3.4-0.3,3-2.7,2.2-5.2c-0.6-1.8,0.2-3.6,1.2-5.2c1-1.5,2.8-3.4,0.8-4.7c-1.6-1-2.5,1.4-3.3,2.8
		C187.7,197.9,185.8,199.4,182.2,198.7z M240.4,221c0.9-0.1,2.1-0.4,2.2-1.8c0.1-1.4-0.9-2-2.2-2c-1.3,0-2.1,0.8-2.2,2.1
		C238.2,220.7,239.1,221,240.4,221z M245.6,221.5c-1.1,0-1.4,0.5-1.4,1.2c0,0.7,0.5,1.2,1.2,1.2c0.7,0,1.3-0.4,1.2-1.1
		C246.5,222.2,245.9,221.8,245.6,221.5z M210.6,189.2c-0.5,0.6-1,1.1-1.1,1.6c-0.2,0.9,0.6,1.1,1.2,0.8c0.5-0.3,0.8-0.9,1-1.4
		C211.7,190,211,189.6,210.6,189.2z"/>
	<path class="st3" d="M482,285.1c5.7,1.5,5.7,1.5,1.3,6.2c-0.8,0.9-2.7,1.8-1.7,3.1c1.1,1.5,2.4,0,3.4-0.8c3.1-2.5,7.6-2.2,10.3-6.1
		c1.3-1.9,5.4-0.1,7.8,1.4c1.6,1,2.7,1.1,4.5,0.2c3-1.6,6.6-0.8,8.7,1.2c8.2,7.9,17.3,6.6,26.4,3c3.7-1.4,4.2-0.4,4.2,2.6
		c0,2,0.5,3.8,2.3,4.6c2,0.9,2.3-1.3,3.2-2.3c0.8-0.8,1.9-1.3,2.5-0.3c2.4,3.9,5.4,1.4,8,0.8c8.1-1.7,9.1-1.5,13,5.3
		c0.8,1.3,1.8,1.8,3.2,1.9c8.7,0.6,17.5,1.7,26.2,1.9c7,0.1,12.4,2.4,16.8,7.8c4.2,5.1,9.6,9.2,13.5,14.7c0.7,1,1.7,1.7,2.9,1.7
		c0.2,0.3,0.3,0.6,0.3,0.9c0.7,2.7,1.7,5.2,4.7,6.1c0.2,0.3,0.2,0.6,0.3,0.9c0.5,3,1.9,5.6,4.7,7.1c0.1,0.3,0.2,0.6,0.3,1
		c0.6,5,5.2,8.6,5,14c-1.6,1.7-2.2,0.8-3.2-0.9c-2.4-4-4.3-3.7-6.6,0.4c-0.8,1.4-1.2,4.5-2.2,4c-4.4-1.7-5.6,2.2-8.1,3.9
		c-0.6,0.4-1.6,0.5-2.4,0.5c-0.9,0-1-0.8-0.6-1.4c1.8-2.9-1.4-6,0.8-9.1c0.8-1.1-0.7-3.9,0-6.1c0.7-2.2-1.9-2.8-2.7-1.8
		c-3,3.6-6.8,1-10.1,1.7c-1.3-0.4-2.6-0.9-3.9-1.3c-0.3-1.2-0.6-2.2-2-0.8c-0.7-0.1-1.4-0.1-2-0.2c-1-2.8-3.3-1.3-5.1-1.6
		c-1-0.2-2.4,1-3.1-0.5c-1.5-3.6-3.7-2.2-6-0.9c-3.1,1.7-1.9,4.1-0.9,6.4c-0.6,1.4-1.6,2.4-3,3c-1.5,0.1-2,0.9-1.9,2.3
		c-0.1,0.6-0.1,1.1-0.2,1.7c-2.2,0.3-3.8-0.2-4.4-2.8c-0.3-1.2-0.8-2.8-2.4-2.8c-1.8-0.1-1.8,1.6-2.3,2.8c-0.6,1.4-1.6,2.8-3.3,2.6
		c-1.9-0.2-1.3-2-1.5-3.2c-0.1-1-0.2-2.5-1.4-2.1c-7.1,2-5.7-2.1-4.7-6.1c0.2-0.6-0.1-1.3-0.3-1.9c-0.9-5-0.4-5.4,4.6-4.6
		c1.4,0.2,3.5,2.1,4.4,0.1c0.9-2.2-1.6-3.3-3.1-4.5c-0.8-0.6-2-0.6-2.7-1.2c-2.1-2.2-4.5-2.6-7.3-1.8c-2.9,0.9,1.6,5.9-3.2,5.8
		c-1,0-2,0.7-1.9,1.9c0.1,0.7,0.7,1.5,1.2,2.1c1.6,1.6,3.2,3.4,2.1,5.6c-1.3,2.4-3.9,1.1-5.9,1.2c-1.3,0-2.6-0.7-3.9-0.8
		c-4-0.3-8.2-2.4-11.5,1.9c-1.1,1.4-2.4,3.7-4.8,2.7c-2.1-0.9-1.3-3.1-1.7-4.8c-0.6-2.7-1.6-6.1-5.1-4.9c-4.2,1.5-3.9-0.3-3.3-3.1
		c0.3-1.2,0.8-2.4-0.3-3.3c-1-0.9-2.2-0.7-3.1,0.2c-2.6,2.5-3.7-0.3-5.4-1.4c-1-0.6-1.9-1.3-1.2-2.8c1.1-2.2,3-1.6,4.8-1.7
		c1.3-0.1,3,0.4,3.3-1.4c0.3-1.7-1.1-3.2-2.5-3.3c-3.9-0.1-7.9-4.9-11.7,0.2c-0.3,0.4-1.2,0.3-1.9,0.4c-5.3,0.8-5.3,0.8-2.5,5.7
		c0.3,0.6,0.7,1.1-0.1,2.2c-2.6-2.5-6.4-1.3-9.2-2.4c1.4-3.6,2.6-7.1,7-7.5c0.6-0.1,2.3-1.8,1.5-3.2c-0.6-1.1-2.1-0.6-3.2-0.7
		c-0.7,0-1.3,0-2,0.1c-5.5,0.9-9.3,5.4-14.8,6.4c-1.7,0.3-1.3,2-0.2,3.6c1.8,2.5,0.2,3.6-2.4,3.5c-1,0-2.1-0.7-2.8-0.4
		c-1.4,0.7-2.6,2.6-4.2,0.6c-1.7-2,0.3-3.3,1.4-4.7c1.2-1.6,1.4-3.6,0.5-5.2c-1.1-2-3.2-0.7-4.9-0.6c-2.6,0.2-4.2,2.7-6.8,2.5
		c-5.6-1.2-6-2.1-3-6.1c5.3-2.2,6.4-4,4-7c0.1-0.8,0.3-1.5,1-2c1.7-0.3,3.9,1,4.8-1.4c0.6-1.6-0.2-2.9-1.8-3.6
		c0.1-0.5,0.1-1,0.3-1.5c1-2.2,1.1-4.3-1.1-5.7c-2.2-1.4-3.9,0.3-5.1,1.7c-3.2,3.3-6.6,6.3-9,10.5c-2.6,4.4-4.2,10.4-12.1,9.4
		c-3.9-0.5-5.2,4.9-2,8.1c2.5,2.5,3.6,4.6,0.9,7.5c-1.4,0-2.7,0-2.9-1.9c-0.2-1.5-0.6-3.3-2.6-2.6c-1.9,0.7-2.6,2.2-1.5,4.4
		c0.8,1.7-3.9,7.8-5.6,7.6c-1.4-0.2-1.1-1.3-1.2-2.3c-0.2-1.6,0.8-3.9-2-4.3c1.2-3.4,4.1-6.2,3.9-10.1c0-0.3,0.1-0.6,0.2-0.9
		c3.3-1.7,3.9-5,4.8-8.1c0-0.3,0.1-0.6,0.3-0.8c2.4-0.3,2.9-2,2.8-4c0.4-0.7,0.8-1.3,1.3-2c7.7-5.5,13.3-13.1,19.8-19.8
		c0.3-0.1,0.6-0.2,0.9-0.3c3.3-1.1,6.2-2.7,8.1-5.7c0.3-0.1,0.6-0.2,0.9-0.3c0.7,0,1.4,0,2.1,0c1.6,1.5,1.8,0.3,2-1
		c0-0.6,0.1-1.2,0.1-1.7c0.6-0.1,1.1-0.3,1.7-0.4C479.2,285.7,480.6,285.4,482,285.1z M626.6,345c-0.3-1.6-1.5-1.9-2.9-1.9
		c-1.1,0-2.5,0-2.5,1.5c0,1.8,1.4,2.4,3,2.3C625.5,346.9,626.5,346.4,626.6,345z M516.2,293.3c-1.7-1.3-3-1.9-5.2-1.5
		C512.2,294.1,513.6,294.5,516.2,293.3z"/>
	<path class="st4" d="M617,276.1c-9.8,0-16.7,6.4-24.2,11.3c-3.1,2-5.7,2.1-7.9-0.6c-2.1-2.6-1-5.4,0.8-7.8c3.2-4.4,8-6.9,12.4-9.8
		c3.9-2.6,8.9-4,7.1-10.5c-0.4-1.5,1.1-2.8,2.5-3.3c1.5-0.5,2.7,0.3,3.4,1.5c1.5,2.5,3,2.5,5.2,0.8c1.5-1.2,3.5-1.9,5.2-2.9
		c2.9-1.6,5.2-3.4,4.5-7.4c-0.4-2.1-0.8-4.8,2.2-5.9c2.7-0.9,4,1.1,5.2,2.8c1.2,1.6,2.4,2.2,4.2,1.4c5.8-2.8,11.6-5.7,17.3-8.6
		c1.1-0.4,2.2-0.9,3.3-1.1c6-1.1,8.8-4.3,7.7-10.7c-0.4-2.5,0.7-4.8,3.6-5.1c2.9-0.3,4.2,1.8,4.6,4.3c0.7,4.9,3.2,5,7.3,3.7
		c7.8-2.4,15.7-4.2,23.6-6.1c3.3-0.8,5.5-1.7,5.1-5.8c-0.3-2.6,0.2-5.8,3.6-6.1c3.3-0.2,3.7,2.8,4.2,5.2c0.5,2.4,1.5,4,4.4,3.5
		c7.2-1.2,14.3-2.5,21.6-3.6c2.8-0.4,4-1.5,4.2-4.4c0.2-2.7,1.3-5.7,4.5-5.6c2.7,0.1,4.2,2.5,4.3,5.3c0.1,2.7,1.3,3,3.9,2.7
		c7.4-0.8,14.7-2.5,22.2-2.4c3,0,4.7-1.3,4.9-4.4c0.1-1.5,0.4-3,0.9-4.3c0.6-1.7,1.4-3.4,3.8-3.2c2.5,0.2,3.9,2.1,3.8,3.9
		c-0.4,6.3,3.2,5.8,7.5,5.2c7.2-0.9,14.5-1.5,21.8-2c2.9-0.2,4.3-1.2,4.1-4.2c-0.2-2.9,0.8-5.6,2.1-8.1c0.7-1.4,1.7-2.6,3.4-2.5
		c1.8,0.1,2.4,1.6,2.9,3c0.6,1.7,1.3,3.5,1.3,5.3c-0.2,4.6,1.8,4.5,5.6,3.8c7-1.3,14-2.3,21-4.1c3.4-0.9,4.7-2.4,4.8-5.8
		c0-1.9,0.7-3.9,1.3-5.8c0.6-1.9,1.8-3.4,3.9-3.2c2.1,0.2,3,1.8,3.6,3.7c2.4,7.5,2.4,7.2,10.1,5.2c5.7-1.5,9.4-3.9,8.1-10.5
		c0-0.2,0-0.3,0-0.5c0.8-3.5,0.6-8.4,5-8.8c4.8-0.4,5.2,4.5,5.6,8c0.4,3.8,1.8,3.8,4.3,2c2.4-1.8,4.7-3.7,7.1-5.4
		c1.4-1,2.9-3,4.8-1.4c2,1.8,1.6,4.3,0.4,6.4c-2,3.7-4.8,7.4-8.4,9c-7.4,3.2-8.8,8.6-8.2,15.6c-0.2,0.2-0.4,0.4-0.7,0.5
		c-0.8,0.2-1.7,0.2-2.4,0.6c-3.6,2.2-6.4,3.1-6.1-3c0.1-1.4-1-3.3-2.9-2.4c-7.2,3.5-18.6,1.7-18.6,14.5c0,0.3-0.2,0.6-0.3,0.9
		c-2.2,0.5-4.4,1-6.7,1.5c-0.7-0.1-1.3-0.2-2-0.3c0-1-0.2-2-0.1-3c0.5-4.2-0.7-5.6-5.2-4.2c-6.1,1.9-12.4,3-18.8,3.4
		c-2.2,0.1-5.3,0-5.1,3.8c0,3.6-1.8,4.9-5.3,5.1c-3.4,0.2-3.9-1.4-3.8-4.2c0-1.7-0.8-2.7-2.9-2.4c-8.6,1.4-17.4,1.6-26.1,3.2
		c-3.4,0.6-5.1,1.5-5,5.2c0.1,3.1-2.5,3-4.7,3c-1.9,0-4.3,0.6-4.2-2.6c0.1-3.7-2.1-3.4-4.6-2.9c-5.2,0.9-10.4,2.1-15.7,2.5
		c-6.7,0.5-13,0.9-12.9,9.9c-1.6,0.1-3.2,0.3-4.7,0.4c-0.2-0.2-0.5-0.3-0.9-0.3c-0.7-7.8-0.8-7.8-8.7-6.3c-4.7,0.9-9.5,1.6-14.2,2.4
		c-7.3,1.2-7.3,1.3-7.2,9c-2,2.2-4.5,2.1-7.1,2c-0.4-8.3-0.5-8.4-8.6-6.3c-6.9,1.8-13.6,4.3-20.6,5.6c-5.5,1.1-6.7,3.9-5.7,8.7
		c-4.8,4.2-7.1,4-9.4-1.1c-1-2.1-2.3-1.9-4.1-1.2c-5.5,2.3-11.1,4.4-16.4,7c-4.1,2-8.3,3.6-8.2,9.2c-1,0.1-1.8,0.5-2.2,1.5
		c-1.2,0.4-2.5,0.8-3.7,1.2c-0.8-3.5-2.6-4.2-5.7-2.2c-2.1,1.4-4.3,2.4-6.5,3.7C618.7,271.6,616.7,273.1,617,276.1L617,276.1z"/>
	<path class="st1" d="M474.3,233.9c-6.4,1.9-12.8-0.5-19.2,0.1c-4.4,0.4-8.9,0.7-12.7-2.8c-1.2-1.1-3.3-1.6-5.2-0.7
		c-1.3,0.7-2.6,0.6-3.7-0.5c-1.9-2-3.2-2-5.8-0.2c-2.3,1.5-5.9-0.9-9-1.6c-0.9-0.2-2.1-1.3-2.7-1c-4.9,2.6-8.8,0.8-12.7-2.2
		c-4.1-3.1-9.3-2-13.8-2.5c-7.7-0.8-15.1-2.6-22.6-4.3c-0.3-0.1-0.7-0.2-1-0.1c-4.8,2.8-7.4,0.7-10.2-3.6c-2.4-3.6-9.2-1.7-10.7,2.6
		c-0.9,2.7-2.5,2-4.3,1.1c-3-1.7-6.1-3.3-9.1-5.1c-1-0.6-2.1-1.3-3.2-1c-7.3,1.5-9.7-4-12.3-8.8c-0.9-1.7-1.5-2.4-3.2-2
		c-0.9,0.2-2,1-2.8,0.2c-2.8-3.1-5-2-7.3,0.7c-1.9,2.2-4.1,0.2-6-0.4c-1.8-0.6-3-1.9-2.1-4.3c1-2.6-0.3-4.1-2.9-4.6
		c-4.9-0.9-9.7-1.8-14.6-2.7c-1.3-0.2-2.3,0.4-2.9,1.6c-0.9,2-2.5,2.3-4.5,2.4c-3.5,0.1-5.6,2.2-5.6,5.7c0,2.5-1.1,3.7-3.3,4.2
		c-2.4,0.5-4.5-0.2-5.4-2.5c-0.7-1.9-1.7-2.8-3.6-3.7c-3.3-1.5-6.5-3.5-5.9-8.2c0.3-2.4-1-2.6-3.2-1.7c-9.8,3.8-16.2-0.9-21.1-7.9
		c-0.4-0.6-0.8-1.7-0.5-2.3c2.5-6.1-1.7-7.3-6-8.4c1.3-1.6,3.1-1,4.7-1c29-0.5,57.6,2.3,86.1,7.6c29.4,5.4,58.4,12.3,86.6,22.4
		c26.6,9.5,52.7,20.2,78.1,32.8C472,231.6,473.8,232.1,474.3,233.9z"/>
	<path class="st5" d="M618.9,353.1c3.3-0.7,7,1.9,10.1-1.7c0.8-0.9,3.4-0.4,2.7,1.8c-0.7,2.3,0.8,5,0,6.1c-2.1,3.2,1,6.3-0.8,9.1
		c-0.4,0.6-0.3,1.4,0.6,1.4c0.8,0,1.7,0,2.4-0.5c2.5-1.6,3.7-5.6,8.1-3.9c1.1,0.4,1.4-2.6,2.2-4c2.4-4.1,4.2-4.3,6.6-0.4
		c1,1.6,1.6,2.5,3.2,0.9c1.3,0.6,2.1,1.7,2.4,3c1.9,7.1,5.3,13.7,5.9,21.3c0.2,3.5,0.8,7.5,2.9,10.7c0,0.6,0,1.1,0,1.7
		c-0.1,6.8-0.2,13.5-0.3,20.3c-6-2.7-6.9-2.4-10.7,3.2c-0.7,1.1-1.4,2.2-2.3,3.2c-0.7,0.9-1.7,1.8-3,1.2c-1.2-0.5-0.9-1.6-0.6-2.6
		c0.5-1.6-0.4-2.1-1.8-2.1c-2,0-3.9-0.6-5.8-0.8c-8.5-1.1-13.8,3.1-15.4,11.9c-0.3,1.5-1.3,1.7-2.5,1.9c-0.7,0-1.3,0-2,0
		c-0.9-2.1-2.2-4.2-2.5-6.4c-0.5-3.2-1.3-5-5.2-4.7c-3,0.2-7.7-4.9-6.6-6.6c1.9-2.9,0.1-3.5-1.6-5c-1.8-1.6-6-3.1-1.6-6.6
		c1.4-1.1,0-2.7-1.2-3.8c-0.8-0.8-2.1-1-1.9-2.6c0.7-4.9-1.8-3.4-4.2-1.9c-2.4,1.5-10.2-1.3-11-4c-0.2-0.6-0.1-1.4,0.2-1.9
		c0.9-1.5,1.9-2.7,0.1-4.3c-1.9-1.7-3.2-0.4-4.9,0.3c-1.8,0.7-5.1,2.4-3.9-2.5c0.9-3.8-1.3-5.9-4.8-6.9c-1-1.3-2-2.7-3-4
		c0.8-1.8,2-3.2,3.6-4.5c2.9-2.3-0.4-4.4-1-6.5c-0.4-1.6-2.3-0.2-2.6,0.6c-1,3.4-3,4.5-6.4,3.8c-0.4-0.1-1.1,1.1-1.6,1.7
		c-1.7-0.4-3.3-0.7-5-1.1c-0.1-2,0.4-3.6,2.7-4.1c2.6-0.5,2.2-3.5,3.9-4.8c0.4-0.3,0.3-1.4-0.4-1.7c-0.5-0.2-1.7-0.2-1.8,0
		c-1.2,4.5-5.4,2.1-7.8,3.5c-3.2,1.8-5.6,1.5-7.2-2c-0.4-0.8-0.8-2-2.2-1.3c-1.1,0.5-0.6,1.6-0.8,2.5c-0.4,3.2,1,5.9,1.5,8.9
		c-5.6,1.4-9.3,5.1-11.9,10.1c-0.7,0-1.4-0.2-1.9,0.1c-4.6,2.7-8.2,2.6-10.7-2.9c-0.8-1.8-2-0.8-2.8,0.6c-3.3,5.4-3.3,5.4-7.6,1.1
		c0-0.7,0.1-1.3,0.1-2c6.5-0.1,12-9.9,8-16.1c-2.9-4.6,1.3-6.1,3.1-8.1c1.8-1.9,4.8-0.1,6.7,1.2c1,0.7,3.2,3.1,0.5,4.8
		c-1.1,0.7-2.7,0.7-2.3,2.5c0.5,2.6,2.5,0.4,3.7,1c1.8,1,3.5-0.7,5.3-0.5c0.9,0.1,2-1,1.6-1.3c-3.8-2.7-0.8-6.6-2-9.8
		c-0.4-1-1.6-2.1-2.2-1.6c-3.2,2.9-6.1-0.3-9.1-0.2c-1.6,0.1-3.7-0.6-4.7,1c-1.9,3.3-4.5,3.5-7.7,2.5c-1.1-0.3-2-0.3-2.6,0.7
		c-0.7,1.1,0.1,1.9,0.8,2.6c1.4,1.4,3,2.7,4.2,4.3c1.6,2.2,3.8,5.1,2.7,7.5c-1.5,3.1-4.7,0.6-7.2,0.3c-0.9-3.1-4.3-4.7-5.1-8
		c0.2-0.2,0.4-0.5,0.7-0.7c-5.4-4.7-0.2-6.1,2.6-8.2c0.5-0.4,1.3-0.5,1.7-1c1-1.4,2-3,0.2-4.4c-1.7-1.3-2.7-0.4-3,1.5
		c-0.1,0.7-0.8,1.5-1.2,1.1c-3-3.1-5.4,0.3-8,0.6c-2.6,0.3-4,4.9-5.9,3.1c-1.6-1.5,0.4-5.2,1-7.9c0.3-1.5,1-3.7-1.5-4
		c-2.3-0.3-3.9,0.8-4.4,3.6c-0.4,2.6,1.8,4.5,1.5,7c-6.7-1-8.4,0.6-8.3,7.4c-0.7,0.9-1.4,1.9-2.1,2.8c-6.3-0.1-9.6,4.8-13.9,8
		c-0.6-1.1-1.7-1-2.7-1.1c-0.1-0.6-0.1-1.3-0.2-1.9c2.1-1,4.3-2,3.9-5c1.4,0.1,2.3-1.1,3.5-1.6c4.2-1.9,4.3-3.5,0.5-7.4
		c0.3-2.7,2.6-4.8,2-7.7c5.3-1.4,7-5.3,3.6-9.1c-1.4-1.6-3.2-2.8-4.7-4.1c2.6,0.2,4.2-2.4,6.8-2.5c1.8-0.1,3.8-1.5,4.9,0.6
		c0.9,1.5,0.7,3.6-0.5,5.2c-1.1,1.4-3,2.6-1.4,4.7c1.6,2,2.8,0.1,4.2-0.6c0.7-0.4,1.9,0.4,2.8,0.4c2.6,0.1,4.1-1,2.4-3.5
		c-1.1-1.6-1.4-3.3,0.2-3.6c5.4-1.1,9.3-5.6,14.8-6.4c0.7-0.1,1.3-0.2,2-0.1c1.1,0.1,2.6-0.5,3.2,0.7c0.8,1.5-0.9,3.2-1.5,3.2
		c-4.4,0.4-5.6,3.9-7,7.5c2.8,1.1,6.6,0,9.2,2.4c0.8-1,0.5-1.6,0.1-2.2c-2.8-5-2.8-5,2.5-5.7c0.7-0.1,1.6,0,1.9-0.4
		c3.8-5,7.8-0.3,11.7-0.2c1.4,0.1,2.8,1.6,2.5,3.3c-0.3,1.8-2.1,1.3-3.3,1.4c-1.8,0.1-3.7-0.5-4.8,1.7c-0.7,1.5,0.1,2.1,1.2,2.8
		c1.6,1,2.8,3.9,5.4,1.4c0.9-0.9,2.1-1.1,3.1-0.2c1,0.9,0.5,2.1,0.3,3.3c-0.6,2.8-0.9,4.6,3.3,3.1c3.5-1.3,4.4,2.2,5.1,4.9
		c0.4,1.7-0.5,4,1.7,4.8c2.4,1,3.7-1.2,4.8-2.7c3.3-4.3,7.5-2.2,11.5-1.9c1.3,0.1,2.6,0.9,3.9,0.8c2-0.1,4.6,1.3,5.9-1.2
		c1.2-2.3-0.4-4.1-2.1-5.6c-0.6-0.5-1.1-1.3-1.2-2.1c-0.1-1.2,0.9-1.9,1.9-1.9c4.8,0.1,0.3-4.9,3.2-5.8c2.8-0.9,5.2-0.4,7.3,1.8
		c0.6,0.7,1.9,0.7,2.7,1.2c1.5,1.1,4,2.3,3.1,4.5c-0.8,2.1-3,0.2-4.4-0.1c-5-0.8-5.5-0.4-4.6,4.6c0.1,0.6,0.4,1.4,0.3,1.9
		c-1.1,4.1-2.4,8.2,4.7,6.1c1.3-0.4,1.3,1.1,1.4,2.1c0.1,1.2-0.4,3,1.5,3.2c1.7,0.2,2.7-1.2,3.3-2.6c0.5-1.2,0.5-2.8,2.3-2.8
		c1.6,0.1,2.1,1.6,2.4,2.8c0.6,2.5,2.2,3,4.5,2.8c-1.6,4.3,0,8.7,0,13c-0.7-0.1-1.3-0.1-2-0.2c-1.6-0.2-3-3.2-4.6-0.8
		c-1.1,1.8,0,3.6,1.3,5.7c3,4.7,7.9,4.6,12.1,6.3c4.2,5.5,10.2,5.7,16.1,4.9c9.1-1.3,15-5.4,15-16.2
		C628.9,365.2,624.9,358.7,618.9,353.1z M639.9,404.4c0-2.2-1-3.2-3-3.4c-1.1-0.1-2.8,0.1-2.7-1.4c0.2-3.9-2.7-3.4-5-4
		c-1-0.3-2.2-0.9-2.7,0.1c-0.6,1.4,0.7,2,1.9,2.2c3.4,0.8,3.2,2.4,0.9,4.4c-1.6,1.4-2.4,3.1-2.4,5.2c0,0.8-0.1,1.9,1,1.9
		c0.5,0,1.4-0.6,1.5-1c1-4.8,3.9-4.1,7-2.4C638.9,407.4,639.5,406.2,639.9,404.4z M623.8,417c1.3,0,2.2,0,3,0
		c1.3-0.1,3.1,0.3,2.9-1.7c-0.2-1.7-1.4-4.2-3.1-3.8c-4.7,1.2-9.3,0.1-13.9,0.5c-1.3,0.1-2.3,0.7-2.4,2c-0.2,1.6,1,1.8,2.3,1.9
		C616.4,416.4,620.4,416.7,623.8,417z M471.4,350.2c0.1,1,0.7,1.5,1.5,1.7c0.9,0.2,1.8-0.1,1.6-1.1c-0.1-0.8-0.8-1.4-1.7-1.5
		C472.2,349.2,471.5,349.3,471.4,350.2z M635,419c-0.6-0.6-0.9-1.2-1.4-1.5c-0.6-0.3-1.4-0.1-1.2,0.8c0.1,0.5,0.7,1,1.2,1.3
		C633.8,419.8,634.3,419.3,635,419z"/>
	<path class="st6" d="M621,435c0.7,0,1.3,0,2,0c0.1,0.3,0.3,0.6,0.4,0.9c1.2,1.9,2.1,5,5,3.6c3.3-1.6-0.1-3.1-0.8-4.6
		c-0.4-0.8-0.3-1.6,0.4-2.2c1.1-0.9,2.2-0.8,3.2,0c1.6,1.4,3.1,2.9,5.2,3.6c2,0.7,1.9,2.3,0.3,3.9c-3.3,3.3-3,8.3-5.2,12.1
		c-0.5,0.8,0,1.7,0.9,2c1.5,0.4,1.3-0.8,1.6-1.7c1-2.9,2-5.9,3.2-8.8c0.4-1.2,1.3-2.1,2.7-1.3c1,0.6,1.4,1.7,0.8,2.6
		c-3.8,4.8,0.7,4.2,3.1,4.9c2.7,0.8,5.6,1.2,8.3,2.2c1.7,0.6,3.2,2.6,0.7,3.4c-5.1,1.6-1.4,3.5-0.7,5.4c0,1.4-0.7,2.4-2,3
		c-1-0.2-2-0.2-2.9-0.5c-1.6-0.4-3.2-2.4-4.7-0.1c-1.4,2.1-2.2,4.5-0.5,6.9c0.7,0.9,1.4,1.8,2.1,2.7c0,0.3,0,0.6-0.1,1
		c-3.1-0.4-4.3,1-3.9,4c0,0.6,0,1.2-0.1,1.9c-0.2,0.1-0.5,0.2-0.7,0.2c-2.1-0.2-1.9-1.7-2.3-3.2c-0.5-2-0.2-5.2-3.7-4.8
		c-3.2,0.3-5.1,2.4-5.1,5.6c0,2.2-0.8,3.9-2.5,5.2c-2.4,1.8-2.9,4.3-2.6,7.1c-7.5,5.9-15.5,10.9-25,13c-1.6-1.5-1.8-0.3-2,1
		c-3.5,1.7-7.2,2.1-11,2c-3.8-5.3-8.4-6.1-13.3-2.4c-1.3,1-2.5,2.3-4,2.9c-2.3,0.9-4.7,1.4-4.7-2.5c1.6-0.8,4.2-1.2,2.8-3.8
		c-1.4-2.9-3.3-5.1-0.2-8.5c1.7-1.9,1.5-5.7,1.6-8.6c0.1-1-2.1-2.3-0.6-3.4c1.4-1,2.7,0.6,3.9,1.4c0.8,0.5,1.3,1.6,2.8,1.5
		c-0.9-4.8,1.5-3.9,4.2-2.3c0.6,0.3,1,0.8,1.6,1.1c0.9,0.5,2,0.7,2.5-0.5c0.4-0.9-0.2-1.6-1.1-1.9c-2.6-0.9-4.2-3.2-4.1-5.6
		c0.1-3.2-2.5-4.2-4-5.1c-2.1-1.3-3.7,1.3-5,3c-0.7,0.9-0.8,2.2-1.5,3.1c-1.6,2-2.5,6-4.8,5.7c-3.2-0.4-5.6,0.6-7.9,2
		c-1.9,1.1-2.8,1.3-4.4-0.4c-1-1.1-3.3-3.6-4.4-1.9c-2.3,3.8-6.8,3.2-9.5,5.7c-1.9,1.7-4.6,2.2-5.7,0.3c-1.4-2.6-1.6-5.9-1.9-8.9
		c-0.1-0.9,1.3-0.4,2,0c2,1.1,4.1,2.2,6.1,3.3c0.9,0.5,1.9,1.1,2.7,0.2c0.9-1.1-0.2-1.8-1-2.3c-1.4-1-1.6-2.1-0.4-3.3
		c1.2-1.2,2.4-0.8,3.5,0.2c3.9,3.7,7.8,0.1,11.6-0.2c2.1-0.2,2.1-2.2,0.5-3.7c-1.7-1.7-2.3-3.6-1.9-6.2c0.4-2.6-0.7-5.3-4.5-4.8
		c-1.7,0.2-3.3-0.1-4.2-2c1.3-4.6,1.3-4.6,4.9-3.3c1.3,0.5,2.2-0.3,3-1.2c1.4-1.5,3-2.5,5.1-2.8c1.4-0.2,3.3-0.8,3.5-2.4
		c0.6-4,3.1-3.8,5.8-3c2.1,0.6,3.6,0,3.5-2.1c-0.2-4.6,3.5-5.1,6-4.7c3.9,0.7,0.5,3.9,0.5,6.4c1.1-0.5,1.8-0.7,2.1-1.1
		c2-3.4,3.6-6.1,5.5,0.2c0.5,1.6,1.9,4,4.6,3.9c3.3-0.1,2-2.8,2.6-4.4c0.7-1.9,2.3-2.9,4.1-3.3c1.5-0.4,2.4,0.7,2.7,2.2
		c0.3,1.5,0.3,3.4,2.4,3c1.9-0.3,1.6-2.2,1.7-3.7c0.1-1-0.2-2.3,1.1-2.4c1.1-0.1,2.4,0.4,2.5,1.9c0.4,4.7,5.1,3.7,6.2,2.8
		c2.7-2.4,5.5-0.6,7.7-1.5c2.5-1-0.1-5.3,2.7-7C620.5,435.5,620.8,435.2,621,435z"/>
	<path class="st7" d="M474,630c-0.4,5.4-2.7,7.4-10.4,7.8c-4.2,0.2-5.2,1.4-4.1,5.4c1.2,4.6,1.9,9.4,2.4,14.2
		c0.3,2.8,1.8,3.6,4.3,3.6c3.3-0.1,6.7,0,10,0c3.4,0,6,1.5,6.5,5c0.5,3.1-1.7,4.6-4.5,5.6c-2.7,0.9-5.2,2.5-8,2.4
		c-3.8,0-4.8,2.1-4,5.2c1.8,7.4,3.9,14.7,5.8,22.1c0.6,2.3,1.7,2.9,4,1.8c2.9-1.3,5.9-2.3,9.1-2c2.8,0.3,5.2,1.4,5.9,4.5
		c0.6,3-1.2,4.5-3.6,5.8c-10.2,5.6-10.2,5.6-6.4,16.6c0.2,0.6,0.4,1.3,0.6,1.9c2.8,7.1,2.9,7.2,10.1,4.8c2.4-0.8,4.6-1.8,7.2-1.7
		c1.7,0.1,3.4,0.1,4,2.2c0.5,1.9-0.3,3.4-1.8,4.3c-3,1.7-6.1,3.3-9.3,4.7c-2.4,1.1-3,2.5-2.2,5.1c2.6,8.7,7,16.5,10.9,24.5
		c1.3,2.7,2.5,5.4,3.7,8.1c1.5,3.2,0.8,6-1.8,8.1c-2.9,2.3-5.6,0.7-8.1-1.2c-0.8-0.6-1.6-1.2-2.4-1.8c-0.4-1.3-1.4-1.8-2.6-2.3
		c-1.1-1.3-2.1-2.5-3.2-3.8c-1.7-6.6-5.9-12.2-8.4-18.4c-3.6-8.7-3.7-8.6-12.7-4.6c-0.5-0.1-1-0.1-1.5-0.2c-0.5-0.6-0.9-1.3-1.4-1.9
		c0.1-1.1-0.4-1.8-1.5-2.1c-0.2-0.2-0.4-0.5-0.6-0.8c-0.3-1.3-0.6-2.5-0.9-3.8c11-6.2,11-6.2,7-17.8c-0.4-1.3-1-2.5-1.4-3.7
		c-1-3.6-2.5-5.5-6.8-3.9c-2.3,0.8-5.3,0.1-6.6-2.3c-1.4-2.5-0.7-5.2,1.7-7.1c1.2-0.9,2.3-1.9,3.5-2.7c1.7-1.2,2.1-2.5,1.4-4.7
		c-2.1-7.3-4.1-14.7-5.7-22.1c-1.2-5.6-2.3-10.1-9.7-9.1c-2.6,0.4-6.1-1.2-6.3-4.5c-0.2-3.2,2.2-5.3,5.4-6.4
		c0.6-0.2,1.2-0.6,1.9-0.7c4.2-0.7,4.7-3.2,4-6.9c-1.1-5.2-2.1-10.4-2.6-15.6c-0.8-9.4-0.9-9.9-10-12.8c-1.2-2.3-4.5-4.6,0-7
		c8,0.2,8,0.2,8-5.9c0.8,0.2,1.6,0.4,2.4,0.7c1.3,0.4,2.7,2,4,0.2c1.1-1.5,1.2-3.4,0.1-4.7c-2-2.3-3.5-5.4-7.4-5.2c0-1.7,0-3.3,0-5
		c5.4-1.4,9.4,2.1,13.9,4c0.1,0.7,0.1,1.3,0.2,2c-0.3,4.1,0,8.1,1,12c0,1.3,0,2.7,0,4c-0.7,0.2-2,0.2-1.5,1.2
		c0.7,1.4,1.7,0.7,2.5-0.3c2.6,0.1,5.3,0.2,7.9,0.3c0.3,1.3,0.7,2.3,2,0.8c0.7,0,1.3,0.1,2,0.1C469.8,628.9,471.7,629.6,474,630z"/>
	<path class="st8" d="M243.2,229.2c2.1-1.3,4.4-1.1,6.8-0.8c0.7,1.2,1.4,2.5,2.2,3.7c0,0.7,0,1.3,0,2c-0.1,7,5.1,2.9,8,3.8
		c1.7,0,3.5,0.6,5-0.7c10.1-0.1,10.1-0.1,12.7-9.6c0.2-0.8,0.2-1.6,0.4-2.5c5.5-2,6.8-1.1,7,4.5c0,1.8,0.1,3.6,0.1,5.4
		c0,2.3,1.7,2,3.2,2c8.2,0,16.5-0.1,24.7-0.1c2.3,0,4.6,0.1,7,0.1c1,0,2,0,3,0.1c0.7,0,1.3,0,2,0.1c2,1.3,4.1,1.4,6.1-0.1
		c4-0.5,4.9,3.2,6.4,5.4c2.4,3.4,3.6,2.6,5.2-0.3c0.6-1,1.4-1.8,1.4-3.1c1.3,0,2.7,0,4,0.1c1.2,4.3-2.9,7.1-3,11.1c-1.7,0-3.3,0-5,0
		c-0.2-2-1.7-2.6-3-1.7c-1.6,1.2,0.1,2,1.1,2.7c-0.3,6.9-5.2,6.2-9.8,5.8c0.5-6.9,0.5-6.9-5.3-6.7c-4.3,0.2-8.7,0.4-13,0.7
		c-7.3-1.8-14.8-0.3-22.2-0.8c-3.8-0.3-5.2,1.4-4.7,5c-1,3.3-3.8,1.7-5.9,2c-1.3,0.2-2.3-0.6-2.2-2.1c0.3-5.7-3-5.1-6.8-4.2
		c-2.4,0.5-5,0.2-7.4,0.3c-2.8,0.1-5.7-0.3-8.4,0.3c-3.8,0.9-1.1,5.2-3,7.2c-0.2,0.2-0.3,0.6-0.5,0.9c-1.9,0.1-3.9,0.1-5.8,0.2
		c-1.5-0.9-3.4-1.3-3-3.8c0.7-3.7-1.7-3.9-4.5-3.9c-6.5,0.1-12.9,0.3-19.4-0.1c-4.1-0.3-6.7,1.1-7.8,4.9c-1.3,4.6-4.9,3-7.8,3.2
		c-3.1,0.2-3.3-2.7-3.4-4.5c-0.2-3.4-1.9-4.3-4.7-4.3c-1.5,0-3,0-4.5-0.1c-2.8-1.7-5.9-0.7-8.8-1.2c-9-1.5-9.6-1-11.2,8.1
		c-3.1,0.6-5.9-0.4-8.8-1.1c0-0.3,0-0.5-0.1-0.8c0.4-1.8,0.7-3.6,1.2-5.3c1-3.2-0.8-4.3-3.4-4.6c-10.2-1.3-19.2-5.8-27.9-11
		c-0.7-0.1-1.3-0.3-2-0.4c-1.8-3.7-1.5-7.7-1.1-11.6c2.3-1.4,4.8-1.6,7-0.1c7.4,4.9,15.9,7.3,24.3,10.2c5.3,1.8,6.5,1.3,8.2-3.8
		c0.6-1.8,1.7-3.5,2.6-5.3c0,0,0,0,0,0c5.6-1.3,8.7,1.3,7.4,7c-1.1,4.8,0.9,6,5,6.1c2.8,0,5.7,0,8.4,0.5c9.9,1.9,10.7,1.5,13.2-8.2
		c2.2-8.5,5.7-9.9,12.8-5.2c0,1.6,0.1,3.3,0.1,4.9c-0.4,2.2-0.5,4.6-1.2,6.7c-1.1,3.5,0.7,3.5,3.2,3.2c1.6,0,3.3,0,4.9-0.1
		c4.9,0.1,9.8,0.1,14.7,0.2c1.5,0,3,0.1,3.4-1.9c0.3-0.7,0.5-1.4,0.8-2.1C242.6,233.4,242.2,231,243.2,229.2z"/>
	<path class="st9" d="M455.9,606c-4.5-1.9-8.5-5.4-13.9-4c0-2-0.1-4,0-6c0.1-3.9,0.8-7.9-5-9c-1.9-0.4-4.4-2.7-3.8-5.7
		c0.7-3.1,3.2-3.5,5.8-3.3c2.1,0.1,2.8-0.8,3.1-2.9c1.1-10.1,2.3-20.3,3.6-30.4c0.2-1.5,0-2.5-1.2-3.4c-2.2-1.7-4.4-3.5-6.6-5.2
		c0.5-2.1-1.4-5,2-6.2c2.1,0.3,4.3-0.1,6.4,0.7c2,0.8,3.2-0.1,3.6-2.1c1.3-7.2,4.4-13.7,7-20.5c2.9-7.7,2.9-7.7-3.9-12.9
		c0-0.8-0.3-1.5-1.1-1.9c0.1-0.9,0-1.6-0.9-2.1c0.7-3.2,3.2-2.2,5.1-1.9c2,0.3,4,1.2,6,1.8c0.5,0.9,1.4,1.2,2,0.4
		c3.2-3.8,6.3-7.6,9.4-11.4c0.8-1,0.1-1.9-0.6-2.6c-5.2-4.7-8.3-11-12.7-16.3c-1.6-6.5-6.3-7.7-12-7c-1.1-0.8-1.7-2.2-3.3-2.3
		c-0.2-0.3-0.4-0.6-0.6-0.9c0-1-0.4-1.7-1.4-2c-0.2-0.3-0.4-0.6-0.6-0.8c0.2-0.2,0.3-0.4,0.3-0.7c1-0.8,1.5-1.7,1.6-3
		c1.2-0.5,2.4-1.1,3.6-1.6c2.2-0.8,2.7-2.1,1.5-4.2c-1.7-3.1-3.3-6.3-5-9.5c-0.7-1.7-1.4-3.4-2-5.1c-0.8-3.1,1.6-7.2-3.2-8.9
		c-1.8,0.2-2.3-2.1-4-2.1c-1.4-2.3-2.8-4.7,0.4-6.7c3.5-2.2,3-5.1,1.6-8.2c0-2,0-4,0.1-5.9c2.8-2.9,7.1-0.5,10-3
		c0.3,3.3,0.6,6.6,0.9,9.9c-4,4.1-2.5,9.7-3.8,14.5c-0.4,1.7,1.5,2.4,2.9,3c1.2,0.5,2.3,0.6,2.8-1c0.3-1,0.1-2.6,2-2
		c1.7,0.5,2.3,1.7,2.1,3.4c-1.2,0.8-1,1.9-0.9,3c-1.6,1.6-1.2,2.6,0.9,3.1c0.3,0.3,0.6,0.7,0.9,1c2.5,5.3,4.9,10.5,7.4,15.8
		c0.6,1.2,1.5,2.5,3,2c2.6-1,5.2,0.5,7.7,0.1c2.7,1.1,5.3,2.5,5,6.1c-0.2,2-1.4,3.3-3.3,3.9c-4.8,1.4-5,1.8-1.6,5.8
		c0.9,1.1,1.9,2.2,2.9,3.3c0.7,3.8,4.1,5.5,6.5,7.9c3.2,3.1,4.8,6.6,4.5,11c-4.3,2.5-5.3,7.5-8,11.2c-4,5.7-3.9,5.8,1.6,10.1
		c0.7,0.5,1.2,1.2,1.8,1.7c2.2,1.9,3.4,4.1,1.6,6.9c-1.9,2.9-4.5,3.7-7.7,2.7c-1.3-0.4-2.5-1-3.6-1.7c-2.4-1.4-3.6-0.6-4.5,1.8
		c-1.6,4.5-3.3,9-4.8,13.5c-2.8,8.2-2.3,9.4,5,13.5c2.4,1.4,3.9,3,3.5,5.9c-0.6,5.4-5.4,5.3-8.3,4.7c-4.9-0.9-5,1.3-4.8,4.7
		c0.1,1,0,2,0,3c-0.8,1.9-2.2,3.7-1.8,6c0,1.6-0.1,3.3-0.1,4.9c-1.7,3.5-1.6,7.3-0.3,10.6c1.1,2.7,4.6,0.9,6.8,1.8
		c0.9,0.4,1.9,0.5,2.9,0.7c2.2,0.5,3.4,1.9,3.6,4.2c0.2,2.1-0.2,4-2.1,5.2c-1.7,1.2-3.8,1.1-5.6,1.7c-2.3,0.7-6.3-0.7-6.2,3.8
		c-1.3,1.3-1.3,2.7,0,4C456,602.7,455.9,604.3,455.9,606z"/>
	<path class="st10" d="M652.7,519c0.2,0.2,0.3,0.4,0.4,0.7c-0.1,2.4,1.3,3.6,3.4,4.3c0.2,0.3,0.3,0.6,0.5,0.9
		c0.4,1.2,0.6,2.7,1.4,3.6c8.7,11.4,16.3,23.6,23.5,35.9c3.4,5.8,7.9,11,10.1,17.5c-1.3-0.2-2.7-0.8-3.9-0.6c-1.7,0.3-4-0.1-4.8,1.8
		c-0.7,1.8,1.2,2.4,2.4,3.3c0.9,0.6,1.5,1.6,1,2.6c-1.2,2.8-0.8,4.4,2.4,5.6c1.7,0.6,0.3,3.4-0.7,3.6c-6.9,1.6-4.4,6.9-4.1,10.8
		c0.2,2.3-0.1,3.3-2.1,4.3c-5.8,2.7-12.6,3.7-16.8,9.3c-0.4,0.6-1.4,0.9-2.2,1.1c-1.8,0.5-2.8-0.6-3.7-1.9c-1-1.5-0.2-2.4,1.1-3.2
		c1.4-0.8,2.3-2.6,4.1-2.6c4.4,0,6.9-5.9,12.1-3.7c0.6,0.2,1.6-1.4,2.1-2.5c1.1-2.7-0.1-5.8,0.5-8.1c1.3-6-4.6-4.5-6.3-7.2
		c-0.2-0.2-2.6,0.5-3.5,1.3c-1.2,1.1,0.2,1.9,0.9,2.8c1.2,1.7,2.5,3.7,0,5.1c-2.5,1.3-3.3,3.7-4.7,7.2c-1.2-5.3-1.8-9.6-7.9-8
		c-2.1,0.6-1.4-1.4-1-2.7c0.4-1.4,2.9-2.4,1.1-4.3c-1.4-1.5-2.8,0.4-4.2,0.2c-3.1-3.1-3-7.5-4.8-11.1c-1.5-3-3.1-5.5-7-4.9
		c-0.2-3.9-2.2-4.4-5.3-2.9c-1.3,0.6-4.1,1.2-3.2-0.6c1.6-3.4-0.3-5-2.2-7c7.6-1.2,7.7-1.2,13,2.6c1.7,1.2,3.3,2.7,4.9,4.2
		c0.6,0.5,1,1.4,2,1.2c1-0.3,1-1.3,0.9-2.1c-0.5-4,0.9-6.3,5.2-6.7c1.7-0.2,3.6-1.1,3.8-3.4c0.1-1.2-0.2-2.4-1.5-2.9
		c-2.2-0.9-3.8,0.8-4.7,2c-2.7,3.6-5.5,2.9-8.7,1.2c-1.3-0.7-2.7-1.2-4.2-1.5c-2.9-0.6-4.5-1.7-3.4-5.1c0.9-2.9-1.2-6.9-3.2-6.3
		c-3,1-5.7,3.2-9.3,3.3c-1.4,0-2,4.6-4.2,2.3c-1.4-1.5,2-2.9,3-4.4c0.3-0.4,0.7-0.8,1.1-1.1c2.5-1.9,2.2-3.6-0.1-5.6
		c-2-1.7-3.7-3.9-6.2-4.9c-1.3-0.5-1.8-1.6-1.3-2.9c0.7-2,1.8-0.6,2.7,0c1.1,0.7,1.9,0.4,2.6-0.5c0.5-0.8,0.1-1.6-0.2-2.3
		c-0.5-1-1.4-1.2-2.4-1.5c-5.8-1.6-7.3-4.1-5.9-9.3c0.3-1,0.1-2-0.9-2.6c1-4.4,5.6-7.9,9.6-7.2c2.3,0.4,3.9,0.1,4.4-2.5
		c0.5-2.5,3-4.4,4.4-2.4c2.5,3.7,3.2,0.1,4.8-0.3c2.4-0.7,1-4.4,3.8-4.5c0.7,0.7,1.4,1.4,2,2.1C646.3,511.7,648.2,516.5,652.7,519z
		 M682.1,575.7c-0.3-2.2,0.2-4.2-2.4-4.3c-5.3,0-10.6,0.1-16-0.2c-1.6-0.1-2.9,0-2.7,1.8c0.3,2.2-2.2,6.3-0.2,6
		c4.2-0.5,5.9,4.1,9.9,3.1c2.1-0.5,4,0.9,2.2,3.6c-0.6,0.9-2.8,1.6-0.9,2.9c1.2,0.8,3.3,0.7,4.1-0.7
		C678.4,583.8,680.3,579.5,682.1,575.7z M667.8,598.6c-1.1-1.3-2-3.2-4.1-3.5c-1.5-0.2-2.6,0.9-2.5,2.3c0.2,2,1.6,3.2,3.6,3.4
		C666.1,601,667.3,600.6,667.8,598.6z M674,563.5c-1.1,1.6-3.6,2.3-2.5,4.8c0.3,0.8,1.5,0.9,2.2,0.4
		C675.8,567.4,674.9,565.5,674,563.5z"/>
	<path class="st4" d="M345,250.2c0.1-3.9,4.2-6.8,3-11.1c1.7-0.1,3.4-0.1,5-0.2c3.3,0,6.6,0.1,9.9,0.1c4,0,8,1.8,12.1,0.9
		c0.6,0,1.3,0,1.9,0c2.3,0.5,3.3-0.5,3-2.8c0.4-3.2,1.4-6.2,2.9-9c0.8-1.5,2.1-3.3,4.3-2.8c1.8,0.4,2.6,1.9,2.9,3.7
		c0.3,2,1.1,4,0.9,5.9c-0.7,4.7,2,5.8,5.6,6.1c10.6,0.6,21.1,1.4,31.6,3.2c3.3,0.6,5.5-0.5,6.1-4c0.1-0.8,0.5-1.6,1-2.3
		c1.6-2.2,2.8-5.5,6.4-4.2c3.6,1.3,3.5,4.2,2.6,7.5c-1.1,4.1-0.2,6.8,4.8,7.7c5.9,1,11.6,2.9,17.3,4.7c2.2,0.7,3.3,0.3,4.5-1.5
		c1.9-2.9,4-5.7,6.3-8.3c1.4-1.6,3.3-3.1,5.7-1.5c2.1,1.4,2.1,3.3,1.5,5.7c-3.1,11.2-3,11.1,7.2,16.6c5.4,2.9,10,7,14.1,11.7
		c1.4,1.6,3.5,3,1.4,5.5c-2.2,2.6-4.6,1.7-6.6,0.1c-4.8-3.8-10.1-6.9-15.6-9.6c-7.9-4-7.9-4-13.8,3.1c-0.4,0.1-0.7,0.3-1.1,0.4
		c-2-0.2-4.1,0-5.7-1.5c-1.6-1.9-0.8-3.6,0.2-5.5c1.7-3.3,0.7-5.3-2.9-6.1c-6.3-1.5-12.5-2.9-18.7-4.6c-2.5-0.7-3.1,0.5-3.8,2.4
		c-0.9,2.6-1.3,5.6-4,7.2c-0.6-0.1-1.2-0.1-1.8-0.2c-4.2-1.2-4.6-3.9-3.4-7.6c0.6-1.8,1.3-4.4-1.9-4.5c-4.9-0.1-9.7-1-14.5-1.9
		c-6.3-1.2-12.9-1-19.3-1.5c-4.1-0.3-6.9,0.2-9.4,3.4c-1.8,2.3-4.8,2.6-5.5-0.2c-1.2-4.4-4-3.9-7.1-3.9c-6.7,0-13.3,0-20-0.1
		C349.5,251,347.1,251.8,345,250.2z"/>
	<path class="st2" d="M345,250.2c2.1,1.6,4.5,0.8,6.8,0.8c6.7,0.1,13.3,0.1,20,0.1c3.1,0,5.9-0.5,7.1,3.9c0.8,2.9,3.7,2.5,5.5,0.2
		c2.5-3.2,5.3-3.8,9.4-3.4c6.4,0.5,13,0.3,19.3,1.5c4.8,0.9,9.6,1.8,14.5,1.9c3.2,0.1,2.5,2.7,1.9,4.5c-1.2,3.7-0.8,6.4,3.4,7.6
		c-6.3,0.5-12.2-2.1-18.4-2.6c-10.9-1-21.7-2.6-32.6-3.6c-16.9-1.5-33.8-1.7-50.7-2.4c-13.6-0.6-27.3-1.1-40.8-0.3
		c-12.3,0.7-24.6,0.2-36.8,1.6c-1.6,0.2-3.3-0.2-4.9-0.3c0.1-0.3,0.2-0.7,0.5-0.9c2-2-0.7-6.3,3-7.2c2.7-0.6,5.6-0.3,8.4-0.3
		c2.5-0.1,5.1,0.2,7.4-0.3c3.9-0.8,7.1-1.5,6.8,4.2c-0.1,1.4,0.9,2.2,2.2,2.1c2.1-0.3,4.9,1.3,5.9-2c7.7,1.3,15.4,1,23.1,1
		c5.7,0,5.7,0,3.8-5.2c4.3-0.2,8.7-0.4,13-0.7c0.7,2.9-2.1,3.5-4,5.2c3.5,1.1,6.6,0,9.3,1.5c4.6,0.4,9.5,1.1,9.8-5.8
		c0.6-0.3,1.3-0.7,1.9-1C341.7,250.1,343.4,250.1,345,250.2z"/>
	<path class="st11" d="M451.9,493.1c0.8,0.4,1.1,1.1,1.1,1.9c-0.3,0.4-0.7,0.7-1,1.1c-3.3,4.3-11.7,6-7.3,14.3
		c0.1,0.2-0.5,0.8-0.7,1.2c-1.6,2.3-1,4,1.5,5.1c3.6,1.6,2.6,3.5,0.4,5.6c-2.4,2.2-5.5,3.8-5.9,7.5c-3.4,1.2-1.5,4.1-2,6.2
		c-1.8,2.1-1.6,5-2.6,7.4c-0.6,1.5-0.1,2.7,1.3,3.4c4,1.8,9.9,3.1,1.2,7.1c-1.8,0.9,0.3,4.4-2.4,4.9c-2.6,0.5-2.3,2.3-2.5,4.1
		c-0.9,9.5-2,19-2.8,28.5c-0.4,4.8-0.2,9.7-0.2,14.6c0,2.3,0,4.7,0,7c-1.1,1.8-1.3,3.9-0.8,5.7c1.2,5,0.7,10.1,0.9,15.2
		c0.1,5.1,0.4,10.2,0.8,15.3c1.4,16.8,4.2,33.4,8.2,49.8c4.3,17.6,10.4,34.5,20.2,50c0.3,1.3,0.6,2.5,0.9,3.8
		c-4.9-4.3-7.1-10.3-9.7-15.8c-9-19-14.4-39.2-18-59.9c-4.1-23.8-5.5-47.9-4.8-72c0.9-30.1,3.9-60,11-89.3
		c3.6-14.7,8.2-29.1,13-43.4c1.6-4.8,0.9-8.5-1.3-12.5c0.9,0,1.8,0,2.6,0c1.2,2.9,1.9,5.8,2.3,8.9c0.4,3,1,6.9,4.1,8.5
		c3.6,1.9,4.3,3.9,2.9,7.5c-0.6,1.8-0.2,3.9-0.3,5.9c-2-0.6-4-1.4-6-1.8c-1.9-0.3-4.4-1.3-5.1,1.9
		C449.5,492.5,450.7,492.8,451.9,493.1z"/>
	<path class="st12" d="M641,506c-2.9,0.1-1.4,3.9-3.8,4.5c-1.6,0.4-2.3,4-4.8,0.3c-1.4-2.1-3.8-0.1-4.4,2.4
		c-0.5,2.6-2.2,2.9-4.4,2.5c-4-0.7-8.6,2.9-9.6,7.2c-1.3-0.1-3,0.5-3.6-0.9c-1.9-4-5.9-5.4-9.2-7.7c-2-1.4-2.8-1-4.4,0.7
		c-3.2,3.8-8.3,2.5-9.3-2.3c-0.5-2.5-2.1-4.4-2.5-6.8c3.8,0.1,7.5-0.3,11-2c0.8,0,1.6-0.2,2-1c9.5-2.1,17.5-7.1,25-13
		c2-0.3,4-0.7,6-1c0,1.3-0.3,2.7,1.5,3.1c0.3,0.2,0.4,0.5,0.5,0.8c-0.1,1.5,0.6,2.5,1.9,3.1c-1,2.9-1,6.3,0.9,8.3
		c1.5,1.6,4.2-0.6,6.2-1.4c0.3,0.3,0.6,0.7,0.9,1C641,504.6,641,505.3,641,506z"/>
	<path class="st11" d="M652,461c-0.7-1.9-4.4-3.8,0.7-5.4c2.5-0.8,1-2.8-0.7-3.4c-2.7-0.9-5.5-1.4-8.3-2.2c-2.4-0.7-6.9-0.1-3.1-4.9
		c0.7-0.8,0.2-2-0.8-2.6c-1.4-0.8-2.2,0.1-2.7,1.3c-1.1,2.9-2.2,5.8-3.2,8.8c-0.3,0.9-0.1,2.2-1.6,1.7c-0.9-0.3-1.4-1.2-0.9-2
		c2.2-3.9,1.9-8.8,5.2-12.1c1.6-1.6,1.7-3.2-0.3-3.9c-2.2-0.8-3.6-2.3-5.2-3.6c-1-0.8-2.1-0.9-3.2,0c-0.7,0.6-0.8,1.4-0.4,2.2
		c0.7,1.5,4.1,3,0.8,4.6c-2.9,1.4-3.8-1.7-5-3.6c-0.2-0.3-0.3-0.6-0.4-0.9c1.2-0.1,2.2-0.3,2.5-1.9c1.5-8.8,6.9-13,15.4-11.9
		c1.9,0.3,3.8,0.9,5.8,0.8c1.4,0,2.3,0.4,1.8,2.1c-0.3,1-0.6,2,0.6,2.6c1.3,0.6,2.2-0.3,3-1.2c0.8-1,1.5-2.1,2.3-3.2
		c3.8-5.6,4.7-5.9,10.7-3.2c0.1,0.7,0.2,1.5,0.3,2.2c0,0.6,0,1.2-0.1,1.7c-1,0.4-2,1-1.9,2c0.4,4.1-2.1,7.8-1.3,11.9
		c-1.2,0.2-1.9,0.8-1.8,2.1C659.9,447.3,656.1,454.2,652,461z M635.6,430.8c-0.3-0.1-0.6-0.2-0.8-0.4c-0.1,0.3-0.4,0.6-0.3,0.8
		c0.1,0.2,0.5,0.3,0.8,0.4C635.3,431.3,635.5,431,635.6,430.8z"/>
	<path class="st1" d="M869.1,220c0.7,0.1,1.3,0.2,2,0.3c-3.8,3.1-8.7,2.7-13,3.3c-18.8,2.8-37.8,4.3-56.7,6.6
		c-14.4,1.8-28.9,3.1-43.1,6.4c-1.1,0.3-2.3,0.2-3.5,0.2c-0.1-9,6.2-9.4,12.9-9.9c5.3-0.4,10.5-1.6,15.7-2.5
		c2.5-0.5,4.7-0.7,4.6,2.9c-0.1,3.2,2.3,2.6,4.2,2.6c2.2,0,4.8,0.1,4.7-3c-0.1-3.7,1.6-4.6,5-5.2c8.6-1.6,17.4-1.8,26.1-3.2
		c2.1-0.3,2.9,0.6,2.9,2.4c-0.1,2.7,0.5,4.4,3.8,4.2c3.5-0.2,5.3-1.5,5.3-5.1c2.6-0.7,5.2-0.8,7.8-1.1c5.5-0.6,11.4,0.4,15.9-4
		c0.9-0.9,1.8-0.7,2.6,0.1c0.7,0.7,1.4,1.3,0.7,2.5C865.2,220.5,867.5,220,869.1,220z"/>
	<path class="st6" d="M692,582c-2.2-6.5-6.7-11.7-10.1-17.5c-7.3-12.3-14.8-24.5-23.5-35.9c-0.8-1-0.9-2.4-1.4-3.6
		c4,2.2,6,6.2,8.2,9.8c12,18.7,25,37,34,57.5c10.6,24.2,18.2,49.1,20.7,75.6c3.3,34.9-5.8,66.5-24.2,95.8c-3.9,6.1-8,12.2-13.4,17.3
		c-3.1,2.9-3.5,5.2,0.7,8.2c12.9,9.4,25.4,19.2,36.8,30.5c1.3,1.3,2.9,2.3,3.4,4.2c-1.3,0.2-2.2-0.4-3.1-1.3
		c-12-11.9-25.5-22.1-38.7-32.6c-5.5-4.3-5.6-4.9-0.9-9.9c10.1-10.8,17.9-23.1,24-36.4c5.8-12.6,10.8-25.6,11.5-39.7
		c0.3-0.6,0.8-1.1,0.9-1.7c1.7-12,1.6-24.2,1-36.3c-0.3-1.1-0.8-2.2-0.9-3.3c-0.9-14.7-4.7-28.7-9.1-42.7c0-0.8-0.2-1.6-1-2
		c-2.7-9.7-6.4-19-11-28c0-0.8-0.2-1.6-1-2C694.5,585.7,693.6,583.7,692,582z"/>
	<path class="st6" d="M437.1,392.1c0,2,0,4-0.1,5.9c-1.7-0.2-3,0.5-4.3,1.7c-2.6,2.4-5.5,3.3-8.8,1.3c0,0-0.2,0.1-0.2,0.1
		c0.4-1.2,0.6-2.3-0.7-3.2c-0.1-0.6-0.1-1.3-0.2-1.9c0.1-0.7,0.2-1.4,0.3-2c1.8-0.3,2.7,0.5,3,2.4c0.3,1.9,1.7,1.3,2.6,0.6
		c1.3-1,4-0.3,4-2.9c0-1.3-1.2-1.9-2.4-2.1c-2.4-0.5-4.8-1.4-7.3-1.1c-0.1-1.1,0.2-2.3-1.1-3c-0.1-1.9-0.1-3.9-0.2-5.8
		c0-1.8-0.1-3.6-0.1-5.4c0-0.3,0-0.6,0.2-0.8c0.9-0.1,2.1,0.3,2.5-0.7c0.5-1.1-0.7-1.1-1.4-1.3c0-0.8-0.2-1.6-1-2c0-0.7,0-1.3,0-2
		c1.2-0.7,1-1.9,1.1-2.9c2.3-0.7,4.1-2.4,7-0.5c1.5,1,4.5,2,6.8,0.4c1.9,2.1,1.3,4.8,0.8,7C436.6,380.1,437.1,386.1,437.1,392.1z"/>
	<path class="st1" d="M749.2,237c0.3,0,0.6,0.1,0.9,0.3c-1.1,2.8-3.8,1.5-5.7,1.9c-10,2.2-20,4.6-30,6.8c-10.5,2.3-21,4.5-31.3,7.5
		c-14.8,4.3-29.8,7.6-44.1,13.5c0-0.3,0-0.6,0-0.9c0-5.6,4.1-7.2,8.2-9.2c5.4-2.6,10.9-4.7,16.4-7c1.8-0.7,3.1-0.9,4.1,1.2
		c2.3,5.1,4.6,5.3,9.4,1.1c1.8-0.1,3.6-0.2,5.4-0.6c9.9-2.3,19.5-5.8,29.6-7.4c2.6,0.2,5.2,0.2,7.1-2
		C729.3,240.8,739,237.4,749.2,237z"/>
	<path class="st3" d="M188.1,251.1c1.5,0,3,0,4.5,0.1c2.8,0.1,4.6,1,4.7,4.3c0.1,1.8,0.2,4.7,3.4,4.5c2.9-0.2,6.5,1.4,7.8-3.2
		c1.1-3.8,3.7-5.1,7.8-4.9c6.4,0.4,12.9,0.2,19.4,0.1c2.8-0.1,5.1,0.2,4.5,3.9c-0.4,2.5,1.4,3,3,3.8c-4.1,0.4-8.3,0.9-12.4,1.1
		c-8.9,0.4-17.9,0.6-26.8,0.6c-7.4,0-15.1,0.7-22.5-1.7c2.4-0.5,4.2-2.1,6.3-3c0.6-0.2,1.7,2.1,2.8,0.7c1.2-1.5-0.8-2.2-1.5-3.1
		C188.1,253.3,188.1,252.3,188.1,251.1z"/>
	<path class="st3" d="M168,224.1c-0.9,1.8-1.9,3.4-2.6,5.3c-1.7,5.1-3,5.6-8.2,3.8c-8.3-2.8-16.8-5.2-24.3-10.2
		c-2.3-1.5-4.7-1.3-7,0.1c-1-1.1-0.9-2.1,0.4-2.9c6.2-2.3,11.2,0.8,15.9,4.1c2.1,1.5,3.1,0.2,4.1-1c1.5-2.2,2.6-4.5,6.1-3.4
		c1.8,0.6,1.3-1.8,1.8-2.9c0.6-1.3,0.8-3,2.5-3.4c0.8-0.2,1,0.6,1.3,1.2c0.7,1.6,1.1,3.1-0.6,4.4c-0.6,0.5-1.2,1.1-1,2.1
		c0.3,0.1,0.8,0.4,0.8,0.4c3.7-4.5,6.4-4.6,8.1,1.6C165.7,224.3,167.1,224,168,224.1z"/>
	<path class="st5" d="M437,367c-2.4,1.6-5.4,0.6-6.8-0.4c-2.9-1.9-4.7-0.2-7,0.5c-0.1-1.1-0.2-2.2-0.3-3.3c0-0.6,0.1-1.2,0.1-1.8
		c1.3-0.8,1.1-2,0.9-3.2c0-0.6,0.1-1.2,0.1-1.8c3.3-4.8,2.4-11,5.1-16c2.8,0.4,1.8,2.7,2,4.3c0.1,0.9-0.2,2.1,1.2,2.3
		c1.7,0.2,6.4-6,5.6-7.6c-1.1-2.2-0.4-3.7,1.5-4.4c2.1-0.7,2.4,1.1,2.6,2.6c0.2,1.9,1.6,1.8,2.9,1.9c-1.4,4.3-2.7,8.6-4.1,12.9
		c-0.8,0.5-1.6,1.1-2.4,1.6c-7.6,3.9-7.6,3.9-2.6,10.2c0.2,0.2,0.6,0.3,0.9,0.4C436.8,365.8,436.9,366.4,437,367z"/>
	<path class="st2" d="M434.8,267.4c2.7-1.6,3.1-4.6,4-7.2c0.7-2,1.3-3.1,3.8-2.4c6.2,1.7,12.5,3.1,18.7,4.6c3.6,0.8,4.6,2.8,2.9,6.1
		c-1,1.8-1.7,3.6-0.2,5.5c-7.1-0.3-13.8-2.8-20.6-4.4C440.6,268.8,437.1,270.4,434.8,267.4z"/>
	<path class="st5" d="M129.1,235.2c8.7,5.2,17.6,9.7,27.9,11c2.6,0.3,4.4,1.4,3.4,4.6c-0.5,1.7-0.8,3.5-1.2,5.3
		c-8.1-1.4-15.5-5.2-23.1-8c-2.1-1.2-3.7-2.9-5-4.8C131.7,240.3,128.1,238.2,129.1,235.2z"/>
	<path class="st11" d="M474,809.8c-4.2,10.1-8.8,20-12.5,30.3c-6.5,17.9-11.7,36.2-13.6,55.3c-0.5,4.6-0.8,9.1-0.2,13.8
		c0.7,6.2,3.9,10.7,7.4,15.3c-4-0.6-5.5-3.9-7-7c-4-8.7-3.1-17.9-1.7-26.9c4.4-26.9,12.1-52.7,24.5-77
		C471.8,812.2,472,810.3,474,809.8z"/>
	<path class="st1" d="M877.8,218.8c0.1-0.3,0.3-0.6,0.3-0.9c-0.1-12.8,11.3-11,18.6-14.5c1.9-0.9,3,1,2.9,2.4c-0.3,6,2.5,5.1,6.1,3
		c0.7-0.4,1.6-0.4,2.4-0.6c-0.1,1.2-0.8,1.8-1.8,2.2C897,214,887.7,217.3,877.8,218.8z"/>
	<path class="st11" d="M478,918.9c5.2-8.8,10.1-17.7,14.5-26.9c7.8-16.5,16.6-32.4,25.5-48.2c0.6-1.1,0.9-2.6,2.4-3
		c-1.5,7.1-6.1,12.8-9.4,19c-7.4,13.7-14.2,27.8-21.2,41.7c-2.4,4.7-5.2,9.2-7.9,13.8C481,916.9,480.1,918.6,478,918.9z"/>
	<path class="st11" d="M188.1,251.1c0,1.2,0.1,2.2,0.8,3.3c0.7,1,2.7,1.7,1.5,3.1c-1.1,1.3-2.2-1-2.8-0.7c-2.1,0.9-3.9,2.5-6.3,3
		c-1.4-0.1-2.7-0.1-4.1-0.2c-2.4-3-5.5-1.1-8.3-1.4l-0.4,0c0,0-0.3-0.2-0.3-0.2c1.6-9.1,2.3-9.6,11.2-8.1
		C182.2,250.4,185.3,249.4,188.1,251.1z"/>
	<path class="st6" d="M442.2,423.9c0.7,1.7,1.4,3.4,2,5.1c-4.3,0.7-3.9,3.9-2.6,6.4c1.5,2.9,1.8,5.9,2.5,8.9c-0.1,1.2-0.6,2.2-1.6,3
		c-0.7-0.4-1.4-0.9-2.1-1.3c-0.1-0.3-0.3-0.5-0.4-0.8c-0.2-1.8-0.6-3.5-2.7-4.1c-0.8-1.9-1.6-3.8-2.4-5.7c0.3-1.2-0.2-2-1.4-2.3
		c-0.2-0.6-0.3-1.2-0.5-1.7c-0.4-2.7-0.7-5.3-1.1-8C435.4,422.5,438.8,422.6,442.2,423.9z"/>
	<path class="st10" d="M629,489c-2,0.3-4,0.7-6,1c-0.3-2.8,0.2-5.3,2.6-7.1c1.7-1.3,2.5-2.9,2.5-5.2c0-3.3,1.9-5.3,5.1-5.6
		c3.5-0.4,3.2,2.7,3.7,4.8c0.4,1.5,0.2,3,2.3,3.2c-1.5,3.4-4.4,5.6-7.2,7.9C631,488.3,630,488.7,629,489z M629.6,484.7
		c-0.3-0.1-0.6-0.4-0.8-0.3c-0.2,0.1-0.3,0.5-0.4,0.8c0.3,0.1,0.6,0.4,0.8,0.3C629.4,485.5,629.5,485,629.6,484.7z"/>
	<path class="st13" d="M423.9,401.1c3.3,2,6.2,1.1,8.8-1.3c1.3-1.2,2.6-1.9,4.3-1.7c1.4,3.1,1.9,6-1.6,8.2c-3.2,2-1.8,4.4-0.4,6.7
		c-1,5.8-5.2,0.9-7.5,2.3c-1.6-1.8-1.6-4-1.8-6.2c0.7-0.2,1.9,0,1.8-1.1c-0.1-1.3-1.4-0.9-2.3-1
		C424.4,405.1,423.6,403.2,423.9,401.1z"/>
	<path class="st11" d="M486.1,780.9c1.1,1.3,2.1,2.5,3.2,3.8c-0.1,0.8-0.2,1.5-0.3,2.3c-4.1,4.7-6.7,10.4-10.2,15.4
		c-0.7,1-1,2.5-2.7,2.6c2-6,5.9-11,9.3-16.2c1.8-2.7,1.4-4.2-0.7-6.3c-6.1-5.8-12.1-11.7-17.4-18.3c-1.6-2-3.9-3.7-3.9-6.6
		c0.5,0.1,1,0.1,1.5,0.2C470.9,766.5,478,774.2,486.1,780.9z"/>
	<path class="st1" d="M203.1,170.3c-3.8,3-7.4,6.1-8.4,11.2c-0.2,0.8-1,1.4-1.9,1.1c-0.9-0.2-1.4-0.9-1.5-1.8
		c-0.2-1.5,0-3.1-0.7-4.4c-0.9-1.8-3.1-3.7-4.6-1.4c-2.8,4.4-5.7,2.3-8.8,1C185.3,172.2,194.1,170.9,203.1,170.3z"/>
	<path class="st2" d="M665.2,397.1c-2.1-3.3-2.7-7.2-2.9-10.7c-0.5-7.6-4-14.2-5.9-21.3c-0.3-1.3-1.1-2.4-2.4-3
		c0.2-5.3-4.4-8.9-5-14c1.1,0.2,1.7,0.9,2.2,1.8c7.2,13.4,11.8,27.6,14.5,42.5C666,393.9,666.4,395.6,665.2,397.1z"/>
	<path class="st2" d="M661.9,436.9c-0.7-4.1,1.8-7.8,1.3-11.9c-0.1-1,0.9-1.7,1.9-2c1.8,2.8,0.2,5.5-0.3,8.1
		c-2,11.2-6.1,21.6-11.5,31.6c-0.5,1-1,2.1-2.4,2.2c-0.3-0.3-0.6-0.6-0.9-1c1.2-0.6,1.9-1.6,2-3c4.1-6.8,7.9-13.7,8-22
		C661.3,439,662,438.3,661.9,436.9z"/>
	<path class="st2" d="M617.1,276.1c-0.4-3,1.7-4.5,3.8-5.9c2.1-1.3,4.4-2.4,6.5-3.7c3.1-2,4.9-1.3,5.7,2.2
		C628,271.7,622.7,274.4,617.1,276.1z"/>
	<path class="st13" d="M442.2,423.9c-3.4-1.2-6.8-1.3-10.4-0.7c-1-0.5-2.1-0.9-3.1-1.4c-0.1-0.9-0.2-1.8-0.3-2.6
		c4-0.2,8.4,0.7,10.6-4.1C443.8,416.6,441.4,420.8,442.2,423.9z"/>
	<path class="st11" d="M650,464c0.3,0.3,0.6,0.6,0.9,1c-0.1,0.3-0.2,0.6-0.4,0.9c-1.1,0.2-1.6,1-1.6,2.1c-0.1,0.3-0.2,0.6-0.3,1
		c-1.2,0.2-1.7,1-1.6,2.1c0,0,0,0,0,0c-1,0.7-2,1.3-3,2c-0.7-0.9-1.5-1.8-2.1-2.7c-1.7-2.4-0.9-4.7,0.5-6.9c1.5-2.3,3.1-0.3,4.7,0.1
		C648.1,463.8,649.1,463.9,650,464z"/>
	<path class="st1" d="M462.1,295.3c-6.6,6.6-12.1,14.3-19.8,19.8C446.8,306.4,453.7,300.1,462.1,295.3z"/>
	<path class="st10" d="M453,460c-0.9,0-1.8,0-2.6,0c-0.2-0.2-0.4-0.5-0.3-0.8c0.4-2.1-2.2-3.1-1.9-5.2c5.8-0.7,10.5,0.5,12,7
		C457.7,460.7,455.3,460.4,453,460z"/>
	<path class="st11" d="M749.3,849.1c-6-5.1-11.9-10.4-16.3-17.1C740.4,835.8,745.2,842.1,749.3,849.1z"/>
	<path class="st1" d="M469.8,275.4c0.4-0.1,0.7-0.3,1.1-0.4c4.1,1.2,8.2,2.3,12.2,3.7c1.4,0.5,3.6,0.9,3.7,2.8c0,2-2.1,2.1-3.6,2.7
		c-0.4,0.2-0.8,0.6-1.1,0.9c-1.4,0.3-2.8,0.6-4.2,0.9c5.1-5.6,5.1-5.5-2.8-8.2C473.2,277.2,470.8,277.7,469.8,275.4z"/>
	<path class="st1" d="M429,341.1c-2.7,5-1.8,11.2-5.1,16c-0.7-6.4,2.1-12.1,4.2-17.8c1.1-2.9,1.3-6.6,4.8-8.2
		C433.1,334.9,430.3,337.7,429,341.1z"/>
	<path class="st3" d="M136,248.1c7.7,2.8,15,6.6,23.1,8c0.1,0.3,0.1,0.5,0.1,0.8C150.6,256.2,142.5,254.2,136,248.1z"/>
	<path class="st2" d="M665.2,421.3c-0.1-0.7-0.2-1.5-0.3-2.2c0.1-6.8,0.2-13.5,0.3-20.3c1.2,0.6,1.6,1.6,1.6,2.8
		c0,5.6,0,11.3,0,16.9C666.8,419.7,666.4,420.7,665.2,421.3z"/>
	<path class="st10" d="M640.1,503c-2.1,0.8-4.8,3-6.2,1.4c-1.8-2-1.8-5.4-0.9-8.3c0.4,0,0.8,0,1.2,0c0.9,1,1.9,2,2.8,3
		c0,1.2,0.5,1.9,1.8,2C639.2,501.7,639.6,502.3,640.1,503z"/>
	<path class="st6" d="M641,506c0-0.7,0-1.4,0-2.1c5,4.1,8.9,9.2,11.7,15.1c-4.5-2.5-6.5-7.3-9.7-10.9
		C642.4,507.4,641.7,506.7,641,506z"/>
	<path class="st6" d="M439,415c-2.2,4.8-6.6,3.9-10.6,4.1c-0.3-1.3-0.6-2.5-1-3.8c2.3-1.4,6.6,3.5,7.5-2.3
		C436.7,412.9,437.3,415.2,439,415z"/>
	<path class="st11" d="M456.1,924.9c5,0.8,10,0.7,15,0C466.8,928.8,460.4,928.7,456.1,924.9z"/>
	<path class="st11" d="M744.9,898.2c0.5-0.4,1-1.1,1.5-1.1c4,0.1,7.9-0.2,11.5-2.3C755,899.4,749.8,900.8,744.9,898.2z"/>
	<path class="st11" d="M762.2,887.2c0.1-5.8,1.6-11.7-0.2-17.5C766.5,875.5,764.9,881.4,762.2,887.2z"/>
	<path class="st1" d="M173.1,177.4c-3.5,2.4-5,8.8-11.3,5.6C164.9,179.8,169,178.6,173.1,177.4z"/>
	<path class="st11" d="M593,819.9c3.6-1.5,7.3-1.3,11-0.9C600.5,821.3,596.8,821.2,593,819.9z"/>
	<path class="st11" d="M733.1,892.8c3.7,0.8,6.9,2.7,9.8,5C738.6,898.3,735.6,896,733.1,892.8z"/>
	<path class="st1" d="M428.8,421.7c1,0.5,2.1,0.9,3.1,1.4c0.4,2.7,0.7,5.3,1.1,8C430.3,428.5,428.7,425.5,428.8,421.7z"/>
	<path class="st11" d="M573.8,819.1c3.4,0,7-1.2,10.2,0.8C580.5,821,577,821.6,573.8,819.1z"/>
	<path class="st3" d="M129.1,235.2c-0.9,3.1,2.6,5.1,1.9,8.1c-3.5-1.8-4.2-4.9-3.9-8.5C127.7,234.9,128.4,235,129.1,235.2z"/>
	<path class="st11" d="M448,454c-0.2,2.1,2.3,3.1,1.9,5.2c-3.1-1.6-5.4-3.6-5.2-7.4C446.4,451.8,447,453.2,448,454z"/>
	<path class="st11" d="M721.2,883.8c3.6,0.7,6.2,2.7,7.9,5.9C725.9,888.5,723,886.9,721.2,883.8z"/>
	<path class="st11" d="M676.1,847.9c2.9,1.3,5.7,2.7,6.9,6C679.5,853.2,677.3,851.1,676.1,847.9z"/>
	<path class="st1" d="M471.1,289.3c-1.9,3-4.8,4.7-8.1,5.7C464.5,291.5,467.6,290.1,471.1,289.3z"/>
	<path class="st1" d="M438,321.9c-0.9,3.1-1.5,6.4-4.8,8.1C433.3,326.5,435,323.9,438,321.9z"/>
	<path class="st11" d="M613,817.9c2.9-1.6,6.1-1.6,9.2-1.8C619.5,818.4,616.4,819.1,613,817.9z"/>
	<path class="st11" d="M631.9,814c3.2-1.6,6.3-2.8,8.2,1.9C637.3,815.2,634.6,814.6,631.9,814z"/>
	<path class="st11" d="M536.8,813.2c3-2.5,5.6-1.4,8.2,0.7C542.1,815.1,539.6,813,536.8,813.2z"/>
	<path class="st11" d="M761.4,868c-2.8-1.9-3.7-4.9-4.5-8C760,861.8,760.9,864.8,761.4,868z"/>
	<path class="st11" d="M649.1,823.9c3.3,0.1,5.1,2,5.9,5C652.3,828.1,649.9,827,649.1,823.9z"/>
	<path class="st3" d="M168.8,258.2c2.8,0.3,6-1.6,8.3,1.4C174.3,259.7,171.2,261.1,168.8,258.2z"/>
	<path class="st2" d="M648.7,347.1c-2.8-1.6-4.1-4.1-4.7-7.1C646.4,341.8,648.9,343.6,648.7,347.1z"/>
	<path class="st11" d="M641.1,816.9c2.9,0.8,4.6,2.9,6,5.4C643.9,821.9,642.3,819.6,641.1,816.9z"/>
	<path class="st1" d="M422,388.1c1.2,0.7,1,1.9,1.1,3c0,1,0.1,2.1,0.1,3.1c-0.1,0.7-0.2,1.4-0.3,2
		C419.9,393.7,420.9,390.9,422,388.1z"/>
	<path class="st11" d="M659.2,832.8c3.2,0.2,4.9,2.1,5.8,5C662.4,836.9,660.1,835.8,659.2,832.8z"/>
	<path class="st2" d="M643.8,339.1c-3-0.9-4-3.4-4.7-6.1C642,333.9,643.4,336.1,643.8,339.1z"/>
	<path class="st1" d="M212.1,169.3c-1.9,3.1-4.4,2.1-7,0.9C207.2,168.3,209.7,169.4,212.1,169.3z"/>
	<path class="st11" d="M550.8,815.1c2.6-0.2,5,0.5,7.2,1.7C555.2,817.9,552.9,817,550.8,815.1z"/>
	<path class="st11" d="M685.1,855.8c2.7,0.1,4.4,1.3,4.8,4.1C687.8,859.2,685.5,858.6,685.1,855.8z"/>
	<path class="st11" d="M668.2,840.8c2.5,0.6,3.9,2.3,4.9,4.5C670.3,845.1,669,843.3,668.2,840.8z"/>
	<path class="st1" d="M422.9,363.9c0.1,1.1,0.2,2.2,0.3,3.3c-0.1,1.1,0.1,2.3-1.1,2.9C420.8,367.8,420.2,365.6,422.9,363.9z"/>
	<path class="st11" d="M471.9,924.5c0.9-2.1,2.7-3,4.7-3.7C476.3,923.6,474.6,924.7,471.9,924.5z"/>
	<path class="st11" d="M758.9,893.8c-0.3-2.4,1.6-3.4,2.9-4.9C762.6,891.6,761.4,893.1,758.9,893.8z"/>
	<path class="st11" d="M640,478c-0.4-3,0.8-4.4,3.9-4c0,0.4,0.1,0.7,0.1,1.1c-0.1,0.3-0.2,0.6-0.4,0.9
		C642.4,476.6,641.2,477.3,640,478z"/>
	<path class="st11" d="M521.1,839.1c0.1-2.4,1.4-3.9,3.2-5.3C524.7,836.4,523.3,838,521.1,839.1z"/>
	<path class="st11" d="M624,815.8c1.8-1.1,3.7-1.8,5.8-1.3C628.1,815.9,626.4,817.1,624,815.8z"/>
	<path class="st2" d="M640,478c1.2-0.7,2.4-1.4,3.6-2.1c0,2.5-1.4,3.6-3.7,4C640,479.3,640,478.7,640,478z"/>
	<path class="st1" d="M421.8,376.8c0,1.8,0.1,3.6,0.1,5.4C419.4,380.5,419.5,378.7,421.8,376.8z"/>
	<path class="st11" d="M707.1,873.9c2.1-0.1,3.7,0.6,4,3C709,876.8,707.4,876.2,707.1,873.9z"/>
	<path class="st6" d="M656.5,524c-2.1-0.6-3.5-1.9-3.4-4.3C654.8,520.7,656.5,521.7,656.5,524z"/>
	<path class="st11" d="M752.8,854c-1.7-0.8-3.1-1.7-3-3.8C752.2,850.4,752.8,851.9,752.8,854z"/>
	<path class="st1" d="M441,317.1c0.1,2.1-0.4,3.7-2.8,4C438.4,319.2,438.8,317.5,441,317.1z"/>
	<path class="st6" d="M629,489c1-0.3,2-0.7,3-1c-0.5,1.4-1,2.7-1.4,4.1C628.8,491.7,629,490.3,629,489z"/>
	<path class="st1" d="M592,247.1c-0.5,2.8-2.8,2.9-4.9,3C588.1,248.1,590,247.5,592,247.1z"/>
	<path class="st11" d="M524.9,832.7c0-1.8,0.5-3.2,2.3-3.9C527.7,830.8,527,832.2,524.9,832.7z"/>
	<path class="st11" d="M693.1,862.8c1.7-0.1,2.9,0.5,3,2.4C694.1,865.7,693.4,864.6,693.1,862.8z"/>
	<path class="st11" d="M527.9,827.7c0.3-1.6,0.8-3.1,2.4-3.9C530.5,825.7,530.2,827.3,527.9,827.7z"/>
	<path class="st11" d="M534,817.8c0.2-1.7,0.7-3.2,2.4-4.1C536.7,815.8,535.9,817.2,534,817.8z"/>
	<path class="st2" d="M644,475.1c0-0.4-0.1-0.7-0.1-1.1c0.1-0.3,0.1-0.6,0.1-1c1-0.7,2-1.3,3-2C647,473.1,646.3,474.7,644,475.1z"/>
	<path class="st11" d="M530.9,822.8c0.3-1.7,0.7-3.3,2.6-4C533.6,820.7,533.1,822.3,530.9,822.8z"/>
	<path class="st11" d="M559.8,817.1c1.5-0.2,3.1-0.6,4.2,0.9C562.3,819.1,560.9,818.9,559.8,817.1z"/>
	<path class="st1" d="M437.3,440.9c2.1,0.6,2.5,2.3,2.7,4.1C437.8,444.5,437.3,442.9,437.3,440.9z"/>
	<path class="st1" d="M476.1,286.3c0,0.6-0.1,1.2-0.1,1.7c-0.8,0-1.6,0.2-2,1c-0.7,0-1.4,0-2.1,0
		C472.5,286.9,474.1,286.3,476.1,286.3z"/>
	<path class="st6" d="M634.2,496c-0.4,0-0.8,0-1.2,0c-1.3-0.6-2.1-1.6-1.9-3.1C632.8,493.3,633.8,494.3,634.2,496z"/>
	<path class="st11" d="M698.1,866.9c1.6,0,2.6,0.9,3.1,2.4C699.1,869.7,698.4,868.5,698.1,866.9z"/>
	<path class="st3" d="M132.9,205c0.7,0.2,1.9,0.1,1.6,1.2c-0.4,1.4-1.8,0.7-2.8,0.8C132.1,206.3,132.5,205.7,132.9,205z"/>
	<path class="st11" d="M754.9,857c-1.8-0.2-2-1.5-2-2.9C754.8,854.2,754.9,855.5,754.9,857z"/>
	<path class="st11" d="M703.1,870.9c1.4,0,2.8,0.1,2.9,2.1C704.6,872.8,703.3,872.6,703.1,870.9z"/>
	<path class="st11" d="M714.1,878.8c1.4,0,2.7,0.2,2.9,2C715.5,880.9,714.3,880.7,714.1,878.8z"/>
	<path class="st11" d="M717.1,880.9c1.5,0,2.8,0.1,2.9,2.1C718.6,882.9,717.3,882.5,717.1,880.9z"/>
	<path class="st6" d="M425.2,407c0.9,0.1,2.1-0.3,2.3,1c0.1,1.1-1,0.9-1.8,1.1C425,408.5,424.9,407.8,425.2,407z"/>
	<path class="st11" d="M607,818.8c0.9-1.1,2.1-0.9,3.3-0.6C609.4,819.5,608.4,820.1,607,818.8z"/>
	<path class="st11" d="M565.7,818.2c1.2-0.3,2.3-0.5,3.3,0.6C567.6,820.1,566.6,819.5,565.7,818.2z"/>
	<path class="st1" d="M423.8,358.8c0.2,1.2,0.4,2.4-0.9,3.2C421.6,360.5,422.2,359.5,423.8,358.8z"/>
	<path class="st1" d="M423,398.1c1.2,0.8,1,2,0.7,3.2C422.1,400.5,421.6,399.5,423,398.1z"/>
	<path class="st1" d="M422,372.1c0.9,0.4,1,1.2,1,2c-0.4,0.4-0.9,0.7-1.3,1.1C420.9,374,420.7,373,422,372.1z"/>
	<path class="st5" d="M421.8,375.1c0.4-0.4,0.9-0.7,1.3-1.1c0.7,0.2,1.9,0.2,1.4,1.3c-0.4,1-1.6,0.6-2.5,0.7
		C421.8,375.7,421.8,375.4,421.8,375.1z"/>
	<path class="st6" d="M638.8,501c-1.2-0.1-1.8-0.8-1.8-2C638.1,499.2,638.8,499.8,638.8,501z"/>
	<path class="st2" d="M647,471c0-1.1,0.5-1.9,1.6-2.1C649,470.3,648.3,470.9,647,471z"/>
	<path class="st2" d="M649,468c0-1.1,0.5-1.8,1.6-2.1C650.9,467.3,650.2,467.8,649,468z"/>
	<path class="st11" d="M730.8,830c-1.1-0.1-1.8-0.6-1.9-1.7C730.2,828.1,730.8,828.7,730.8,830z"/>
	<path class="st11" d="M460.7,753.7c1,0.3,1.5,1,1.5,2.1C460.7,755.7,460.1,755.1,460.7,753.7z"/>
	<path class="st11" d="M756.3,859.1c-1-0.3-1.4-1-1.4-2C756.1,857.2,756.8,857.7,756.3,859.1z"/>
	<path class="st1" d="M433.4,432.9c1.2,0.3,1.7,1.1,1.4,2.3C433.6,434.9,433,434.2,433.4,432.9z"/>
	<path class="st2" d="M639,266c0,0.3,0,0.6,0,0.9c-0.6,0.8-1.3,1.1-2.2,0.5C637.2,266.5,638,266.1,639,266z"/>
	<path class="st11" d="M711.1,876.9c1,0,1.7,0.4,2.1,1.4C711.7,878.8,711.3,878,711.1,876.9z"/>
	<path class="st1" d="M440.4,445.9c0.7,0.4,1.4,0.9,2.1,1.3c0,0.3-0.1,0.5-0.3,0.7C440.8,448,440.1,447.4,440.4,445.9z"/>
	<path class="st11" d="M729.1,889.8c1,0,1.7,0.4,2,1.4C729.7,891.8,729.3,891,729.1,889.8z"/>
	<path class="st11" d="M442.8,448.7c1,0.3,1.4,1,1.4,2C442.7,450.8,442.1,450.2,442.8,448.7z"/>
	<path class="st11" d="M546.7,814.2c0.9-0.3,1.7-0.3,2.3,0.6C547.8,816,547.2,815.1,546.7,814.2z"/>
	<path class="st12" d="M717.9,666c0.6,12.1,0.7,24.2-1,36.3c-0.1,0.6-0.6,1.1-0.9,1.7c-0.3-0.1-0.6-0.4-0.9-0.4
		c-5.9,0.9-11-1.8-16.4-3.5c-1.5-0.5-2.5,0.3-2.7,2c-0.4,3-2,2.6-4.3,1.8c-4-1.4-6.9-4.5-10.8-6.1c-2.1-0.8-2.2-2.9-1.7-4.7
		c0.6-2.2,2.6-2.9,4.7-3c1.2,0,2.7,1.3,3.5-0.4c1-2-1.2-2.3-2.2-3.3c-2.3-2.2-0.8-4.2,0.2-6.3c0.5-0.9,2.1-1.8,0.5-2.9
		c-1-0.7-2.3-0.4-3.2,0.5c-1,1.1-1.7,2.4-2.7,3.5c-2,2.2-3.5,4.8-7.1,1.4c-2.2-2.1-5.2,0.2-7.3,1.5c-4.2,2.7-8.3,2.8-12.7,1.1
		c-4.1-1.6-8.5-2.2-12.7-3.2c-4.6-1-11.9-0.6-12.3-8.6c-0.1-1.3-1.2-1.7-2.1-1c-2.9,2.4-7.3,1.8-9.6,5.5c-1.7,2.7-4.6,2.3-4.8-0.9
		c-0.3-6.7-2.4-6.9-7.3-1.4c1.1-6.1,0.1-10.3-3.4-13.8c-0.8-0.8-0.9-2,0-2.7c2.2-1.5,2.6-2.9,0.5-4.7c-1-0.8-2-2.2-3.4-0.9
		c-1.6,1.6-3.7,3.2-1.7,5.9c0.4,0.5,0.8,1.1-0.1,2c-3.5-1.7-5.8-5.1-8.6-7.7c-1-0.9-1.1-3.4,0.4-4.5c1.6-1.2,2.2,0.7,2.9,1.8
		c0.6,0.9,1.2,1.8,2.3,1c1.4-1.1,1.4-2.7,0.5-4c-1.5-2-3.1-3.9-4.9-5.6c-1.2-1.2-2.5-2.1-2.6-4c-0.2-2-1.6-3-3.6-2.2
		c-4.5,1.7-5.7-0.2-5.4-4.4c0.1-1.4,0-2.7-1.8-3c0-4-0.1-8-0.1-12c3-0.3,3.6-2.6,2.7-4.6c-1.2-2.6,1-7.7-4.7-7.4
		c-0.4-1.7-0.7-3.3-1.1-5c2.3-0.3,5.4,1,5.9-2.8c0.4-3.2-1.3-4.9-4.5-5.3c-1.5-0.2-2.4-1.1-2.2-2.7c0.1-1.3,1-2.2,2.1-2.6
		c1.6-0.7,3.4,0.3,3.9,1.4c2.3,5.3,7.5,6.8,11.8,9.4c2.1,1.3,4.1,3.8,7.1,1.6c0.3,0.6,0.7,1.1,0.9,1.7c2.8,15.9,6.7,31.4,17.6,43.9
		c11.3,13,27.5,14.8,36.8-3.6c1.5-3,2-6.2,3.7-9.1c4.4,3.2,7.2,0.4,10-2.7c5.3-5.8,12.7-6.4,17.3-1.5c0.6,0.7,1.7,1.3,1.1,2.5
		c-0.4,0.9-1.4,0.7-2.2,0.7c-3.9-0.3-7.9,1.4-11.7-0.3c-1.5-0.7-2.8-0.4-3.1,1.3c-0.4,1.9,1.2,2,2.5,2.1c2.8,0,5.7-0.1,8.5,0.1
		c1.6,0.1,3.4,0.6,3.6,2.8c0.1,2.1-1.2,3.4-3.1,4c-4,1.3-7.6,0.6-10.8-2.4c-3.3-3.2-13.3-0.6-13.7,3.9c-0.4,3.7-1.8,5.6-4.9,7.2
		c-1.8,0.9-2.4,3.3-1.8,5.2c0.6,1.8,2.3,2.2,4.5,1.8c5.6-1,8.1,0.9,9.4,6.6c0.4,1.6,0.3,3.3,0.5,4.9c0.2,1.5,1.5,2.4,2.3,1.4
		c1.8-2.2,5.2-5.4,4.1-7.2c-2.3-4,0.2-9.2-3.9-12.5c-1.1-0.9-0.7-2.6,0.8-3.3c1.4-0.7,2.7,0.3,3.3,1.5c0.4,0.8,0.3,1.9,0.4,2.9
		c0.2,4.6,3,8.3,5,12.1c1.4,2.6,4-1,6.3-0.7c0.5,0.1,0.9,0.4,1.4,0.5c3.9,1.5,8.6,1.3,10.8,6c0.6,1.3,2.2,1.3,3.6,0.6
		c0.7-0.4,1.6-0.7,1.7-1.7c0.2-2-1.7-1.6-2.8-2.2c-0.8-0.5-1.8-0.9-2.7-1.3c-2-0.7-4.9-1.3-3.6-4.1c1.2-2.4,3.7-4.8,6.8-3.6
		c2,0.8,3.5,1.5,5.5,0.6c1.4-0.6,2.5,0.2,3.2,1.5c0.9,1.6,1.6,3.5,3,4.5c5.1,3.9,7.7,8.1,2.5,14.2c6.1,0.2,6.8-3.2,5.9-7.1
		C714,667.1,714.7,665.8,717.9,666z M698.5,683.6c-0.4-2-0.6-3.5-1-4.8c-0.2-0.7-1.3-0.5-1.6,0.1c-1.6,2.8-3.1,5.7-4.4,8.6
		c-0.2,0.5,1.1,1.6,1.8,1.3C695.8,687.6,697.3,685.4,698.5,683.6z M624.9,666.8c-1.4-1.4-1-4.9-3.9-5.3c-2.1-0.3-2.9,2.3-2.8,4
		c0.1,2.7,2.4,3.8,4.8,4.2C624.3,669.8,624.8,668.5,624.9,666.8z M706.2,687c-2.2,0-4,0.2-4,2.4c0,1.6,1.8,2.6,2.8,2.1
		c2.2-0.9,6.2,0.7,6.5-2C711.7,686.9,707.7,688.2,706.2,687z M653.9,678.9c0-0.9-0.3-1.7-1.4-1.5c-0.8,0.2-1.3,0.9-1.4,1.8
		c0,1,0.5,1.5,1.5,1.4C653.7,680.6,653.9,679.8,653.9,678.9z M614.8,667c-0.5-0.4-0.8-0.8-1.1-0.8c-0.4,0-1.1,0.2-1.2,0.5
		c-0.2,0.7,0.3,1.1,1,1.1C613.9,667.8,614.2,667.4,614.8,667z"/>
	<path class="st12" d="M455.9,606c0-1.7,0.1-3.3,0.1-5c1.4-1.3,1.4-2.7,0-4c0-4.6,4-3.1,6.2-3.8c1.9-0.6,3.9-0.5,5.6-1.7
		c1.9-1.3,2.3-3.1,2.1-5.2c-0.2-2.3-1.4-3.6-3.6-4.2c-1-0.2-2-0.4-2.9-0.7c-2.3-0.9-5.8,0.9-6.8-1.8c-1.3-3.3-1.4-7.1,0.3-10.6
		c1.7,0.9,0.7,5.1,3.5,3.9c4.7-2,8.9-0.4,13.3,0.1c3.1,0.3,7.4-3.6,8.4,2.8c0,0.2,1,0.2,1.4,0.4c3,1.6,6.1,2.9,9.4,4.1
		c2.4,0.9,5.8,2.2,2.6,6c-0.7,0.9-0.9,2.2,0.1,3.2c0.8,0.8,2,0.8,2.8,0.2c2.1-1.8,7.3,0,6.6-5.4c-0.1-1,1.2-2.3,2.5-1.8
		c4.5,1.8,5.8-1.3,7.5-4.3c0.6-1.1,1.6-2.2,2.7-2.8c1.5-1,3.4-2.1,4.8,0.1c1.3,2.1-0.6,2.4-1.9,3c-0.8,0.4-1.4,1.1-0.9,2
		c0.5,0.8,1.5,0.9,2.2,0.5c1.1-0.6,2.2-1.4,3.1-2.3c1.8-1.9,3.1-1.1,4.4,0.6c0.8,1,0.2,2.8,2.2,3.2c0.6-3.3,0.8-7.5,5.5-2.9
		c0.9,0.9,2.2,0.7,3.1-0.4c1.1-1.3,0.8-2.4-0.9-3.1c-0.9-0.3-1.4-0.9-1.1-1.9c0.2-0.8,0.9-1,1.6-0.8c4.2,1.4,8.8,0.8,13,2.9
		c2.5,1.2,3.9,3.5,6.1,4.7c1.2,0.7,4-0.7,3.7,2c-0.2,2.3-2.6,2.6-4.6,3.2c-5.1,1.3-10,2-15.4,0.3c-5.1-1.6-10.8-1.8-16.2-1.7
		c-4.2,0.1-9.2-0.7-11.6,4.5c-4.8-0.3-7,2.1-7,6.8c0,5.7-0.4,11.5,1.1,17.1c-1.6,0.2-3.7-0.6-4.4,1.4c-0.7,2.1,1.9,1.2,2.5,2.1
		c1.6,2.2,0.8,3.7-1.6,4.5c-2.7,0.9-3.3,2.7-1.9,5c0.9,1.6,3.4,3.2,1.1,4.9c-2,1.6-4.5,3.1-7.5,2.8c-1.5-0.1-2.9-0.4-4.4-0.6l0,0
		c0-0.3,0.1-0.7,0.2-1c0.6-2.1,4.2-3.7,2.4-5.8c-1.1-1.3-4.4-0.9-8.2-1.4c5.8,4.8,2.6,6.9-0.7,9.1c-1.3,0.9-2.6,2.4-4.3,1.6
		c-2-0.9-0.5-2.6-0.4-3.9c0.2-2.3-1-3.3-3.1-3.6c-1.9-0.3-3.8-1.2-5.8-0.9c-1-0.3-2-0.6-3-0.9c-0.7,0-1.3-0.1-2-0.1
		c-0.5-0.8-1.2-1-2-0.8c-2.6-0.1-5.3-0.2-7.9-0.3c-0.3-0.3-0.7-0.6-1-0.9c0-1.3,0-2.7,0-4c1.8-0.1,3.7-1.9,5.6,0
		c0.7,0.7,1.8,1.2,2.7,0.5c1-0.9,0.9-2.1,0.3-3.2c-2.2-4.1-3.6-9.1-9.5-9.3C456,607.3,456,606.7,455.9,606z"/>
	<path class="st9" d="M509.1,613c-1.4-5.6-1-11.4-1.1-17.1c0-4.6,2.1-7.1,7-6.8c2.9,2.3,5.1,5.2,6.1,8.9c1.7,5,3.3,10,5,15
		c0,1.9,1.2,3.4,1.9,5c3.7,11.4,9.9,21.2,18.3,29.7c5,5.1,9.3,4.5,12.7-1.8c3-5.6,3-11.8,2.9-17.9c0-1,0-2,0-2.9
		c-0.2-6.8-1.3-13.5-1-20.3c0.1-1.6,0.6-3.4-0.9-4.7c0-1-0.1-2-0.1-3c0-1.7,0-3.4,0-5c0.2-1.9,0.5-3.7,2.9-4c2-0.3,3.5,0.6,4.8,2.1
		c2.6,2.8,2.7,6.7,4.4,10c0.4,1.7,0.7,3.3,1.1,5c-0.2,4.1,0.6,8.1,2,12c0,4,0.1,8,0.1,12c-0.3,7.7-0.2,15.3-3.4,22.9
		c-7.5,17.6-23.9,17.3-35.5,7c-13.5-11.9-21.4-27.2-26.4-44.2C509.8,614.1,509.4,613.5,509.1,613z"/>
	<path class="st12" d="M493,633c0.1,2.6,2.1,5.8-2.4,7c-1.2,0.3-2.1,1-3-0.2c-0.8-1.1-0.6-2.3,0.3-3.2
		C489.4,635.2,490.5,633.1,493,633L493,633z"/>
	<path class="st9" d="M470,626.1c1,0.3,2,0.6,3,0.9c0.3,1,0.7,2,1,3C471.7,629.6,469.8,628.9,470,626.1z"/>
	<path class="st12" d="M489,786.9c0.1-0.8,0.2-1.5,0.3-2.3c1.1,0.4,2.2,1,2.6,2.3C490.9,787,490,786.9,489,786.9z"/>
	<path class="st3" d="M215,224.2c-7.2-4.7-10.7-3.3-12.8,5.2c-2.5,9.7-3.3,10.1-13.2,8.2c-2.7-0.5-5.6-0.5-8.4-0.5
		c-4.1-0.1-6.1-1.3-5-6.1c1.3-5.7-1.8-8.3-7.4-7c-0.6-2.9,2.1-2.7,3.6-3.7c-0.2-0.5-0.3-1-0.5-1c-2-0.3-5.3,0.8-5.3-1.9
		c-0.1-2.7,3.2-0.8,4.8-1.5c2.5-1,5.6-0.6,7.1-3.8c0.6-1.3,2.3-1.1,3.6-1.1c4.2-0.1,6.9,3.4,10.8,4.3c1.2,0.3,1,2,0.8,3.1
		c-0.2,1.5-1.4,1.7-2.6,1.6c-1.3-0.1-2.5-0.3-4-0.5c0.7,1.9,1.3,3.4,1.8,4.9c0.6,2.1,2.7,2.2,3.5,1.2c2.1-2.8,5.9-3.2,7.9-6.3
		c1.4-2.2,4.5-6.1,8.4-2c0.9,0.9,2.1,0.8,3.3,0.9C215.1,218.4,215.3,221.1,215,224.2z"/>
	<path class="st1" d="M206.2,185.6c0,0,0.4,0.8,0.4,1.6c0.1,1.3,2,2.9-0.1,3.7c-1.6,0.6-3.6,0.6-5-1.2c-0.9-1.2-1.7-2.4-2.8-3.5
		c-1.5-1.5-1.7-2.5,0.4-3.8c2.5-1.6,3.5-4.6,5.2-6.9c2.2-2.8,4.4-3.5,6.9-0.6c0.9,1,1.5,2,3.1,2.2c2.2,0.3,3.5,1.7,3.7,4
		c0.1,1,0.2,2.1-1,2.6c-2.1,0.9-3.3-0.8-4.8-1.8c-1.3-0.9-2.6-2.3-4.4-1.1C206.6,181.8,205.9,183.1,206.2,185.6z"/>
	<path class="st3" d="M278.1,225.1c-0.1,0.8-0.1,1.7-0.4,2.5c-2.6,9.6-2.6,9.6-12.7,9.6c0.2-2.7-1.4-4.2-3.6-5.4
		c-1.3-0.7-2.8-1.8-2.2-3.5c0.8-2,2.3,0,3.4-0.2c4.4-1,8.9-2,13.3-2.9C276.8,225,277.4,225.1,278.1,225.1z"/>
	<path class="st4" d="M344.1,239c0,1.3-0.8,2.1-1.4,3.1c-1.6,2.9-2.8,3.7-5.2,0.3c-1.5-2.2-2.4-5.9-6.4-5.4c0-1,0-2,0-3
		c0-0.8-0.2-1.7,0.1-2.5c0.9-2.9,2.2-5.6,5.9-5.5c3.9,0,3.5,3.2,4,5.7c0.2,1.1,0.1,2.3,0,3.5c-0.1,2.2,1,3,3.1,2.8
		C344,238.4,344,238.7,344.1,239z"/>
	<path class="st3" d="M240.2,237.2c-0.4,2-1.9,1.9-3.4,1.9c-4.9,0-9.8-0.1-14.7-0.2c1.3-3,2.7-5.9,3.8-9c0.4-1,0.6-2.5-0.5-3.2
		c-1-0.7-1.7,0.4-2.5,1c-0.7,0.6-1.5,1.7-2.4,0.5c-0.7-0.9-0.1-1.9,0.7-2.6c2.5-2.2,5.1-3.1,7.5,0c1.5,1.9,2.8,3.7,5.6,3.4
		c0.9-0.1,2.3-0.2,2.3,1.1c0,0.8-0.9,1.7-1.7,2.3c-1.1,1-3.9,0.5-3.3,2.9c0.7,2.5,3.3,1.5,5.2,1.7
		C237.9,237.2,239.1,237.2,240.2,237.2z"/>
	<path class="st1" d="M182.2,198.7c3.6,0.7,5.5-0.8,6.8-3.1c0.8-1.4,1.7-3.8,3.3-2.8c2,1.2,0.1,3.2-0.8,4.7c-1,1.6-1.8,3.3-1.2,5.2
		c0.8,2.5,1.2,4.9-2.2,5.2c-2.7,0.3-5.9,0.1-6.9-3.3C180.4,202.3,178.4,199.5,182.2,198.7z"/>
	<path class="st3" d="M313.1,236.9c-8.2,0-16.5,0.1-24.7,0.1c-1.4,0-3.1,0.3-3.2-2c6.2-0.7,12.5,1.1,18.9-1.2
		C306.5,233,310.9,233.5,313.1,236.9z"/>
	<path class="st3" d="M217.1,239c-2.4,0.3-4.3,0.3-3.2-3.2c0.7-2.1,0.8-4.5,1.2-6.7C219.4,231.7,217.2,235.5,217.1,239z"/>
	<path class="st3" d="M260.1,237.9c-2.8-0.9-8.1,3.2-8-3.8C255.3,234.2,259,233.2,260.1,237.9z"/>
	<path class="st3" d="M252.1,232.1c-0.7-1.2-1.4-2.5-2.2-3.7c1.4-1.3,3.2-3.5,4.7-1.2C255.8,229,254.8,231.4,252.1,232.1z"/>
	<path class="st3" d="M375.1,239.9c-4.1,0.9-8-0.9-12.1-0.9c0.1-0.3,0.2-0.9,0.3-0.9C367.4,237.5,371.5,237.1,375.1,239.9z"/>
	<path class="st3" d="M344.1,239c0-0.3,0-0.6,0-0.9c3.1-1.1,6.3-2.4,9,0.8c-1.7,0.1-3.4,0.1-5,0.2C346.7,239.1,345.4,239,344.1,239z
		"/>
	<path class="st3" d="M240.4,221c-1.4-0.1-2.3-0.4-2.2-1.7c0.1-1.3,1-2.1,2.2-2.1c1.2,0,2.3,0.6,2.2,2
		C242.5,220.7,241.3,220.9,240.4,221z"/>
	<path class="st3" d="M331,234.1c0,1,0,2,0,3c-2,1.4-4,1.4-6.1,0.1C326.9,235.9,328.8,234.6,331,234.1z"/>
	<path class="st3" d="M243.2,229.2c-1,1.9-0.6,4.2-2.1,5.9C240.1,232.5,238.2,229.6,243.2,229.2z"/>
	<path class="st3" d="M129.9,210.9c0.6,0.1,1.3,0.2,1.9,0.3c1.1,0.4,1.3,1.3,1.1,2.3c-0.1,0.4-0.5,0.9-0.8,1
		c-1.2,0.2-1.6-0.7-1.9-1.7C130,212.3,130,211.6,129.9,210.9C129.9,211,129.9,210.9,129.9,210.9z"/>
	<path class="st3" d="M380,237.1c0.3,2.3-0.6,3.3-3,2.8C377.2,238.1,378.2,237.2,380,237.1z"/>
	<path class="st3" d="M245.6,221.5c0.3,0.3,0.9,0.8,1,1.3c0.2,0.7-0.4,1.2-1.2,1.1c-0.7,0-1.2-0.5-1.2-1.2
		C244.2,222,244.6,221.5,245.6,221.5z"/>
	<path class="st1" d="M210.6,189.2c0.5,0.4,1.1,0.8,1,1c-0.2,0.5-0.5,1.2-1,1.4c-0.6,0.3-1.4,0.1-1.2-0.8
		C209.6,190.3,210.1,189.8,210.6,189.2z"/>
	<path class="st3" d="M323,237.1c-1,0-2,0-3-0.1c0.1-0.8,0.3-1.7,1.3-1.8C322.7,235.1,322.9,236.1,323,237.1z"/>
	<path class="st8" d="M440.9,353c1.4-4.3,2.7-8.6,4.1-12.9c2.7-2.9,1.6-5.1-0.9-7.5c-3.2-3.1-1.9-8.6,2-8.1c7.9,1,9.5-5,12.1-9.4
		c2.4-4.2,5.8-7.2,9-10.5c1.3-1.4,2.9-3.1,5.1-1.7c2.2,1.4,2.1,3.5,1.1,5.7c-0.2,0.4-0.2,1-0.3,1.5c-1.3,1.5-2.8,2.9-3,5
		c-0.8,0.4-1,1.2-1,2c-1.6,2.2-3.2,4.4-4,7c-3.1,4-2.6,4.9,3,6.1c1.6,1.4,3.4,2.6,4.7,4.1c3.3,3.7,1.7,7.7-3.6,9.1
		c-1.3-0.1-2.6-0.2-4-0.3c-6.8-4.4-8-3.9-10.1,3.4c-0.9,3.2-1.8,6.4-3.1,9.4c-1.9,4.5,0,5.7,4.1,5.3c0.2,2,1.5,3.1,3.2,3.9
		c0.1,0.6,0.1,1.3,0.2,1.9c0,4.6-2.3,6.8-6.9,6.1c-3.6-0.5-4.6,1.2-4.4,4.5c0.2,3.8,0.1,7.6,0.1,11.4c-0.3,0-0.7,0-1,0.1
		c-2.9,2.5-7.2,0.1-10,3c0-6-0.6-12,0.7-18.1c0.5-2.2,1.1-4.9-0.8-7c-0.1-0.6-0.1-1.3-0.2-1.9c0.4-1.5-0.5-3.7,1-4.6
		C440.8,358.7,440.4,355.8,440.9,353z"/>
	<path class="st14" d="M618.9,353.1c6,5.6,10,12.1,10.1,20.6c0.1,10.8-5.9,14.9-15,16.2c-5.9,0.8-11.9,0.6-16.1-4.9
		c-2.9-3.3-4.9-7.2-6.9-11c0-4.3-1.6-8.7,0-13c0.1-0.6,0.1-1.1,0.2-1.7c1.1-0.3,1.8-1,1.9-2.3c1.3-0.7,2.4-1.7,3-3
		c4.6-3,9.8-3.2,15-3.3c0.7,0.1,1.4,0.1,2,0.2c0.4,0.8,1.1,1,2,0.8C616.3,352.2,617.6,352.7,618.9,353.1z M601,377.4
		c-0.1,1.9-0.2,3.5,1.4,4.3c1.6,0.9,3.6,1,4.6-0.3c3.3-4.2,5.7-2.7,8.5,0.5c1.5,1.8,4,2,5.8,0.3c1.8-1.7,1.8-3.9,0.2-5.8
		c-0.8-1.1-1.8-2-2.6-3c-1.7-2-2.8-4-0.5-6.5c1.5-1.6,2.4-3.7,0.2-5.7c-2.1-1.9-4.3-0.9-5.8,0.7c-2.3,2.4-4.1,2-6.4,0.3
		c-1.7-1.3-3.8-1.9-5.5-0.3c-2,1.8-0.6,4,0.7,5.3c2.5,2.5,2.4,4.8,0.5,7.5C601.6,375.4,601.3,376.6,601,377.4z"/>
	<path class="st5" d="M611,350.7c-5.2,0.1-10.4,0.3-15,3.3c-1-2.3-2.2-4.7,0.9-6.4c2.2-1.2,4.4-2.7,6,0.9c0.7,1.6,2,0.3,3.1,0.5
		C607.7,349.4,610,347.9,611,350.7z"/>
	<path class="st5" d="M626.6,345c-0.2,1.4-1.2,1.9-2.4,2c-1.6,0.1-3-0.5-3-2.3c0-1.6,1.4-1.5,2.5-1.5
		C625.1,343.1,626.3,343.4,626.6,345z"/>
	<path class="st5" d="M464.9,324c0.9-2.6,2.4-4.8,4-7C471.3,320,470.3,321.9,464.9,324z"/>
	<path class="st5" d="M470,315.1c0.3-2.1,1.8-3.5,3-5c1.6,0.7,2.4,2,1.8,3.6C473.9,316,471.7,314.7,470,315.1z"/>
	<path class="st2" d="M516.2,293.3c-2.6,1.2-4,0.8-5.2-1.5C513.2,291.4,514.5,291.9,516.2,293.3z"/>
	<path class="st5" d="M593,357.1c0,1.2-0.7,1.9-1.9,2.3C591,357.9,591.5,357.1,593,357.1z"/>
	<path class="st2" d="M474,289.1c0.4-0.8,1.2-1,2-1C475.8,289.4,475.6,290.6,474,289.1z"/>
	<path class="st5" d="M615,351.8c-0.8,0.2-1.5,0-2-0.8C614.4,349.6,614.7,350.6,615,351.8z"/>
	<path class="st2" d="M712,244.1c-10.1,1.6-19.7,5.1-29.6,7.4c-1.8,0.4-3.6,0.6-5.4,0.6c-1-4.8,0.2-7.6,5.7-8.7
		c7-1.3,13.7-3.8,20.6-5.6C711.6,235.7,711.6,235.8,712,244.1z"/>
	<path class="st2" d="M749.2,237c-10.2,0.5-20,3.9-30.1,5.2c-0.1-7.7-0.1-7.8,7.2-9c4.7-0.8,9.5-1.5,14.2-2.4
		C748.5,229.2,748.5,229.2,749.2,237z"/>
	<path class="st2" d="M869.1,220c-1.6,0-3.9,0.5-2.1-2.4c0.7-1.2,0.1-1.9-0.7-2.5c-0.8-0.8-1.8-0.9-2.6-0.1
		c-4.5,4.5-10.5,3.4-15.9,4c-2.6,0.3-5.3,0.4-7.8,1.1c-0.3-3.8,2.9-3.7,5.1-3.8c6.4-0.4,12.7-1.6,18.8-3.4c4.5-1.4,5.7,0,5.2,4.2
		C868.9,218,869.1,219,869.1,220z"/>
	<path class="st11" d="M621,435c-0.2,0.2-0.5,0.5-0.7,0.6c-2.8,1.7-0.2,6-2.7,7c-2.3,0.9-5.1-0.9-7.7,1.5c-1.1,1-5.8,2-6.2-2.8
		c-0.1-1.5-1.4-1.9-2.5-1.9c-1.3,0.1-1.1,1.4-1.1,2.4c-0.1,1.5,0.2,3.4-1.7,3.7c-2.1,0.3-2.1-1.6-2.4-3c-0.3-1.5-1.2-2.6-2.7-2.2
		c-1.7,0.4-3.4,1.4-4.1,3.3c-0.6,1.7,0.7,4.3-2.6,4.4c-2.8,0.1-4.2-2.3-4.6-3.9c-1.9-6.3-3.5-3.6-5.5-0.2c-0.3,0.4-1,0.6-2.1,1.1
		c0-2.5,3.4-5.7-0.5-6.4c-2.5-0.5-6.2,0.1-6,4.7c0.1,2.1-1.3,2.7-3.5,2.1c-2.7-0.8-5.2-0.9-5.8,3c-0.2,1.6-2.1,2.2-3.5,2.4
		c-2.1,0.3-3.7,1.2-5.1,2.8c-0.8,0.9-1.7,1.7-3,1.2c-3.6-1.3-3.6-1.3-4.9,3.3c-1,0-2,0-3,0c-1,0-2,0-3,0c-0.3-2.9-4.1-4.5-3-8
		c0.3-2.1,1.3-2.1,2.6-0.9c1.2,1.2,2.5,2.5,4.3,1.3c3.5-2.2,6.7-5.2,10.4-6.8c3.2-1.4,4-6.5,8.4-5.4c2.5,0.6,3.1-0.2,3.8-2.2
		c0.8-2.2,2.4-4.9,5-3.7c5.8,2.6,6.9-2.3,10.3-4.6c-3.2-1.7-6,2.1-8.5-0.8c1.3-1.2,2.4-2.6,4.1-2.7c1.5-0.1,3.6,1.7,4-0.9
		c0.3-2.1-1.9-2.6-3.6-3.4c-2-1-3.5-2-5.6,0.1c-2.2,2.2-4.5,1.3-6.4-0.9c0-0.7,0-1.3,0.1-2c1.6-0.7,3.2-1.5,4.9-2
		c1.2-0.4,3,0.1,2.7-1.9c-0.3-2-1.7-1.9-3.3-1.5c-3.1,0.8-4.4-0.9-2.8-3.4c2.4-3.9-0.4-3.1-2.5-3.3c-0.1-3.2-0.2-6.3-0.2-9.5
		c0-1.3-0.2-3,1.5-3.3c8.5-1.2,9.8-7.2,9.6-14.2c3.5,1,5.6,3.2,4.8,6.9c-1.1,4.9,2.1,3.2,3.9,2.5c1.7-0.7,3-2,4.9-0.3
		c1.8,1.6,0.8,2.8-0.1,4.3c-0.3,0.5-0.3,1.3-0.2,1.9c0.7,2.7,8.6,5.5,11,4c2.4-1.5,4.8-2.9,4.2,1.9c-0.2,1.6,1.1,1.9,1.9,2.6
		c1.1,1.1,2.6,2.7,1.2,3.8c-4.4,3.6-0.2,5,1.6,6.6c1.7,1.5,3.5,2.1,1.6,5c-1.1,1.7,3.6,6.8,6.6,6.6c3.9-0.3,4.7,1.5,5.2,4.7
		C618.8,430.8,620.1,432.9,621,435z"/>
	<path class="st8" d="M572,378c0.2,7-1.1,13-9.6,14.2c-1.7,0.2-1.5,2-1.5,3.3c0,3.2,0.1,6.3,0.2,9.5c-0.8,4.1,1.1,8,0.9,12
		c0,0.7,0,1.3-0.1,2c-2.8,6.3-8,7.8-14.1,4c-2.3-9.6-0.4-19.3-1-29c-3.8-3.3-8.6-4.8-12.9-7.1c-0.5-2.7-2.7-4.9-2-7.9
		c2.7-4.9,6.3-8.6,11.9-10.1c4-0.2,7.9-1.5,12-1c1.7,0.4,3.3,0.7,5,1.1c2.8,1.4,5.6,2.9,8,4.9C570,375.4,571,376.7,572,378z"/>
	<path class="st14" d="M502.9,359.1c0.8,3.2,4.2,4.8,5.1,8c0.4,3,0.7,6,1.1,9c0,0.7-0.1,1.3-0.1,2c-1,3-2.1,5.9-3.1,8.9
		c-2.3,0.5-3.6,2.3-4.8,4.1c-1.3,0.7-2.6,1.3-4,2c-6.4,0.5-12.6,0.2-17.9-4.1c-1.7-2.3-3.3-4.6-5-6.9c-2.8-7.6-3.3-15,1.9-21.9
		c0.7-0.9,1.4-1.9,2.1-2.8C486.8,352.3,495.1,353,502.9,359.1z M499.9,366.6c0-0.8-0.4-1.7-1.4-2.2c-1.4-0.8-3.2-0.9-4.2,0.1
		c-2.7,2.8-5.3,2.8-8.3,0.7c-1-0.7-2.8-0.6-3.6,0.6c-0.8,1.2-0.9,3,0.1,3.7c4,3.1,3,6.3,0.9,9.9c-0.8,1.3-1,3.1,0.4,4.1
		c1.6,1.2,3.5,0.3,4.3-1.1c2.2-3.7,4.1-3.2,6.6-0.3c1.2,1.4,3.1,1.5,4.6,0.5c1.4-1,1.4-2.9,0.6-4.1c-2.6-3.8-5-7.4-0.1-11.2
		C499.8,367.3,499.8,367.1,499.9,366.6z"/>
	<path class="st6" d="M474.1,382c1.7,2.3,3.3,4.6,5,6.9c-0.2,3.2-1.6,5.7-4.5,7c-1.3,0.6-3.4,0.3-3.1,2.3c0.2,1.8,2,2.4,3.6,3
		c1.3,0.5,3.4,0.2,3.5,2.1c0.1,1.8-2.5,1.2-3.3,3.1c3.5-0.3,4.9,2.1,3.5,4.4c-1.9,2.8-2.1,7.8-7.4,7.4c-1-0.1-1.2,1-1.3,1.8
		c-0.3,1-0.7,2-1,3c-0.3,0.3-0.7,0.7-1,1c-3.5-3.4-7-5-10.8-0.4c-0.4,0.5-1.6,0.4-2.4,0.5c-0.3-0.3-0.6-0.7-0.9-1
		c0.1-1.1,0.3-2.3-0.9-3.1c0-1.1-0.3-2.3,0.9-3c4.7-0.6,7.9-2.5,7.1-8c0.6-1.1,1.5-2.2,1.8-3.4c0.8-2.8,7.6-2.9,3.6-7.8
		c0.4-0.3,0.7-0.7,1.1-0.8c1.7-0.4,2.2-1.8,2.6-3.3c0.7-2.6,5.2-2.9,4.4-6c-1-3.5-4.7-0.9-7.3-2.1c-7.6-3.5-13.9-0.6-15.3,6
		c-1.8-0.1-2-2.8-3.9-2.6c0-3.8,0.1-7.6-0.1-11.4c-0.2-3.3,0.8-5,4.4-4.5c4.6,0.6,6.9-1.5,6.9-6.1c1,0.1,2.1,0,2.7,1.1
		c1.2,3.4,1.9,7.6,5.7,8.8c2.5,0.8,3.3,1.1,2.5,3.7c-0.4,1.3-0.6,3.3,1.2,3.8C472.7,384.7,473.4,383.1,474.1,382z"/>
	<path class="st11" d="M509.1,376.1c-0.4-3-0.7-6-1.1-9c2.5,0.2,5.7,2.7,7.2-0.3c1.2-2.4-1-5.3-2.7-7.5c-1.2-1.6-2.8-2.9-4.2-4.3
		c-0.7-0.7-1.5-1.5-0.8-2.6c0.6-1,1.5-1.1,2.6-0.7c3.1,1,5.8,0.7,7.7-2.5c0.9-1.6,3-0.9,4.7-1c3-0.1,5.9,3.1,9.1,0.2
		c0.6-0.5,1.8,0.6,2.2,1.6c1.2,3.1-1.8,7.1,2,9.8c0.4,0.3-0.7,1.4-1.6,1.3c-1.8-0.2-3.5,1.4-5.3,0.5c-1.2-0.6-3.2,1.6-3.7-1
		c-0.3-1.8,1.2-1.8,2.3-2.5c2.7-1.7,0.5-4.1-0.5-4.8c-1.9-1.3-4.9-3.1-6.7-1.2c-1.8,1.9-6,3.5-3.1,8.1
		C521.1,366.2,515.5,376,509.1,376.1z"/>
	<path class="st11" d="M502.9,359.1c-7.8-6.1-16.1-6.8-24.8-1.9c-0.1-6.8,1.6-8.4,8.3-7.4c0.3-2.5-1.9-4.4-1.5-7
		c0.5-2.8,2-3.9,4.4-3.6c2.5,0.3,1.8,2.5,1.5,4c-0.6,2.7-2.6,6.4-1,7.9c1.9,1.8,3.3-2.8,5.9-3.1c2.7-0.3,5-3.6,8-0.6
		c0.4,0.4,1.1-0.4,1.2-1.1c0.3-1.9,1.3-2.9,3-1.5c1.8,1.4,0.8,3-0.2,4.4c-0.3,0.5-1.2,0.6-1.7,1c-2.8,2.1-7.9,3.6-2.6,8.2
		C503.3,358.6,503.1,358.9,502.9,359.1z"/>
	<path class="st11" d="M456,361.2c-4.1,0.4-6-0.8-4.1-5.3c1.3-3,2.2-6.2,3.1-9.4c2-7.3,3.3-7.7,10.1-3.4c0,1.2-0.7,2.1-1.5,3
		c-1.7,1.7-1.5,2.9,0.4,3.7c1,0.4,1.8,1.4,3.1,1.3c3.8,3.9,3.6,5.6-0.5,7.4c-1.2,0.5-2,1.7-3.5,1.6c-0.1-1.7,0.1-3.8-2.6-1.9
		C458.9,359.2,457.4,360.2,456,361.2z"/>
	<path class="st11" d="M505.8,386.9c1-3,2.1-5.9,3.1-8.9c4.3,4.3,4.3,4.3,7.6-1.1c0.8-1.4,2-2.4,2.8-0.6c2.5,5.5,6.1,5.5,10.7,2.9
		c0.5-0.3,1.3-0.1,1.9-0.1c-0.7,3,1.5,5.2,2,7.9c-1.3,2.3-2.2,4-5.8,2.4c-2.3-1-5.4-3.9-8.5-0.2c0-5.4-2.9-4.7-5.7-3.5
		C511.3,387,508.9,388.9,505.8,386.9z"/>
	<path class="st11" d="M474.1,382c-0.6,1.1-1.4,2.7-2.8,2.4c-1.8-0.5-1.6-2.5-1.2-3.8c0.8-2.6,0-2.9-2.5-3.7
		c-3.8-1.2-4.5-5.3-5.7-8.8c4.3-3.3,7.7-8.2,13.9-8C470.8,367,471.3,374.4,474.1,382z"/>
	<path class="st11" d="M556,368c-4.1-0.5-8,0.8-12,1c-0.5-2.9-1.9-5.7-1.5-8.9c0.1-1-0.3-2,0.8-2.5c1.3-0.7,1.8,0.5,2.2,1.3
		c1.6,3.6,4,3.9,7.2,2c2.5-1.4,6.6,1,7.8-3.5c0-0.2,1.2-0.2,1.8,0c0.7,0.3,0.8,1.4,0.4,1.7c-1.8,1.3-1.4,4.3-3.9,4.8
		C556.4,364.4,555.9,366,556,368z"/>
	<path class="st11" d="M639.9,404.4c-0.4,1.7-1.1,3-3.4,1.7c-3.1-1.7-6-2.5-7,2.4c-0.1,0.4-1,1-1.5,1c-1.1,0-1-1.1-1-1.9
		c0-2.1,0.8-3.8,2.4-5.2c2.2-2,2.4-3.6-0.9-4.4c-1.2-0.3-2.5-0.8-1.9-2.2c0.5-1.1,1.7-0.4,2.7-0.1c2.2,0.6,5.2,0.1,5,4
		c-0.1,1.5,1.6,1.4,2.7,1.4C639,401.2,640,402.3,639.9,404.4z"/>
	<path class="st11" d="M623.8,417c-3.4-0.3-7.4-0.7-11.3-1c-1.2-0.1-2.5-0.2-2.3-1.9c0.2-1.3,1.2-1.9,2.4-2
		c4.6-0.4,9.2,0.6,13.9-0.5c1.7-0.4,2.9,2.1,3.1,3.8c0.2,2-1.6,1.6-2.9,1.7C626,417.1,625.2,417,623.8,417z"/>
	<path class="st11" d="M591,374.1c2,3.9,4,7.8,6.9,11c-4.2-1.7-9.1-1.6-12.1-6.3c-1.3-2-2.4-3.9-1.3-5.7c1.5-2.5,3,0.6,4.6,0.8
		C589.6,374,590.3,374,591,374.1z"/>
	<path class="st11" d="M569,374c-2.4-2.1-5.2-3.6-8-4.9c0.5-0.6,1.2-1.7,1.6-1.7c3.4,0.8,5.4-0.3,6.4-3.8c0.2-0.8,2.1-2.2,2.6-0.6
		c0.6,2.1,3.9,4.2,1,6.5C571,370.8,569.8,372.2,569,374z"/>
	<path class="st3" d="M467,351c-1.3,0-2-0.9-3.1-1.3c-1.9-0.8-2.1-1.9-0.4-3.7c0.8-0.8,1.5-1.7,1.5-3c1.3,0.1,2.6,0.2,4,0.3
		C469.6,346.2,467.3,348.4,467,351z"/>
	<path class="st6" d="M456,361.2c1.5-1,3-2,4.4-3c2.7-1.9,2.5,0.2,2.6,1.9c0.5,3-1.8,4-3.9,5C457.5,364.2,456.2,363.1,456,361.2z"/>
	<path class="st11" d="M471.4,350.2c0.1-0.9,0.7-1,1.4-0.9c0.9,0.1,1.7,0.6,1.7,1.5c0.1,1.1-0.7,1.4-1.6,1.1
		C472.1,351.6,471.5,351.1,471.4,350.2z"/>
	<path class="st11" d="M635,419c-0.7,0.3-1.2,0.7-1.4,0.6c-0.5-0.3-1.1-0.8-1.2-1.3c-0.2-0.9,0.6-1.1,1.2-0.8
		C634.1,417.8,634.4,418.4,635,419z"/>
	<path class="st13" d="M561.9,625c0,1,0,2,0,2.9c-2.6,0-4.8-0.1-7.2-2.2c-3.3-2.9-7.5-4.6-10.1-8.5c-0.6-0.9-2.4-1.7-2.4,0.2
		c-0.1,4-3.3,3.8-5.5,5.4c0.3-5.8-0.6-6.5-5.7-5.3c-1,0.2-2,0.3-2.9,0.5c-0.7-1.6-1.9-3.1-1.9-5c4.1-3.7,1.1-11.3,7.6-13.7
		c0.6-0.2,0.5-1.9-0.3-2.7c-1-0.9-2.2-0.7-3.2-0.1c-2.9,1.8-6,1.5-9.1,1.5c-1-3.7-3.2-6.5-6.1-8.9c2.4-5.2,7.4-4.4,11.6-4.5
		c5.4-0.1,11.1,0.1,16.2,1.7c5.4,1.7,10.3,1.1,15.4-0.3c1.9-0.5,4.3-0.8,4.6-3.2c0.3-2.7-2.5-1.3-3.7-2c-2.2-1.3-3.6-3.5-6.1-4.7
		c-4.2-2.1-8.8-1.5-13-2.9c-0.6-0.2-1.3,0.1-1.6,0.8c-0.3,1,0.2,1.6,1.1,1.9c1.7,0.6,1.9,1.7,0.9,3.1c-0.9,1.1-2.2,1.3-3.1,0.4
		c-4.7-4.7-4.9-0.5-5.5,2.9c-2-0.4-1.4-2.2-2.2-3.2c-1.3-1.7-2.6-2.5-4.4-0.6c-0.9,0.9-2,1.7-3.1,2.3c-0.7,0.4-1.8,0.3-2.2-0.5
		c-0.5-0.9,0.1-1.6,0.9-2c1.3-0.6,3.2-1,1.9-3c-1.4-2.2-3.3-1.1-4.8-0.1c-1.1,0.7-2.1,1.7-2.7,2.8c-1.7,3-3,6.2-7.5,4.3
		c-1.3-0.5-2.6,0.8-2.5,1.8c0.7,5.4-4.5,3.6-6.6,5.4c-0.7,0.6-2,0.6-2.8-0.2c-1-0.9-0.9-2.3-0.1-3.2c3.2-3.8-0.2-5.1-2.6-6
		c-3.2-1.2-6.4-2.5-9.4-4.1c-0.4-0.2-1.3-0.2-1.4-0.4c-1-6.5-5.3-2.5-8.4-2.8c-4.5-0.4-8.7-2-13.3-0.1c-2.8,1.2-1.8-3-3.5-3.9
		c0-1.6,0.1-3.3,0.1-4.9c4.3,0.8,5.4-2.5,7-5.3c0.6-1,2.7-1.5,1.3-3c-1.2-1.3-2.8-0.7-3.8,0.5c-0.8,0.9-1.4,1.8-2.7,1.9
		c0-1,0.1-2,0-3c-0.2-3.4-0.1-5.6,4.8-4.7c3,0.6,7.7,0.6,8.3-4.7c0.3-2.9-1.1-4.6-3.5-5.9c-7.4-4.2-7.8-5.4-5-13.5
		c1.5-4.5,3.2-9,4.8-13.5c0.8-2.4,2.1-3.2,4.5-1.8c1.1,0.7,2.3,1.3,3.6,1.7c3.2,1,5.9,0.2,7.7-2.7c1.8-2.8,0.6-5-1.6-6.9
		c-0.6-0.5-1.2-1.2-1.8-1.7c-5.5-4.3-5.6-4.4-1.6-10.1c2.6-3.7,3.6-8.7,8-11.2c6.9,9.1,20.2,11.6,24.4,4.6c1.1,1.3,2.6,2.4,2.5,4.2
		c-0.2,2.8,0.8,4.2,3.6,4.8c1.5,0.3,2.7,1.8,4.1,2.7c0.9,0.6,1.5,2.2,2.8,1.1c0.9-0.8,0.2-1.8-0.4-2.7c-0.7-1-1.6-2.1-0.3-3
		c0.8-0.6,2.2-0.5,3.3-0.5c1.7,0,1.3,1.2,1.3,2.4c0.3,4.6,5.1,6.9,8.9,4.2c1.4-1,2.8-0.7,4.3-0.6c5,0.2,10,0.2,9.6,7.5
		c-0.1,1.3,1.4,1.8,2.5,2c0.9,0.2,1.6-0.4,1.9-1.2c0.4-1.1,0.6-2.3-0.6-3.1c-0.9-0.6-2.5-0.8-1.2-2.4c0.9-1,2.4-1.3,3.2-0.6
		c1.9,1.7,5,1.9,5.9,4.7c-0.1,3.9,2.4,3.4,4.7,2.5c1.5-0.6,2.7-1.9,4-2.9c4.9-3.8,9.5-2.9,13.3,2.4c0.4,2.4,2,4.4,2.5,6.8
		c1,4.8,6,6.1,9.3,2.3c1.5-1.8,2.4-2.1,4.4-0.7c3.3,2.3,7.3,3.7,9.2,7.7c0.7,1.4,2.4,0.7,3.6,0.9c1,0.7,1.1,1.7,0.9,2.6
		c-1.4,5.2,0.1,7.7,5.9,9.3c1,0.3,1.9,0.5,2.4,1.5c0.4,0.8,0.8,1.5,0.2,2.3c-0.7,0.9-1.5,1.2-2.6,0.5c-0.9-0.5-1.9-1.9-2.7,0
		c-0.5,1.2,0.1,2.3,1.3,2.9c2.5,1.1,4.2,3.2,6.2,4.9c2.3,1.9,2.6,3.7,0.1,5.6c-0.4,0.3-0.8,0.7-1.1,1.1c-1,1.6-4.4,3-3,4.4
		c2.2,2.3,2.8-2.3,4.2-2.3c3.7-0.1,6.3-2.4,9.3-3.3c1.9-0.6,4,3.4,3.2,6.3c-1,3.5,0.6,4.5,3.4,5.1c1.4,0.3,2.9,0.9,4.2,1.5
		c3.2,1.7,6.1,2.4,8.7-1.2c0.9-1.2,2.5-2.9,4.7-2c1.2,0.5,1.6,1.7,1.5,2.9c-0.2,2.3-2.1,3.3-3.8,3.4c-4.3,0.4-5.7,2.6-5.2,6.7
		c0.1,0.8,0.2,1.8-0.9,2.1c-1,0.3-1.4-0.6-2-1.2c-1.6-1.4-3.2-2.9-4.9-4.2c-5.3-3.8-5.3-3.8-13-2.6c1.9,2.1,3.9,3.6,2.2,7
		c-0.8,1.7,2,1.1,3.2,0.6c3.1-1.5,5.2-1,5.3,2.9c-2.6,9.1-0.2,18,0.5,27.1c0.8,10.2-0.1,20.2-5.7,29.1c-2,3.2-4.4,3.6-7.3,0.8
		c-3.5-3.4-6.6-6.9-8.7-11.4c-4.1-8.9-8.1-17.8-12.4-26.6c-3.3-6.7-6-7.7-11.4-5c-1.1,0.1-2.5-0.3-2.8,1.2c-0.3,1.3,0.8,1.6,1.8,1.7
		c0,0.7,0,1.3,0,2c-3,2.3-5-0.3-7.1-1.6c-4.3-2.6-9.5-4.1-11.8-9.4c-0.5-1.2-2.2-2.1-3.9-1.4c-1.1,0.5-2,1.4-2.1,2.6
		c-0.2,1.6,0.7,2.6,2.2,2.7c3.2,0.4,4.9,2.1,4.5,5.3c-0.5,3.8-3.6,2.5-5.9,2.8c-1.7-3.2-1.8-7.1-4.4-10c-1.3-1.4-2.8-2.3-4.8-2.1
		c-2.4,0.3-2.7,2.1-2.9,4c-1.5,0-3.3,0-3.5,1.8c-0.2,2.1,1.5,2.9,3.4,3.3c0,1,0.1,2,0.1,3c-1,0.2-2.3,0-2.8,0.6
		c-2.4,2.7-3.9,1.2-6.4-0.2c-2.5-1.4-5.2-0.8-4.3-5.3c0.6-2.7-2.8-1.8-4.5-2.4c-1.5-0.5-2.8-0.9-3.7,1c-1.8,3.9-0.7,9.9,3.1,12.2
		c2.6,1.6,5.4,2.9,7.6,5.2c1.1,1.1,2.2,0.3,3-0.6c1.9-2.4,3.5-0.8,5,0.4c2.3,1.9,0.4,3.3-0.9,4.4c-3.3,3-2.1,5.5,0.8,7.8
		C558.3,624.3,559.9,625.1,561.9,625z M594.6,549.1c-1.3,1.4-3.7-1.5-4.3,1.1c-0.5,2.2,1.1,4.1,2.1,5.9c1,1.8,2.1-0.2,3.2-0.7
		c4.8-1.9,9.3,0.3,10.8,5.2c1.1,3.6,7.5,7.9,9.7,6c2.6-2.2,2.3-6,0.6-9.1c-1.2-2.2-0.4-3.2,1.7-4c1.4-0.5,1.7-1.9,1-3.3
		c-1.3-2.5-9.8-4.5-11.7-2.3c-2.7,3-4.7,2.1-6.9-0.5c-1.3-1.5-2.7-3-4.2-4.2c-2.3-1.9-4.3-0.5-5.1,1.6
		C590.7,546.9,594.3,546.8,594.6,549.1z M550.2,617c0.5-0.3,1.2-0.4,1.3-0.7c0.2-0.7-0.3-1.2-1-1.1c-0.3,0-0.9,0.4-0.9,0.7
		C549.5,616.2,550,616.6,550.2,617z M616.6,542.7c-0.3-0.1-0.6-0.4-0.8-0.3c-0.2,0.1-0.3,0.5-0.4,0.8c0.3,0.1,0.6,0.4,0.8,0.3
		C616.4,543.4,616.5,543,616.6,542.7z"/>
	<path class="st10" d="M563,504c-1-2.8-4-3-5.9-4.7c-0.8-0.7-2.3-0.4-3.2,0.6c-1.3,1.6,0.2,1.8,1.2,2.4c1.2,0.8,1,2,0.6,3.1
		c-0.3,0.8-1,1.4-1.9,1.2c-1.1-0.2-2.6-0.7-2.5-2c0.5-7.3-4.6-7.3-9.6-7.5c-1.5-0.1-2.9-0.3-4.3,0.6c-3.8,2.6-8.7,0.4-8.9-4.2
		c-0.1-1.3,0.4-2.4-1.3-2.4c-1.1,0-2.5-0.1-3.3,0.5c-1.2,0.9-0.3,2.1,0.3,3c0.6,0.8,1.3,1.9,0.4,2.7c-1.3,1.2-2-0.5-2.8-1.1
		c-1.4-0.9-2.6-2.4-4.1-2.7c-2.9-0.6-3.8-2-3.6-4.8c0.1-1.8-1.4-2.9-2.5-4.2c-4.2,7-17.6,4.5-24.4-4.6c0.3-4.4-1.3-7.9-4.5-11
		c-2.4-2.4-5.8-4.1-6.5-7.9c2.4-2.2,4-10.5,2.5-12.9c-0.1-0.1-0.3-0.1-0.5-0.1c0.3-3.6-2.2-4.9-5-6.1c0-1.5,0.3-3.1-0.2-4.4
		c-1.8-4.5,1.7-4.2,4.2-5.1c1.7-0.6,2.6,2.3,3.9,0.8c2.5-2.8,6.1-2.1,9-3.3c0.2,1.2-0.5,2.9,0.9,3.6c1.5,0.8,1.9-0.7,2.4-1.7
		c0.5-0.8,1.3-0.9,2.2-0.9c2.1-0.1,2.8-0.8,1.4-2.7c-0.7-1-1.2-2.2,0.1-3c1-0.6,2.2-0.2,3.2,0.4c4.6,2.7,7.4,1,7.8-4.7
		c1.5-0.2,2.8,0.3,4,1c-1.1,1.9,3.6,5.4-1.8,6c-1.1,0.1-3.2-0.5-2.6,1.7c0.4,1.4,1.7,2.3,3.6,1.7c2.6-0.8,5.3-0.7,7.9-0.2
		c2.5,0.5,4.1,2.2,4.7,4.7c0.4,1.6-0.6,2.4-1.9,3c-2.6,1.3-4.1,0.4-5.7-1.9c-0.7-1-2-3.8-4.1-1.7c-4.3,4.3-2.6,11.1,2.3,14.8
		c3.5,2.7,7.6-0.1,10.9,2.7c1.8,1.5,5.1,3.3,5.2-2c0-1,1.6-0.8,2.6-0.9c-1.1,3.4,2.7,5.1,3,8c-1.4,0.8-3,1.4-4.2,2.4
		c-1.4,1.3-1.1,3-0.1,4.5c0.5,0.8,1.7,1,1.9,0c0.7-3.2,4.6-3.9,5.3-7c1,0,2,0,3,0c0.8,1.8,2.4,2.2,4.2,2c3.8-0.5,4.9,2.2,4.5,4.8
		c-0.4,2.7,0.2,4.5,1.9,6.2c1.6,1.6,1.6,3.6-0.5,3.7c-3.8,0.3-7.7,3.9-11.6,0.2c-1.1-1-2.4-1.4-3.5-0.2c-1.2,1.2-1,2.3,0.4,3.3
		c0.8,0.5,1.9,1.2,1,2.3c-0.8,0.9-1.8,0.2-2.7-0.2c-2.1-1.1-4.1-2.2-6.1-3.3c-0.7-0.4-2.1-0.9-2,0c0.3,3,0.5,6.3,1.9,8.9
		c1.1,1.9,3.8,1.5,5.7-0.3c2.7-2.5,7.2-1.9,9.5-5.7c1-1.7,3.4,0.8,4.4,1.9c1.6,1.8,2.6,1.6,4.4,0.4c2.3-1.4,4.7-2.4,7.9-2
		c2.3,0.3,3.2-3.7,4.8-5.7c0.7-0.9,0.8-2.2,1.5-3.1c1.3-1.7,2.9-4.3,5-3c1.5,0.9,4.1,2,4,5.1c-0.1,2.4,1.5,4.6,4.1,5.6
		c0.9,0.3,1.5,0.9,1.1,1.9c-0.5,1.2-1.5,1-2.5,0.5c-0.6-0.3-1.1-0.8-1.6-1.1c-2.7-1.6-5.1-2.6-4.2,2.3c-1.6,0-2-1-2.8-1.5
		c-1.2-0.8-2.5-2.4-3.9-1.4c-1.5,1.1,0.7,2.3,0.6,3.4c-0.2,3,0,6.7-1.6,8.6c-3.1,3.5-1.2,5.6,0.2,8.5
		C567.2,502.9,564.6,503.2,563,504z M495.2,468.1c-3.3,0.9-6.2-0.2-8,2.5c-0.5,0.8,0,2,1.3,2.2C491.9,473.5,493.5,471.5,495.2,468.1
		z"/>
	<path class="st13" d="M598,503c-0.4,0.8-1.2,1-2,1C596.2,502.7,596.4,501.5,598,503z"/>
	<path class="st0" d="M459.2,749.1c-9.8-15.4-15.9-32.4-20.2-50c-4-16.4-6.8-32.9-8.2-49.8c-0.4-5.1-0.7-10.2-0.8-15.3
		c2.9-0.5,5.3-1.5,5-5.1c9.1,2.9,9.3,3.4,10,12.8c0.4,5.2,1.5,10.5,2.6,15.6c0.8,3.7,0.2,6.2-4,6.9c-0.6,0.1-1.2,0.5-1.9,0.7
		c-3.1,1-5.6,3.2-5.4,6.4c0.2,3.3,3.7,4.9,6.3,4.5c7.5-1,8.6,3.5,9.7,9.1c1.5,7.4,3.6,14.8,5.7,22.1c0.6,2.2,0.3,3.5-1.4,4.7
		c-1.2,0.8-2.4,1.8-3.5,2.7c-2.4,1.9-3.1,4.6-1.7,7.1c1.3,2.3,4.3,3.1,6.6,2.3c4.2-1.6,5.8,0.3,6.8,3.9c0.4,1.3,0.9,2.5,1.4,3.7
		C470.2,742.9,470.2,742.9,459.2,749.1z"/>
	<path class="st12" d="M435.1,628.9c0.2,3.6-2.2,4.6-5,5.1c-0.2-5.1,0.4-10.2-0.9-15.2c-0.5-1.9-0.2-4,0.8-5.7
		c2.9,0.3,4.4-1.9,4.5-4c0.1-2.5-2.3-3.2-4.6-3c0.1-4.9-0.1-9.7,0.2-14.6c0.8-9.5,1.9-19,2.8-28.5c0.2-1.8-0.1-3.6,2.5-4.1
		c2.7-0.5,0.6-4,2.4-4.9c8.7-4,2.8-5.3-1.2-7.1c-1.4-0.6-1.9-1.9-1.3-3.4c1-2.4,0.7-5.3,2.6-7.4c2.2,1.7,4.3,3.5,6.6,5.2
		c1.2,0.9,1.4,2,1.2,3.4c-1.3,10.1-2.5,20.2-3.6,30.4c-0.2,2.1-1,3-3.1,2.9c-2.7-0.1-5.2,0.2-5.8,3.3c-0.7,3,1.8,5.4,3.8,5.7
		c5.8,1.1,5.1,5,5,9c0,2,0,4,0,6c0,1.7,0,3.3,0,5c0,2,0,4,0,6c-4.3,1.4-4.6,6-7,8.9C430.6,624.3,433.9,626.6,435.1,628.9z"/>
	<path class="st12" d="M486.1,780.9c-8.1-6.7-15.2-14.3-21.1-23c8.9-4,9.1-4.1,12.7,4.6C480.3,768.7,484.4,774.2,486.1,780.9z"/>
	<path class="st0" d="M456.1,608c5.9,0.3,7.4,5.2,9.5,9.3c0.6,1,0.7,2.3-0.3,3.2c-0.9,0.7-1.9,0.3-2.7-0.5c-1.9-1.9-3.7-0.2-5.6,0
		C456.1,616,455.8,612,456.1,608z"/>
	<path class="st9" d="M442,613c0-2,0-4,0-6c3.8-0.2,5.4,2.9,7.4,5.2c1.1,1.3,1,3.2-0.1,4.7c-1.3,1.8-2.7,0.2-4-0.2
		c-0.8-0.2-1.6-0.5-2.4-0.7C441.9,615.2,442.1,614.1,442,613z"/>
	<path class="st0" d="M442,613c0.1,1.1-0.1,2.3,1,3c0,6.1,0,6.1-8,5.9C437.4,619,437.7,614.4,442,613z"/>
	<path class="st9" d="M457.1,624c0.3,0.3,0.7,0.6,1,0.9c-0.7,1-1.8,1.7-2.5,0.3C455.1,624.2,456.4,624.1,457.1,624z"/>
	<path class="st9" d="M466,625.2c0.8-0.2,1.6,0,2,0.8C466.7,627.5,466.3,626.5,466,625.2z"/>
	<path class="st3" d="M310,250.9c2,5.2,2,5.2-3.8,5.2c-7.7,0-15.5,0.3-23.1-1c-0.4-3.6,0.9-5.2,4.7-5
		C295.2,250.6,302.7,249.1,310,250.9z"/>
	<path class="st3" d="M328.3,256.9c-2.7-1.5-5.9-0.4-9.3-1.5c1.9-1.7,4.8-2.3,4-5.2C328.8,250,328.8,250,328.3,256.9z"/>
	<path class="st4" d="M340,250.1c-0.6,0.3-1.3,0.7-1.9,1c-1-0.7-2.7-1.4-1.1-2.7C338.3,247.5,339.8,248.1,340,250.1z"/>
	<path class="st13" d="M490,430c-3,1.2-6.5,0.5-9,3.3c-1.3,1.5-2.2-1.4-3.9-0.8c-2.5,0.9-6,0.5-4.2,5.1c0.5,1.3,0.1,2.9,0.2,4.4
		c-2.6,0.4-5.1-1-7.7-0.1c-1.5,0.5-2.5-0.8-3-2c-2.5-5.2-4.9-10.5-7.4-15.8c0.8-0.2,2,0,2.4-0.5c3.8-4.6,7.3-3,10.8,0.4
		c0.4,0.6,0.9,1,1.5,0.4c0.6-0.6,0.1-1.1-0.4-1.5c0.3-1,0.7-2,1-3c7.6,1,13.9,4.7,20,9C490,429.4,490,429.7,490,430z"/>
	<path class="st10" d="M448.1,389.1c1.9-0.1,2.1,2.5,3.9,2.6c1.4-6.6,7.8-9.6,15.3-6c2.5,1.2,6.3-1.4,7.3,2.1c0.9,3.1-3.7,3.3-4.4,6
		c-0.4,1.5-0.8,2.9-2.6,3.3c-0.4,0.1-0.8,0.5-1.1,0.8c4,5-2.8,5-3.6,7.8c-0.3,1.2-1.2,2.3-1.8,3.4c-1.8-0.7-2.7-2.8-4.9-3
		c-4.3-0.4-7.8-1.8-8.1-7c-0.3-3.3-0.6-6.6-0.9-9.9C447.4,389.1,447.8,389.1,448.1,389.1z"/>
	<path class="st13" d="M440,529.8c0.4-3.7,3.5-5.3,5.9-7.5c2.2-2,3.2-4-0.4-5.6c-2.5-1.1-3.1-2.8-1.5-5.1c0.3-0.4,0.9-1,0.7-1.2
		c-4.4-8.3,4-10,7.3-14.3c0.3-0.4,0.7-0.7,1-1.1c6.8,5.3,6.8,5.3,3.9,12.9c-2.5,6.7-5.7,13.3-7,20.5c-0.4,2-1.6,3-3.6,2.1
		C444.2,529.7,442.1,530.1,440,529.8z"/>
	<path class="st12" d="M453,460c2.4,0.3,4.7,0.7,7.1,1c4.4,5.3,7.6,11.6,12.7,16.3c0.8,0.7,1.4,1.6,0.6,2.6
		c-3.1,3.9-6.2,7.7-9.4,11.4c-0.6,0.7-1.5,0.4-2-0.4c0.1-2-0.4-4.1,0.3-5.9c1.3-3.6,0.7-5.7-2.9-7.5c-3.1-1.6-3.7-5.6-4.1-8.5
		C454.9,465.8,454.2,462.9,453,460z"/>
	<path class="st8" d="M448.1,399c0.3,5.1,3.8,6.6,8.1,7c2.2,0.2,3.1,2.3,4.9,3c0.8,5.5-2.4,7.4-7.1,8c0.2-1.7-0.4-2.9-2.1-3.4
		c-1.9-0.5-1.7,1-2,2c-0.5,1.6-1.6,1.5-2.8,1c-1.3-0.6-3.3-1.3-2.9-3C445.5,408.7,444,403.1,448.1,399z"/>
	<path class="st10" d="M444.1,444.2c-0.7-3-1-6-2.5-8.9c-1.3-2.4-1.7-5.6,2.6-6.4c1.7,3.2,3.3,6.4,5,9.5c1.1,2.1,0.6,3.4-1.5,4.2
		C446.5,443.1,445.3,443.7,444.1,444.2z"/>
	<path class="st13" d="M478,448c0.2,0,0.4,0,0.5,0.1c1.5,2.4-0.2,10.7-2.5,12.9c-1-1.1-1.9-2.2-2.9-3.3c-3.3-4-3.2-4.4,1.6-5.8
		C476.7,451.3,477.8,450,478,448z"/>
	<path class="st12" d="M458.9,558c1.3,0,1.9-1,2.7-1.9c1.1-1.3,2.7-1.8,3.8-0.5c1.3,1.5-0.7,2-1.3,3c-1.6,2.8-2.7,6.1-7,5.3
		C456.7,561.7,458.1,560,458.9,558z"/>
	<path class="st0" d="M456,597c1.4,1.3,1.4,2.7,0,4C454.7,599.7,454.7,598.3,456,597z"/>
	<path class="st8" d="M453.1,420c1.2,0.8,1,1.9,0.9,3.1C451.9,422.6,451.4,421.6,453.1,420z"/>
	<path class="st13" d="M451.9,493.1c-1.2-0.3-2.4-0.6-0.9-2.1C451.8,491.5,452,492.2,451.9,493.1z"/>
	<path class="st13" d="M717.9,666c-3.2-0.2-3.9,1.1-3.2,4.3c0.9,3.9,0.2,7.4-5.9,7.1c5.1-6,2.5-10.3-2.5-14.2c-1.4-1-2.1-2.9-3-4.5
		c-0.8-1.4-1.8-2.1-3.2-1.5c-2.1,0.8-3.6,0.2-5.5-0.6c-3.1-1.3-5.7,1.1-6.8,3.6c-1.3,2.8,1.6,3.3,3.6,4.1c0.9,0.3,1.9,0.8,2.7,1.3
		c1,0.6,2.9,0.2,2.8,2.2c-0.1,1-1,1.3-1.7,1.7c-1.3,0.8-3,0.7-3.6-0.6c-2.2-4.7-7-4.5-10.8-6c-0.5-0.2-0.9-0.5-1.4-0.5
		c-2.2-0.3-4.8,3.4-6.3,0.7c-2-3.8-4.8-7.5-5-12.1c-0.1-1,0.1-2.1-0.4-2.9c-0.6-1.2-1.8-2.1-3.3-1.5c-1.5,0.7-1.9,2.4-0.8,3.3
		c4,3.3,1.6,8.5,3.9,12.5c1.1,1.8-2.3,5-4.1,7.2c-0.8,1-2.1,0.1-2.3-1.4c-0.2-1.6-0.2-3.3-0.5-4.9c-1.3-5.7-3.7-7.6-9.4-6.6
		c-2.2,0.4-3.9,0-4.5-1.8c-0.7-1.9-0.1-4.3,1.8-5.2c3.1-1.6,4.5-3.4,4.9-7.2c0.5-4.5,10.4-7,13.7-3.9c3.1,3,6.7,3.7,10.8,2.4
		c1.9-0.6,3.2-1.8,3.1-4c-0.1-2.1-1.9-2.7-3.6-2.8c-2.8-0.2-5.7-0.1-8.5-0.1c-1.4,0-2.9-0.1-2.5-2.1c0.3-1.6,1.6-1.9,3.1-1.3
		c3.9,1.7,7.8,0,11.7,0.3c0.8,0.1,1.8,0.2,2.2-0.7c0.6-1.2-0.5-1.8-1.1-2.5c-4.6-4.9-12.1-4.3-17.3,1.5c-2.8,3.1-5.5,5.9-10,2.7
		c0-0.7,0.1-1.3,0.1-2c2.1-0.5,2.5-1.5,0.9-3c0-6.3,0-12.7,0-19c0.8-0.1,1.8-0.2,1.6-1.3c-0.2-1.3-1.4-1.6-2.6-1.7
		c-1.6-2.8-0.8-6-1.1-8.9c1.4,0.2,2.8-1.7,4.2-0.2c1.8,1.9-0.7,2.9-1.1,4.3c-0.4,1.3-1.2,3.3,1,2.7c6.1-1.6,6.7,2.7,7.9,8
		c1.4-3.5,2.2-5.9,4.7-7.2c2.5-1.3,1.2-3.4,0-5.1c-0.7-0.9-2.1-1.7-0.9-2.8c0.9-0.8,3.3-1.5,3.5-1.3c1.7,2.7,7.7,1.2,6.3,7.2
		c-0.5,2.4,0.7,5.4-0.5,8.1c-0.5,1.1-1.5,2.8-2.1,2.5c-5.2-2.2-7.7,3.7-12.1,3.7c-1.9,0-2.8,1.7-4.1,2.6c-1.3,0.8-2.1,1.8-1.1,3.2
		c0.9,1.3,1.9,2.4,3.7,1.9c0.8-0.2,1.8-0.5,2.2-1.1c4.2-5.6,11-6.6,16.8-9.3c2-0.9,2.2-2,2.1-4.3c-0.3-4-2.8-9.2,4.1-10.8
		c1-0.2,2.4-3,0.7-3.6c-3.3-1.2-3.6-2.8-2.4-5.6c0.4-1-0.2-1.9-1-2.6c-1.2-0.9-3.1-1.4-2.4-3.3c0.8-1.9,3.1-1.5,4.8-1.8
		c1.2-0.2,2.6,0.4,3.9,0.6c1.6,1.7,2.6,3.7,3,6c-1.5,1.6-0.2,1.8,1,2c4.6,9,8.3,18.3,11,28c-1.5,1.6-0.3,1.8,1,2
		c4.4,13.9,8.2,28,9.1,42.7C717.1,663.8,717.6,664.9,717.9,666z M695.7,604.7c-1.1-1.4-1.4-3.5-3.7-3.6c-1.7-0.1-2.8,0.8-2.9,2.6
		c-0.1,1.6,0.4,3.3,2.4,2.8C692.8,606.2,694.9,606.7,695.7,604.7z"/>
	<path class="st9" d="M653.9,596c0.3,3-0.5,6.1,1.1,8.9c0,1.1-0.2,2.3,1,3c0,6.3,0,12.7,0,19c-1.1,0.8-0.9,1.9-0.9,3
		c0,0.7-0.1,1.3-0.1,2c-1.7,2.8-2.2,6.1-3.7,9.1c-9.3,18.4-25.5,16.6-36.8,3.6c-10.9-12.5-14.8-28-17.6-43.9
		c-0.1-0.6-0.6-1.1-0.9-1.7c0-0.7,0-1.3,0-2c0.3-1,0.7-2,1-3c5.4-2.7,8.1-1.7,11.4,5c4.3,8.8,8.3,17.7,12.4,26.6
		c2,4.5,5.2,8,8.7,11.4c2.9,2.8,5.3,2.4,7.3-0.8c5.6-9,6.4-18.9,5.7-29.1c-0.7-9-3.1-18-0.5-27.1c3.9-0.6,5.5,1.9,7,4.9
		C650.8,588.5,650.8,593,653.9,596z"/>
	<path class="st13" d="M682.1,575.7c-1.8,3.7-3.7,8.1-5.9,12.2c-0.8,1.5-2.9,1.5-4.1,0.7c-1.9-1.3,0.3-2,0.9-2.9
		c1.8-2.7-0.2-4.2-2.2-3.6c-4,1-5.8-3.6-9.9-3.1c-2,0.3,0.5-3.8,0.2-6c-0.2-1.7,1-1.8,2.7-1.8c5.3,0.2,10.6,0.1,16,0.2
		C682.3,571.5,681.8,573.5,682.1,575.7z"/>
	<path class="st13" d="M667.8,598.6c-0.4,2-1.6,2.4-3,2.3c-2-0.2-3.4-1.4-3.6-3.4c-0.1-1.5,0.9-2.5,2.5-2.3
		C665.8,595.5,666.7,597.3,667.8,598.6z"/>
	<path class="st13" d="M674,563.5c0.9,2,1.8,3.8-0.3,5.2c-0.7,0.5-1.9,0.3-2.2-0.4C670.4,565.9,673,565.1,674,563.5z"/>
	<path class="st0" d="M429.9,606c2.3-0.1,4.7,0.6,4.6,3c-0.1,2.1-1.6,4.2-4.5,4C430,610.7,430,608.3,429.9,606z"/>
	<path class="st3" d="M661.9,436.9c0.1,1.4-0.5,2-1.8,2.1C660,437.8,660.6,437.1,661.9,436.9z"/>
	<path class="st6" d="M635.6,430.8c-0.1,0.3-0.2,0.6-0.4,0.8c-0.3-0.1-0.7-0.2-0.8-0.4c-0.1-0.2,0.2-0.5,0.3-0.8
		C635,430.5,635.3,430.6,635.6,430.8z"/>
	<path class="st10" d="M707.9,620c-1.2-0.2-2.5-0.5-1-2C707.8,618.4,708,619.2,707.9,620z"/>
	<path class="st10" d="M696,590c-1.3-0.2-2.5-0.4-1-2C695.8,588.4,696,589.2,696,590z"/>
	<path class="st5" d="M423.2,394.1c0-1-0.1-2.1-0.1-3.1c2.5-0.3,4.9,0.6,7.3,1.1c1.2,0.2,2.4,0.7,2.4,2.1c0,2.6-2.7,1.9-4,2.9
		c-0.9,0.7-2.3,1.3-2.6-0.6C425.9,394.6,425,393.9,423.2,394.1z"/>
	<path class="st6" d="M440.9,353c-0.4,2.8-0.1,5.7-3.1,7.6c-1.5,0.9-0.5,3.1-1,4.6c-0.3-0.1-0.7-0.2-0.9-0.4c-5-6.3-5-6.3,2.6-10.2
		C439.3,354.1,440.1,353.5,440.9,353z"/>
	<path class="st6" d="M629.6,484.7c-0.1,0.3-0.2,0.7-0.4,0.8c-0.2,0.1-0.5-0.2-0.8-0.3c0.1-0.3,0.2-0.7,0.4-0.8
		C629,484.3,629.3,484.6,629.6,484.7z"/>
	<path class="st0" d="M575.1,617c-1.5-3.9-2.2-7.9-2-12c5.7-0.3,3.5,4.8,4.7,7.4C578.7,614.4,578,616.7,575.1,617z"/>
	<path class="st0" d="M698.5,683.6c-1.3,1.8-2.8,4-5.3,5.1c-0.7,0.3-2-0.8-1.8-1.3c1.3-3,2.8-5.8,4.4-8.6c0.3-0.6,1.4-0.7,1.6-0.1
		C698,680.1,698.1,681.6,698.5,683.6z"/>
	<path class="st0" d="M624.9,666.8c-0.1,1.7-0.6,3-1.9,2.8c-2.3-0.4-4.6-1.5-4.8-4.2c-0.1-1.7,0.7-4.2,2.8-4
		C623.9,661.8,623.5,665.3,624.9,666.8z"/>
	<path class="st0" d="M706.2,687c1.4,1.2,5.5-0.1,5.2,2.6c-0.3,2.7-4.2,1-6.5,2c-1,0.4-2.8-0.5-2.8-2.1
		C702.3,687.2,704.1,687,706.2,687z"/>
	<path class="st0" d="M653.9,678.9c0,0.9-0.2,1.7-1.2,1.8c-1,0.1-1.5-0.5-1.5-1.4c0-0.9,0.5-1.6,1.4-1.8
		C653.6,677.2,653.9,678,653.9,678.9z"/>
	<path class="st0" d="M614.8,667c-0.6,0.3-0.9,0.7-1.3,0.7c-0.7,0-1.2-0.4-1-1.1c0.1-0.3,0.8-0.5,1.2-0.5
		C614,666.2,614.3,666.7,614.8,667z"/>
	<path class="st12" d="M528,618c1-0.2,2-0.3,2.9-0.5c5.1-1.2,6.1-0.4,5.7,5.3c2.3-1.6,5.5-1.4,5.5-5.4c0-2,1.8-1.2,2.4-0.2
		c2.6,3.9,6.8,5.6,10.1,8.5c2.4,2.1,4.5,2.3,7.2,2.2c0,6.1,0.1,12.4-2.9,17.9c-3.5,6.3-7.7,6.9-12.7,1.8
		C537.9,639.2,531.7,629.4,528,618z"/>
	<path class="st12" d="M561.9,625c-1.9,0.1-3.6-0.7-5-1.8c-2.9-2.3-4.1-4.7-0.8-7.8c1.2-1.1,3.2-2.5,0.9-4.4c-1.5-1.3-3.1-2.8-5-0.4
		c-0.8,0.9-1.9,1.8-3,0.6c-2.2-2.3-4.9-3.6-7.6-5.2c-3.8-2.3-4.9-8.2-3.1-12.2c0.9-1.9,2.2-1.6,3.7-1c1.7,0.6,5.1-0.4,4.5,2.4
		c-0.9,4.4,1.8,3.9,4.3,5.3c2.6,1.4,4,2.9,6.4,0.2c0.5-0.6,1.9-0.4,2.8-0.6c1.5,1.3,1,3.1,0.9,4.7
		C560.6,611.5,561.6,618.2,561.9,625z"/>
	<path class="st12" d="M521.1,598c3.1,0.1,6.3,0.3,9.1-1.5c1-0.6,2.2-0.8,3.2,0.1c0.8,0.8,0.9,2.4,0.3,2.7c-6.5,2.4-3.5,10-7.6,13.7
		C524.4,608,522.7,603,521.1,598z"/>
	<path class="st12" d="M559.9,597c-1.9-0.3-3.6-1.2-3.4-3.3c0.2-1.8,2-1.7,3.5-1.8C559.9,593.6,559.9,595.3,559.9,597z"/>
	<path class="st5" d="M601,377.4c0.3-0.7,0.6-1.9,1.2-2.9c1.8-2.7,2-5-0.5-7.5c-1.3-1.3-2.7-3.4-0.7-5.3c1.7-1.6,3.8-1,5.5,0.3
		c2.3,1.8,4.1,2.1,6.4-0.3c1.5-1.5,3.6-2.5,5.8-0.7c2.2,2,1.3,4.1-0.2,5.7c-2.3,2.5-1.2,4.5,0.5,6.5c0.9,1,1.8,1.9,2.6,3
		c1.5,2,1.6,4.2-0.2,5.8c-1.8,1.7-4.3,1.5-5.8-0.3c-2.8-3.3-5.2-4.7-8.5-0.5c-1,1.3-3.1,1.2-4.6,0.3
		C600.9,380.8,600.9,379.3,601,377.4z"/>
	<path class="st6" d="M533,450c-1,0.1-2.6-0.1-2.6,0.9c-0.1,5.3-3.4,3.5-5.2,2c-3.3-2.8-7.4,0-10.9-2.7c-4.8-3.7-6.5-10.6-2.3-14.8
		c2.1-2.1,3.4,0.7,4.1,1.7c1.6,2.3,3.1,3.1,5.7,1.9c1.4-0.7,2.3-1.5,1.9-3c-0.6-2.5-2.2-4.2-4.7-4.7c-2.6-0.5-5.3-0.7-7.9,0.2
		c-1.9,0.6-3.2-0.3-3.6-1.7c-0.6-2.3,1.5-1.6,2.6-1.7c5.4-0.6,0.7-4.2,1.8-6c0.2,0,0.3,0,0.5,0c2.9,0.6,3.7-2,5.5-3.2
		c2-1.3,3.5,4.2,6.4,3c3.5-1.5,5.7,0.3,7.9,2.2c3.1,2.6,6.9,3,10.5,3.8c3,0.6,1.3-3.8,3.6-4.5c0.5-0.1,1-0.2,1.4-0.3
		c6.1,3.8,11.2,2.3,14.1-4c1.9,2.2,4.2,3.1,6.4,0.9c2.1-2.1,3.6-1.1,5.6-0.1c1.7,0.8,3.9,1.3,3.6,3.4c-0.4,2.6-2.6,0.8-4,0.9
		c-1.8,0.1-2.9,1.5-4.1,2.7c2.5,2.9,5.3-0.9,8.5,0.8c-3.4,2.3-4.6,7.2-10.3,4.6c-2.6-1.2-4.1,1.5-5,3.7c-0.7,2-1.4,2.8-3.8,2.2
		c-4.3-1.1-5.1,4-8.4,5.4c-3.7,1.7-6.9,4.6-10.4,6.8c-1.8,1.2-3.1-0.2-4.3-1.3C534.3,448,533.3,447.9,533,450z M558.3,429.8
		c1.2-1.3,4.6,0.4,4.6-3.1c0-1.5-1.4-2-2.5-1.5c-1.8,0.7-4.7,0.1-4.9,3.1C555.4,429.6,556.8,430,558.3,429.8z"/>
	<path class="st6" d="M562.1,417.1c0.2-4.1-1.7-7.9-0.9-12c2,0.2,4.9-0.6,2.5,3.3c-1.5,2.5-0.3,4.2,2.8,3.4c1.7-0.4,3.1-0.5,3.3,1.5
		c0.3,2-1.5,1.5-2.7,1.9C565.3,415.6,563.7,416.4,562.1,417.1z"/>
	<path class="st6" d="M539,458c-0.8,3.1-4.6,3.8-5.3,7c-0.2,1-1.4,0.7-1.9,0c-1-1.5-1.3-3.2,0.1-4.5c1.2-1.1,2.8-1.6,4.2-2.4
		C537,458,538,458,539,458z"/>
	<path class="st11" d="M548,423c-0.5,0.1-1,0.2-1.4,0.3c-2.3,0.7-0.6,5.1-3.6,4.5c-3.6-0.8-7.4-1.2-10.5-3.8
		c-2.2-1.9-4.4-3.7-7.9-2.2c-2.9,1.2-4.5-4.3-6.4-3c-1.8,1.2-2.6,3.8-5.5,3.2c-0.2,0-0.3,0-0.5,0c-1.2-0.7-2.5-1.2-4-1c-1,0-2,0-3,0
		c-0.3,0-0.7,0-1,0c-0.1-1.1,0.2-2.6-1.4-2.7c-1.7-0.1-3.6,0.7-4.1,2.2c-1,2.7-2.4,2.8-4.5,1.5c-3.5-1.9-7.6,0.9-11.1-1.9
		c-1-0.8-3.3-0.2-2.6-2.5c0.5-1.3,0-4,3.2-3c2.3,0.7,4-0.8,3-2.9c-1.6-3.5,3.9-6.2,0.6-9.5c-0.1-0.1,0.2-0.8,0.4-0.8
		c3-0.7,2.5-5.9,6.8-5.1c0.7,0.1,2.5-1.6,2.5-3.3c1.3-0.7,2.6-1.3,4-2c0.6,0.2,1.3,0.2,1.9,0.5c3.2,1.4,6.1,3.4,8.9-1.4
		c1.4-2.5,4.7-1.1,5.2,2c0.3,1.9-0.5,4.1,0.7,5.8c1.7,2.4,1.1,3.6-1.7,4.1c-2.5,0.4-3.9,1.9-4.7,4.4c3.5-0.2,3.5-0.2,4,3.4
		c0.3,1.7,1.4,2.4,2.8,2.1c5.1-1.2,10.1-2.6,13.9-6.6c0.4-0.4,0.6-1.4,0.3-1.7c-0.3-0.4-1.3-0.7-1.8-0.5c-1.1,0.3-2,1.1-3.1,1.5
		c-1.4,0.6-2.9,0.7-4.3-0.2c-1.5-1-0.6-2.4-0.3-3.6c0.6-2.8,7.7-7.1,10.6-6.3c4.5,1.2,9.1,3.2,13.5-0.5
		C547.5,403.7,545.7,413.4,548,423z M513.1,414.9c-2.8-1.4-2.3-4.8-4-6.7c-1.7-2-4.2-0.1-5.9,1.3c-0.8,0.6-1.4,2.1,0,2.3
		c3.2,0.4,4.9,3.2,7.5,4.4c0.5,0.2,1.2,0.4,1.8,0.3C512.7,416.4,512.8,415.6,513.1,414.9z"/>
	<path class="st6" d="M547,394c-4.4,3.7-8.9,1.7-13.5,0.5c-2.9-0.8-10,3.5-10.6,6.3c-0.3,1.2-1.2,2.6,0.3,3.6
		c1.3,0.9,2.9,0.8,4.3,0.2c1.1-0.4,2-1.1,3.1-1.5c0.5-0.2,1.5,0.1,1.8,0.5c0.2,0.3,0,1.3-0.3,1.7c-3.8,4-8.8,5.4-13.9,6.6
		c-1.3,0.3-2.5-0.4-2.8-2.1c-0.5-3.6-0.6-3.6-4-3.4c0.8-2.5,2.2-4,4.7-4.4c2.8-0.5,3.4-1.7,1.7-4.1c-1.3-1.8-0.4-3.9-0.7-5.8
		c-0.5-3.1-3.8-4.5-5.2-2c-2.8,4.8-5.6,2.8-8.9,1.4c-0.6-0.3-1.3-0.3-1.9-0.5c1.2-1.8,2.5-3.6,4.8-4.1c3.1,2,5.5,0,8.2-1.2
		c2.8-1.3,5.7-1.9,5.7,3.5c3.1-3.8,6.3-0.8,8.5,0.2c3.6,1.6,4.5-0.2,5.8-2.4C538.4,389.3,543.2,390.7,547,394z"/>
	<path class="st10" d="M497,393c0,1.8-1.8,3.4-2.5,3.3c-4.3-0.7-3.9,4.4-6.8,5.1c-0.2,0-0.5,0.7-0.4,0.8c3.3,3.3-2.2,6.1-0.6,9.5
		c0.9,2.1-0.8,3.6-3,2.9c-3.2-1-2.8,1.7-3.2,3c-0.8,2.3,1.6,1.7,2.6,2.5c3.5,2.8,7.6,0,11.1,1.9c-2,1.9-0.9,5.7-4,7
		c-6.1-4.3-12.4-8-20-9c0.1-0.8,0.4-1.9,1.3-1.8c5.3,0.4,5.5-4.6,7.4-7.4c1.5-2.2,0.1-4.6-3.5-4.4c0.8-1.9,3.5-1.3,3.3-3.1
		c-0.1-1.9-2.3-1.6-3.5-2.1c-1.6-0.6-3.4-1.2-3.6-3c-0.2-2,1.8-1.8,3.1-2.3c2.9-1.3,4.3-3.8,4.5-7C484.4,393.2,490.6,393.5,497,393z
		"/>
	<path class="st5" d="M499.9,366.6c-0.1,0.4-0.1,0.7-0.2,0.7c-4.9,3.8-2.5,7.4,0.1,11.2c0.8,1.2,0.8,3.1-0.6,4.1
		c-1.5,1-3.4,0.9-4.6-0.5c-2.5-2.9-4.4-3.4-6.6,0.3c-0.9,1.5-2.7,2.4-4.3,1.1c-1.4-1-1.1-2.9-0.4-4.1c2.2-3.6,3.1-6.8-0.9-9.9
		c-1-0.8-1-2.6-0.1-3.7c0.9-1.3,2.6-1.3,3.6-0.6c3.1,2.1,5.6,2.1,8.3-0.7c1.1-1.1,2.8-0.9,4.2-0.1
		C499.5,365,499.9,365.8,499.9,366.6z"/>
	<path class="st10" d="M469,423c0.6,0.4,1,0.9,0.4,1.5c-0.6,0.6-1.1,0.1-1.5-0.4C468.4,423.7,468.7,423.4,469,423z"/>
	<path class="st10" d="M594.6,549.1c-0.4-2.4-3.9-2.3-3.1-4.4c0.8-2.1,2.8-3.5,5.1-1.6c1.5,1.3,2.9,2.7,4.2,4.2
		c2.2,2.5,4.2,3.5,6.9,0.5c1.9-2.1,10.5-0.2,11.7,2.3c0.7,1.4,0.5,2.8-1,3.3c-2.2,0.8-2.9,1.8-1.7,4c1.7,3.1,2,6.9-0.6,9.1
		c-2.2,1.9-8.6-2.4-9.7-6c-1.6-4.9-6-7.2-10.8-5.2c-1.1,0.4-2.2,2.4-3.2,0.7c-1-1.8-2.6-3.7-2.1-5.9
		C590.9,547.7,593.3,550.5,594.6,549.1z"/>
	<path class="st12" d="M597,594c-0.3,1-0.7,2-1,3c-1-0.1-2.1-0.4-1.8-1.7C594.5,593.7,595.9,594.1,597,594z"/>
	<path class="st12" d="M550.2,617c-0.3-0.4-0.7-0.8-0.7-1.1c0.1-0.3,0.6-0.7,0.9-0.7c0.7-0.1,1.2,0.4,1,1.1
		C551.4,616.6,550.8,616.7,550.2,617z"/>
	<path class="st10" d="M616.6,542.7c-0.1,0.3-0.2,0.7-0.4,0.8c-0.2,0.1-0.5-0.2-0.8-0.3c0.1-0.3,0.2-0.7,0.4-0.8
		C616,542.3,616.3,542.6,616.6,542.7z"/>
	<path class="st6" d="M490,429c3.1-1.3,2-5.1,4-7c2.1,1.3,3.5,1.2,4.5-1.5c0.6-1.6,2.4-2.3,4.1-2.2c1.6,0.1,1.3,1.6,1.4,2.7
		c-1,0.2-2,0.4-1.8,1.8c0.1,0.8,0.8,1.1,1.4,1c1.6-0.3,1.2-1.7,1.3-2.8c1,0,2,0,3,0c-0.5,5.7-3.2,7.4-7.8,4.7
		c-1.1-0.6-2.2-1-3.2-0.4c-1.3,0.8-0.8,2-0.1,3c1.4,1.9,0.7,2.6-1.4,2.7c-0.8,0-1.7,0.1-2.2,0.9c-0.5,1-0.9,2.5-2.4,1.7
		c-1.4-0.7-0.8-2.3-0.9-3.6C490,429.7,490,429.4,490,429z"/>
	<path class="st13" d="M495.2,468.1c-1.7,3.4-3.3,5.4-6.7,4.8c-1.2-0.2-1.8-1.5-1.3-2.2C489,467.9,492,469,495.2,468.1z"/>
	<path class="st10" d="M695.7,604.7c-0.8,2-2.9,1.5-4.2,1.9c-1.9,0.5-2.4-1.2-2.4-2.8c0.1-1.8,1.2-2.7,2.9-2.6
		C694.3,601.2,694.6,603.3,695.7,604.7z"/>
	<path class="st12" d="M656,608c-1.1-0.7-0.9-1.9-1-3c1.2,0.1,2.3,0.4,2.6,1.7C657.8,607.8,656.7,607.8,656,608z"/>
	<path class="st12" d="M655.1,630c0-1.1-0.2-2.2,0.9-3C657.6,628.5,657.2,629.5,655.1,630z"/>
	<path class="st11" d="M558.3,429.8c-1.5,0.2-2.9-0.3-2.8-1.5c0.2-3,3.1-2.4,4.9-3.1c1.1-0.5,2.5,0,2.5,1.5
		C562.9,430.2,559.5,428.5,558.3,429.8z"/>
	<path class="st6" d="M513.1,414.9c-0.3,0.8-0.4,1.5-0.6,1.6c-0.6,0.1-1.2-0.1-1.8-0.3c-2.6-1.2-4.3-3.9-7.5-4.4
		c-1.4-0.2-0.7-1.7,0-2.3c1.8-1.4,4.2-3.3,5.9-1.3C510.7,410,510.3,413.4,513.1,414.9z"/>
	<path class="st10" d="M505,421c-0.1,1.1,0.3,2.5-1.3,2.8c-0.7,0.1-1.3-0.2-1.4-1c-0.2-1.4,0.8-1.6,1.8-1.8
		C504.4,421,504.7,421,505,421z"/>
</g>
</svg>
