<?xml version="1.0" encoding="utf-8"?>
<!-- Generator: Adobe Illustrator 24.1.1, SVG Export Plug-In . SVG Version: 6.00 Build 0)  -->
<svg version="1.1" id="Capa_1" xmlns="http://www.w3.org/2000/svg" xmlns:xlink="http://www.w3.org/1999/xlink" x="0px" y="0px"
	 viewBox="0 0 90 121" style="enable-background:new 0 0 90 121;" xml:space="preserve">
<style type="text/css">
	.st0{fill:#F6C000;}
	.st1{fill:#8296AA;}
	.st2{fill:#F9D567;}
	.st3{fill:#748598;}
	.st4{fill:#F5AF00;}
</style>
<g>
	<path class="st0" d="M78.5,48.5c0,11.2-5.8,21.6-15.2,27.5l-3.9,14.5H32.6L28.8,76C13.6,66.5,9,46.4,18.5,31.2s29.6-19.8,44.8-10.3
		C72.8,26.9,78.5,37.3,78.5,48.5z"/>
	<path class="st1" d="M32.6,90.5h26.8v19.1H32.6V90.5z"/>
	<g>
		<path class="st2" d="M44.1,4.5h3.8v5.7h-3.8V4.5z"/>
		<path class="st2" d="M13.6,18.7l2.7-2.7l4.1,4.1l-2.7,2.7L13.6,18.7z"/>
		<path class="st2" d="M2.1,46.6h5.7v3.8H2.1V46.6z"/>
		<path class="st2" d="M13.6,78.2l4.1-4.1l2.7,2.7l-4.1,4.1L13.6,78.2z"/>
		<path class="st2" d="M71.7,76.9l2.7-2.7l4.1,4.1l-2.7,2.7L71.7,76.9z"/>
		<path class="st2" d="M84.3,46.6H90v3.8h-5.7V46.6z"/>
		<path class="st2" d="M71.7,20.1l4.1-4.1l2.7,2.7l-4.1,4.1L71.7,20.1z"/>
	</g>
	<path class="st3" d="M32.6,109.6l5.7,7.6h15.3l5.7-7.6H32.6z"/>
	<path class="st2" d="M57.5,52.3c-0.7,0.7-2,0.7-2.7,0c0,0,0,0,0,0l-3-3l-4.4,4.4c-0.7,0.7-2,0.7-2.7,0l-4.4-4.4L36.6,53l5.6,37.6
		h-3.9l-5.7-37.9c-0.1-0.6,0.1-1.2,0.5-1.6l5.7-5.7c0.7-0.7,2-0.7,2.7,0l4.4,4.4l4.4-4.4c0.7-0.7,2-0.7,2.7,0l4.4,4.4
		C58.2,50.3,58.3,51.5,57.5,52.3C57.5,52.3,57.5,52.3,57.5,52.3L57.5,52.3z"/>
	<path class="st4" d="M63.3,76l-3.9,14.5H46V81C52.1,81,58.1,79.3,63.3,76z"/>
	<g>
		<path class="st3" d="M59.4,90.5v2l-26.8,9.6v-4.1l21.1-7.5L59.4,90.5z"/>
		<path class="st3" d="M59.4,98.1v4.1l-21.1,7.5h-5.7v-2L59.4,98.1z"/>
	</g>
</g>
</svg>
