<?xml version="1.0" encoding="utf-8"?>
<!-- Generator: Adobe Illustrator 24.1.1, SVG Export Plug-In . SVG Version: 6.00 Build 0)  -->
<svg version="1.1" id="Capa_1" xmlns="http://www.w3.org/2000/svg" xmlns:xlink="http://www.w3.org/1999/xlink" x="0px" y="0px"
	 viewBox="0 0 104 105" style="enable-background:new 0 0 104 105;" xml:space="preserve">
<style type="text/css">
	.st0{fill:#F9D5A3;}
	.st1{fill:#F2C586;}
	.st2{fill:#ECB470;}
	.st3{fill:#E8B47F;}
</style>
<g>
	<path class="st0" d="M9.1,53.4l30.3,30.3L84,39.1L53.7,8.8C41.4-3.5,21.4-3.5,9.1,8.8l0,0C-3.2,21.1-3.2,41.1,9.1,53.4z"/>
	<path class="st1" d="M13.3,68l23.2-23.2c3.1-3.1,3.1-8.1,0-11.1l0,0c-3.1-3.1-8.1-3.1-11.1,0L2.2,56.9c-3.1,3.1-3.1,8.1,0,11.1l0,0
		C5.3,71.1,10.3,71.1,13.3,68z"/>
	<path class="st1" d="M18.9,84.8L47.7,56c3.1-3.1,3.1-8.1,0-11.1l0,0c-3.1-3.1-8.1-3.1-11.1,0L7.7,73.6c-3.1,3.1-3.1,8.1,0,11.1l0,0
		C10.8,87.8,15.8,87.8,18.9,84.8z"/>
	<path class="st2" d="M30,95.9l23-23c3.1-3.1,3.1-8.1,0-11.1l0,0c-3.1-3.1-8.1-3.1-11.1,0l-23,23c-3.1,3.1-3.1,8.1,0,11.1l0,0
		C22,99,27,99,30,95.9z"/>
	<path class="st2" d="M46.8,101.5L65,83.2c3.1-3.1,3.1-8.1,0-11.1l0,0C62,69,57,69,53.9,72.1L35.6,90.3c-3.1,3.1-3.1,8.1,0,11.1l0,0
		C38.7,104.5,43.7,104.5,46.8,101.5z"/>
	<path class="st3" d="M11.1,89.6"/>
	<g>
		<path class="st1" d="M94.9,8.8L94.9,8.8C82.6-3.5,62.6-3.5,50.3,8.8L20,39.1l22.2,22.2L94.9,8.8C94.9,8.8,94.9,8.8,94.9,8.8z"/>
		<path class="st2" d="M94.9,8.8L42.2,61.3l22.4,22.4l30.3-30.3C107.2,41.1,107.2,21.1,94.9,8.8z"/>
	</g>
	<path class="st1" d="M90.7,68l-16-16c-3.1-3.1-3.1-8.1,0-11.1l0,0c3.1-3.1,8.1-3.1,11.1,0l16,16c3.1,3.1,3.1,8.1,0,11.1l0,0
		C98.7,71.1,93.7,71.1,90.7,68z"/>
	<path class="st1" d="M82,81.6L63.5,63.2c-3.1-3.1-3.1-8.1,0-11.1l0,0c3.1-3.1,8.1-3.1,11.1,0l18.5,18.5c3.1,3.1,3.1,8.1,0,11.1l0,0
		C90.1,84.7,85.1,84.7,82,81.6z"/>
	<path class="st1" d="M70.8,92.8L52.4,74.3c-3.1-3.1-3.1-8.1,0-11.1l0,0c3.1-3.1,8.1-3.1,11.1,0L82,81.6c3.1,3.1,3.1,8.1,0,11.1l0,0
		C78.9,95.9,73.9,95.9,70.8,92.8z"/>
	<path class="st1" d="M57.2,101.5l-16-16c-3.1-3.1-3.1-8.1,0-11.1l0,0c3.1-3.1,8.1-3.1,11.1,0l16,16c3.1,3.1,3.1,8.1,0,11.1l0,0
		C65.3,104.5,60.3,104.5,57.2,101.5z"/>
	<path class="st0" d="M55.1,32.5L42.2,19.6c-3.1-3.1-3.1-8.1,0-11.1l0,0c3.1-3.1,8.1-3.1,11.1,0l12.9,12.9c3.1,3.1,3.1,8.1,0,11.1
		l0,0C63.2,35.6,58.2,35.6,55.1,32.5z"/>
</g>
</svg>
