<?xml version="1.0" encoding="utf-8"?>
<!-- Generator: Adobe Illustrator 24.1.1, SVG Export Plug-In . SVG Version: 6.00 Build 0)  -->
<svg version="1.1" id="Capa_1" xmlns="http://www.w3.org/2000/svg" xmlns:xlink="http://www.w3.org/1999/xlink" x="0px" y="0px"
	 viewBox="0 0 192 137" style="enable-background:new 0 0 192 137;" xml:space="preserve">
<style type="text/css">
	.st0{fill:#655E66;}
	.st1{fill:#464247;}
	.st2{fill:#EBCD9F;}
	.st3{fill:#E8B47F;}
	.st4{fill:#D48D7B;}
	.st5{fill:#ED9E88;}
	.st6{fill:#87B2FF;}
	.st7{fill:#5F8DFD;}
	.st8{fill:none;stroke:#CA3C4F;stroke-width:4;stroke-linecap:round;stroke-miterlimit:10;}
</style>
<g>
	<g>
		<path class="st0" d="M98.4,50.1c0-27.6-22.1-50-49.3-50s-49.3,22.4-49.3,50s22.1,29.7,49.3,29.7S98.4,77.7,98.4,50.1L98.4,50.1z"
			/>
		<path class="st1" d="M48.4,79.8c-26.9,0-48.7-2.3-48.7-29.7c0-27.6,22.1-50,49.3-50C35.2,0.2,24,22.5,24,50.1
			C24,77.3,34.9,79.8,48.4,79.8L48.4,79.8z"/>
		<path class="st2" d="M84.5,68.4C84,78.6,75.8,86.7,65.6,87.2c-8.7,0.4-17.5,0.5-26.2,0.2h0c-2.2-0.1-4.4-0.1-6.7-0.2
			c-10.2-0.5-18.4-8.6-18.9-18.8c-0.4-7.5-0.4-15-0.1-22.5v0c0.1-2.3,0.2-4.7,0.4-7c1.6-7.7,7.9-18.1,16.8-21.9
			c0.3-0.1,0.5-0.2,0.8-0.3c3.6-1.5,7.5-2.5,11.8-3c1.8-0.2,3.7-0.3,5.7-0.3c4.3,0,8.4,0.6,12.2,1.6v0c11.9,3.2,20.9,14.7,22.8,24
			c0,0,0,0,0,0C84.9,48.8,85,58.6,84.5,68.4L84.5,68.4z"/>
		<path class="st3" d="M39.4,87.5L39.4,87.5c-2.2-0.1-4.5-0.1-6.7-0.2c-10.2-0.5-18.4-8.6-18.9-18.8c-0.5-9.8-0.4-19.6,0.3-29.5
			c1.6-7.7,7.9-14.2,16.8-18.1c0.3-0.1,0.5-0.2,0.8-0.3c-0.6,14.8-0.7,36.2-0.4,48.3C31.5,78.1,34.9,85.7,39.4,87.5L39.4,87.5z"/>
		<path class="st0" d="M61.4,18.8L61.4,18.8c-5.9,10.1-20,23.3-25.6,20.2c-2.1-1.2-1.8-3.5-0.6-6.1c-0.2,0.3-3.8,6.6-8.8,10.7
			c-3.8,3.2-8.3,5.2-12.7,2.4v0c0.1-2.3,0.2-4.7,0.4-7c1.6-7.7,7.9-14.2,16.8-18.1c0.3-0.1,0.5-0.2,0.8-0.3c3.6-1.5,7.5-2.5,11.8-3
			c1.8-0.2,3.7-0.3,5.7-0.3C53.5,17.2,57.6,17.8,61.4,18.8L61.4,18.8z"/>
		<path class="st1" d="M26.4,43.6c-3.8,3.2-8.3,5.2-12.7,2.4v0c0.1-2.3,0.2-4.7,0.4-7c1.6-7.7,7.9-14.2,16.8-18.1
			c0.3-0.1,0.5-0.2,0.8-0.3c3.6-1.5,7.5-2.5,11.8-3c1.8-0.2,3.7-0.3,5.7-0.3C36.8,21.5,11.4,43.6,26.4,43.6L26.4,43.6z"/>
		<g>
			<path class="st1" d="M32.7,46.9c-1.8,0-3.2,2.1-3.2,4.8s1.4,4.8,3.2,4.8c1.8,0,3.2-2.1,3.2-4.8S34.4,46.9,32.7,46.9z"/>
			<path class="st1" d="M65.7,46.9c-1.8,0-3.2,2.1-3.2,4.8s1.4,4.8,3.2,4.8c1.8,0,3.2-2.1,3.2-4.8S67.4,46.9,65.7,46.9z"/>
		</g>
		<g>
			<ellipse class="st4" cx="27.1" cy="63.2" rx="6" ry="3.8"/>
			<ellipse class="st5" cx="71.2" cy="63.2" rx="6" ry="3.8"/>
		</g>
		<path class="st6" d="M84.6,35.7c0,1.2-0.1,2.4-0.3,3.6c-2.4-12.5-17.2-22.1-35.1-22.1c-1.9,0-3.8,0.1-5.7,0.3
			c-4,0.5-7.7,1.4-11.1,2.7c-0.5,0.2-1,0.4-1.5,0.6c-9,3.9-15.3,10.6-16.9,18.4c-0.2-1.2-0.3-2.4-0.3-3.6c0-9.3,6.9-17.5,17.2-22
			c1.1-0.5,2.2-0.9,3.3-1.3c2.9-1,6-1.7,9.2-2.1c1.8-0.2,3.7-0.3,5.7-0.3C68.7,10.1,84.6,21.6,84.6,35.7L84.6,35.7z"/>
		<path class="st7" d="M34.2,12.5l-1.8,7.8c-0.5,0.2-1,0.4-1.5,0.6c-9,3.9-15.3,10.6-16.9,18.4c-0.2-1.2-0.3-2.4-0.3-3.6
			c0-9.3,6.9-17.5,17.2-22C32,13.3,33.1,12.8,34.2,12.5L34.2,12.5z"/>
		<path class="st8" d="M40.9,69c5.3,4.5,10.5,4.5,15.8,0"/>
	</g>
	<g>
		<path class="st0" d="M192.2,97.3c0-27.6-22.1-50-49.3-50s-49.3,22.4-49.3,50s22.1,29.7,49.3,29.7S192.2,124.9,192.2,97.3
			L192.2,97.3z"/>
		<path class="st1" d="M142.3,127c-26.9,0-48.7-2.3-48.7-29.7c0-27.6,22.1-50,49.3-50c-13.9,0-25.1,22.4-25.1,50
			C117.8,124.4,128.7,126.9,142.3,127L142.3,127z"/>
		<path class="st2" d="M178.3,115.6c-0.5,10.2-8.7,18.3-18.9,18.8c-8.7,0.4-17.5,0.5-26.2,0.2h0c-2.2-0.1-4.4-0.1-6.7-0.2
			c-10.2-0.5-18.4-8.6-18.9-18.8c-0.4-7.5-0.4-15-0.1-22.5v0c0.1-2.3,0.2-4.7,0.4-7c1.6-7.7,7.9-18.1,16.8-21.9
			c0.3-0.1,0.5-0.2,0.8-0.3c3.6-1.5,7.5-2.5,11.8-3c1.8-0.2,3.7-0.3,5.7-0.3c4.3,0,8.4,0.6,12.2,1.6v0c11.9,3.2,20.9,14.7,22.8,24
			c0,0,0,0,0,0C178.7,95.9,178.8,105.7,178.3,115.6L178.3,115.6z"/>
		<path class="st3" d="M133.2,134.6L133.2,134.6c-2.2-0.1-4.5-0.1-6.7-0.2c-10.2-0.5-18.4-8.6-18.9-18.8c-0.5-9.8-0.4-19.6,0.3-29.5
			c1.6-7.7,7.9-14.2,16.8-18.1c0.3-0.1,0.5-0.2,0.8-0.3c-0.6,14.8-0.7,36.2-0.4,48.3C125.3,125.3,128.7,132.9,133.2,134.6
			L133.2,134.6z"/>
		<path class="st0" d="M155.2,65.9L155.2,65.9c-5.9,10.1-20,23.3-25.6,20.2c-2.1-1.2-1.8-3.5-0.6-6.1c-0.2,0.3-3.8,6.6-8.8,10.7
			c-3.8,3.2-8.3,5.2-12.7,2.4v0c0.1-2.3,0.2-4.7,0.4-7c1.6-7.7,7.9-14.2,16.8-18.1c0.3-0.1,0.5-0.2,0.8-0.3c3.6-1.5,7.5-2.5,11.8-3
			c1.8-0.2,3.7-0.3,5.7-0.3C147.3,64.3,151.4,64.9,155.2,65.9L155.2,65.9z"/>
		<path class="st1" d="M120.3,90.7c-3.8,3.2-8.3,5.2-12.7,2.4v0c0.1-2.3,0.2-4.7,0.4-7c1.6-7.7,7.9-14.2,16.8-18.1
			c0.3-0.1,0.5-0.2,0.8-0.3c3.6-1.5,7.5-2.5,11.8-3c1.8-0.2,3.7-0.3,5.7-0.3C130.7,68.6,105.3,90.7,120.3,90.7L120.3,90.7z"/>
		<g>
			<path class="st1" d="M126.5,94c-1.8,0-3.2,2.1-3.2,4.8c0,2.6,1.4,4.8,3.2,4.8c1.8,0,3.2-2.1,3.2-4.8
				C129.7,96.1,128.3,94,126.5,94z"/>
			<path class="st1" d="M159.5,94c-1.8,0-3.2,2.1-3.2,4.8c0,2.6,1.4,4.8,3.2,4.8c1.8,0,3.2-2.1,3.2-4.8
				C162.7,96.1,161.3,94,159.5,94z"/>
		</g>
		<g>
			<ellipse class="st4" cx="120.9" cy="110.4" rx="6" ry="3.8"/>
			<ellipse class="st5" cx="165.1" cy="110.4" rx="6" ry="3.8"/>
		</g>
		<path class="st6" d="M178.4,82.8c0,1.2-0.1,2.4-0.3,3.6c-2.4-12.5-17.2-22.1-35.1-22.1c-1.9,0-3.8,0.1-5.7,0.3
			c-4,0.5-7.7,1.4-11.1,2.7c-0.5,0.2-1,0.4-1.5,0.6c-9,3.9-15.3,10.6-16.9,18.4c-0.2-1.2-0.3-2.4-0.3-3.6c0-9.3,6.9-17.5,17.2-22
			c1.1-0.5,2.2-0.9,3.3-1.3c2.9-1,6-1.7,9.2-2.1c1.8-0.2,3.7-0.3,5.7-0.3C162.6,57.2,178.4,68.7,178.4,82.8L178.4,82.8z"/>
		<path class="st7" d="M128.1,59.6l-1.8,7.8c-0.5,0.2-1,0.4-1.5,0.6c-9,3.9-15.3,10.6-16.9,18.4c-0.2-1.2-0.3-2.4-0.3-3.6
			c0-9.3,6.9-17.5,17.2-22C125.8,60.4,126.9,60,128.1,59.6L128.1,59.6z"/>
		<path class="st8" d="M134.8,119.5c5.3-4.5,10.5-4.5,15.8,0"/>
	</g>
</g>
</svg>
