<?xml version="1.0" encoding="utf-8"?>
<!-- Generator: Adobe Illustrator 24.1.1, SVG Export Plug-In . SVG Version: 6.00 Build 0)  -->
<svg version="1.1" id="Capa_1" xmlns="http://www.w3.org/2000/svg" xmlns:xlink="http://www.w3.org/1999/xlink" x="0px" y="0px"
	 viewBox="0 0 90 121" style="enable-background:new 0 0 90 121;" xml:space="preserve">
<style type="text/css">
	.st0{fill:#4F5E6C;}
	.st1{fill:#364150;}
	.st2{fill:#EFC9A8;}
	.st3{fill:#DC9C78;}
	.st4{fill:#D48D7B;}
	.st5{fill:#ED9E88;}
</style>
<g>
	<path class="st0" d="M34.3,4.7h19.8c4.9,0,9.4,2.9,11.3,7.4l1.3,2.9h6c10.2,0,18.4,8.2,18.4,18.4v67.6c0,7.2-5.8,13.1-13.1,13.1H12
		c-7.2,0-13.1-5.8-13.1-13.1V40C-1,20.5,14.8,4.7,34.3,4.7z"/>
	<path class="st1" d="M72.7,15.1h-6l-1.3-2.9c-2-4.5-6.4-7.4-11.3-7.4H43.8c4.9,0,9.4,2.9,11.3,7.4l1.3,2.9h6
		c10.2,0,18.4,8.2,18.4,18.4v67.6c0,7.2-5.8,13.1-13.1,13.1H78c7.2,0,13.1-5.8,13.1-13.1V33.5C91.1,23.3,82.8,15.1,72.7,15.1z"/>
	<path class="st2" d="M90,71.8v3.8c0,4.4-3.6,8-8,8h-2.7c-1.1,20.9-20.5,35.4-39.5,32.1h0c-15.9-2.4-28.2-15.8-29-32.1H8
		c-4.4,0-8-3.6-8-8v-3.8c0-4.4,3.6-8,8-8h2.7V46.4c0-0.5,0-0.9,0-1.4c4.7,0.9,9.6,1.4,14.5,1.4c15.1,0,29.3-4.4,41.2-12
		c2.6-1.7,5.1-3.5,7.5-5.4c3.4,4.7,5.4,10.9,5.4,17.4v17.4H82C86.5,63.8,90,67.4,90,71.8z"/>
	<path class="st3" d="M82,63.8h-2.7v-7.1h0c0-11.8,0-10.9,0-11c-0.2-6.3-2.2-12.1-5.4-16.7c-2.4,2-4.9,3.8-7.5,5.4
		c1.6,3.7,2.4,7.7,2.4,12v17.4l-0.1,19.8c-0.5,9.1-4.4,17.2-10.6,23.1c-5,4.7-11.3,8-18.4,9.1c17.4,3,35-8.8,38.8-26.8l0,0
		c0,0,0,0,0,0c0.2-0.9,0.3-1.7,0.4-2.6c0,0,0-0.1,0-0.1c0-0.4,0.1-0.7,0.1-1.1c0-0.1,0-0.2,0-0.3c0-0.4,0.1-0.8,0.1-1.2h0H82
		c4.4,0,8-3.6,8-8v-3.8C90,67.4,86.5,63.8,82,63.8z"/>
	<g>
		<path class="st0" d="M45,96.2c-3.3,0-6.4-1.3-8.7-3.6c-1.2-1.2-2.1-2.5-2.7-4.1c-0.4-1.1,0.1-2.3,1.2-2.8c1.1-0.4,2.3,0.1,2.8,1.2
			c0.4,1,1,1.9,1.8,2.7c1.5,1.5,3.5,2.4,5.7,2.4c3.3,0,6.2-2,7.5-5c0.4-1.1,1.7-1.6,2.8-1.2c1.1,0.4,1.6,1.7,1.2,2.8
			C54.5,93.2,50.1,96.2,45,96.2z"/>
		<path class="st0" d="M27.8,68.9c-1.6,0-2.9-1.3-2.9-2.9v-1.7c0-1.6,1.3-2.9,2.9-2.9c1.6,0,2.9,1.3,2.9,2.9V66
			C30.7,67.6,29.4,68.9,27.8,68.9z"/>
		<path class="st0" d="M62.2,68.9c-1.6,0-2.9-1.3-2.9-2.9v-1.7c0-1.6,1.3-2.9,2.9-2.9c1.6,0,2.9,1.3,2.9,2.9V66
			C65.1,67.6,63.8,68.9,62.2,68.9z"/>
		<g>
			<ellipse class="st4" cx="25.5" cy="76.2" rx="5.5" ry="3.5"/>
			<ellipse class="st5" cx="66.1" cy="76.2" rx="5.5" ry="3.5"/>
		</g>
	</g>
</g>
</svg>
