<?xml version="1.0" encoding="utf-8"?>
<!-- Generator: Adobe Illustrator 24.1.3, SVG Export Plug-In . SVG Version: 6.00 Build 0)  -->
<svg version="1.1" id="Capa_1" xmlns="http://www.w3.org/2000/svg" xmlns:xlink="http://www.w3.org/1999/xlink" x="0px" y="0px"
	 viewBox="0 0 1118.2 240" style="enable-background:new 0 0 1118.2 240;" xml:space="preserve">
<style type="text/css">
	.st0{fill:#FFFFFF;}
	.st1{fill:#9352A2;}
	.st2{fill:#D7A4CD;}
	.st3{fill:#9655A4;}
	.st4{fill:#D39FCB;}
	.st5{fill:#D6A3CD;}
	.st6{fill:#A365AC;}
	.st7{fill:#C68FC2;}
	.st8{fill:#CB96C5;}
	.st9{fill:#A55A9B;}
	.st10{fill:#712D7B;}
	.st11{fill:#9D5EA8;}
	.st12{fill:#D19CC9;}
	.st13{fill:#AE73B3;}
	.st14{fill:#A05798;}
	.st15{fill:#A2589A;}
	.st16{fill:#9C5295;}
	.st17{fill:#A96CB0;}
	.st18{fill:#9454A3;}
	.st19{fill:#863F88;}
	.st20{fill:#C18ABF;}
	.st21{fill:#CE99C7;}
	.st22{fill:#B47BB7;}
	.st23{fill:#CB98C6;}
	.st24{fill:#A063AA;}
	.st25{fill:#C38BC0;}
	.st26{fill:#964E92;}
	.st27{fill:#A163AA;}
	.st28{fill:#B97FBA;}
	.st29{fill:#AC72B2;}
	.st30{fill:#D09ECA;}
	.st31{fill:#9C5EA8;}
	.st32{fill:#CB99C7;}
	.st33{fill:#9454A2;}
	.st34{fill:#C897C6;}
	.st35{fill:#D1A3CC;}
	.st36{fill:#C492C3;}
	.st37{fill:#CF9DC8;}
	.st38{fill:#D4A4CD;}
	.st39{fill:#BA86BD;}
	.st40{fill:#CE9EC9;}
	.st41{fill:#CAA0CA;}
	.st42{fill:#A96DB0;}
	.st43{fill:#9257A3;}
	.st44{fill:#B781BA;}
	.st45{fill:#CC9CC8;}
	.st46{fill:#D6A9CF;}
	.st47{fill:#D5A6CE;}
	.st48{fill:#B37BB7;}
	.st49{fill:#C28EC1;}
	.st50{fill:#A56CAF;}
	.st51{fill:#BE86BD;}
	.st52{fill:#9959A5;}
	.st53{fill:#9C5DA7;}
	.st54{fill:#77337E;}
	.st55{fill:#995AA6;}
	.st56{fill:#77337F;}
	.st57{fill:#CF9AC7;}
	.st58{fill:#C993C4;}
	.st59{fill:#D19BC8;}
	.st60{fill:#A062AA;}
	.st61{fill:#A568AE;}
	.st62{fill:#9F61A9;}
	.st63{fill:#9C5CA7;}
	.st64{fill:#9757A4;}
	.st65{fill:#7E3983;}
	.st66{fill:#BC84BC;}
	.st67{fill:#C28BBF;}
	.st68{fill:#78347F;}
	.st69{fill:#B87EB9;}
	.st70{fill:#AD72B3;}
	.st71{fill:#B57BB7;}
	.st72{fill:#B176B5;}
	.st73{fill:#944F93;}
	.st74{fill:#C891C2;}
	.st75{fill:#9C5FA8;}
	.st76{fill:#7C3782;}
	.st77{fill:#AF74B3;}
	.st78{fill:#AD72B2;}
	.st79{fill:#A367AC;}
	.st80{fill:#924D92;}
	.st81{fill:#6A55C1;}
	.st82{fill:#C188BE;}
	.st83{fill:#C188BD;}
	.st84{fill:#9F61AA;}
	.st85{fill:#9858A5;}
	.st86{fill:#9758A5;}
	.st87{fill:#A76AAF;}
	.st88{fill:#8E478D;}
	.st89{fill:#6855C2;}
	.st90{fill:#B57AB6;}
	.st91{fill:#AB73B9;}
	.st92{fill:#AE79B9;}
	.st93{fill:#AC70B2;}
	.st94{fill:#EA9760;}
	.st95{fill:#853F87;}
	.st96{fill:#E39464;}
	.st97{fill:#AA6EB0;}
</style>
<path class="st0" d="M1050,81.6c16.1,0.6,28.6,7.9,35.7,23.5c0.4,0.8,0.7,1.6,0.9,2.5c1.1,3.8-0.2,7.2-3.5,9.4
	c-4.9,3.3-14.2,3.1-17.9-4.5c-1-2-2.4-3.6-4.2-4.8c-3.9-2.7-8.1-4.4-12.8-4.8c-2.2-0.2-4.3,0.1-6.2,1.4c-2.2,1.6-2.6,3.7-1.1,6
	c1,1.5,2.3,2.6,3.7,3.7c4.3,3.2,8.9,5.6,13.8,7.7c9.2,3.9,16.1,10.6,21.9,18.4c3.2,4.3,5.5,8.9,6.6,14.2c2.2,10.5-2.2,21.4-11,27.5
	c-5.5,3.8-11.6,5.6-18.2,6.1c-10.4,0.8-20.2-1.2-29.4-6.2c-5.9-3.2-10.8-7.4-14.1-13.3c-1.4-2.5-2-5.2-1.3-8
	c1.4-6,8.5-10.2,14.3-8.4c2.5,0.8,4.4,2.4,5.5,4.7c3.7,7.2,14.7,11.5,23.4,9.3c1.7-0.4,3.3-1.1,4.8-2.1c3.2-2.1,4-5,2.6-8.5
	c-0.9-2.1-2.2-3.9-3.7-5.5c-4-4.3-8.6-7.8-13.8-10.6c-4.2-2.2-8.5-4.4-12.6-6.8c-3.8-2.3-7.4-4.8-10.5-8c-2.9-3-5.2-6.3-6-10.4
	c-2-9.5,0.5-17.7,8-24.1c4.6-3.9,10.1-6.1,16-7.2C1043.7,81.8,1046.5,81.7,1050,81.6z"/>
<path class="st0" d="M866.9,120c0.4,7.3,0.8,14.5,2.2,21.7c1.1,5.8,3.5,10.9,7.3,15.4c1.1,1.3,2.3,2.4,3.8,3.3
	c2.3,1.3,4.5,0.9,6.3-1c0.6-0.6,1.1-1.4,1.6-2.1c5.8-7.1,16.4-3.9,19.4,2.8c1.4,3.2,0.8,6.2-1,9.1c-7.3,11.5-20.5,16-33.2,11.1
	c-10.8-4.1-18-11.8-22.3-22.4c-2.6-6.5-3.9-13.3-4.8-20.2c-0.7-5.6-1-11.3-1.3-16.9c-0.1-1.2-0.4-1.6-1.6-1.7
	c-4.5-0.2-8.9-0.6-13.4-0.8c-1.5-0.1-3-0.2-4.5-0.6c-7.2-2.1-10.5-11.7-6.1-17.8c1.9-2.6,4.5-3.8,7.7-3.7c4.4,0.2,8.8,0.5,13.2,0.7
	c1.3,0.1,3,0.8,3.9-0.1c0.9-0.8,0.3-2.6,0.3-3.9c0.4-12.8,1.4-25.5,3.1-38.1c0.9-6.2,5.7-9.5,12.2-7.7c6.2,1.7,9.8,7.1,8.9,13.4
	c-1.6,11.3-2.4,22.7-2.4,34.1c0,3.8-0.5,3,2.9,3.1c2.8,0,5.6,0,8.4,0c6.3,0.1,10.6,4.4,10.7,10.7c0.1,6.4-4.3,11.1-10.6,11.2
	c-3.4,0.1-6.9,0.1-10.3,0.1C867.2,119.8,867.1,119.9,866.9,120z"/>
<path class="st0" d="M437.6,119.7c-0.1,3.7,0.3,7.1,0.6,10.5c0.4,5,1,10,2.3,14.9s3.8,9.1,7.2,12.8c0.8,0.9,1.7,1.7,2.8,2.3
	c2.6,1.5,4.9,1.2,6.8-1.1c0.6-0.7,1.1-1.6,1.8-2.2c3.1-3.3,6.8-4.3,11.1-3.1c4.2,1.2,7.2,3.6,8.4,8c0.7,2.8-0.1,5.2-1.6,7.5
	c-7.4,11.5-20.5,15.9-33.3,11.1c-10.5-4-17.7-11.5-22-21.8c-3-7.2-4.4-14.8-5.3-22.5c-0.6-5-0.9-10-1.1-15c0-1.7-0.1-1.7-1.7-1.8
	c-4.4-0.3-8.8-0.6-13.2-0.9c-1.4-0.1-2.7-0.2-4-0.5c-8.5-1.9-11.1-12.6-6.4-18.4c1.9-2.4,4.4-3.4,7.4-3.2c4.5,0.2,8.9,0.5,13.4,0.8
	c1.2,0.1,2.4,0.1,3.7,0.2c0.4-1.1,0.3-2.2,0.3-3.3c0.1-13.1,1.3-26.1,3.1-39.1c0.9-6.3,6-9.5,12.3-7.6c5.7,1.7,9.8,6.8,8.9,13.3
	c-1.6,11.6-2.4,23.2-2.5,34.8c0,0.2,0,0.5,0,0.7c0,1.8,0,1.8,1.8,1.8c3.1,0,6.2,0,9.4,0c4.6,0,8.1,1.8,9.9,6.2
	c1.8,4.5,1.3,8.8-1.9,12.5c-2,2.3-4.7,3.2-7.7,3.3C444.8,119.7,441.3,119.7,437.6,119.7z"/>
<path class="st0" d="M504.9,103.5c0.5,0,0.7-0.2,0.9-0.5c6.7-7.2,15.2-11.6,24.5-14.3c7.1-2.1,14.3-3.2,21.7-3.6
	c6.4-0.3,10.5,3.2,10.9,9.1c0.4,6.9-3.7,12.1-10,12.5c-5.8,0.4-11.4,1.1-17,2.9c-2.4,0.8-4.6,1.7-6.8,2.9
	c-7.5,4.1-11.8,10.5-13.3,18.9c-1.1,6.6-1.2,13.2-0.4,19.8c0.5,3.9,1.6,7.8,2.5,11.7c1.2,5.2,2.4,10.4,3.5,15.6
	c1.8,8.4-4.9,15.2-13.3,13.6c-4-0.7-6.5-3.3-7.7-7.1s-2.3-7.6-3.3-11.5c-1.4-5.2-2.3-10.6-3.1-16c-1-7-2.9-13.9-4.4-20.8
	c-2.9-13.4-5.9-26.8-8.8-40.2c-1.7-7.9,3.2-14.2,11.1-14.4c5.1-0.1,8.7,2.6,9.9,7.6c0.9,3.7,1.6,7.5,2.5,11.2
	C504.5,101.9,504.7,102.7,504.9,103.5z"/>
<path class="st0" d="M699.8,103.5c0.4,0,0.7-0.2,0.9-0.4c6.5-7,14.7-11.4,23.8-14.1c7.5-2.3,15.2-3.5,23.1-3.8
	c5.2-0.2,8.8,2.4,9.9,7.2c1.8,8-3.3,14.2-10.4,14.5c-6.3,0.2-12.5,1.3-18.5,3.5c-11.3,4.2-17.2,12.4-18.4,24.3
	c-0.5,5.4-0.6,10.9,0.1,16.2c0.5,4,1.7,8,2.5,11.9c1.2,5.2,2.4,10.4,3.5,15.6c1.8,8.4-4.9,15.2-13.3,13.6c-4.1-0.8-6.5-3.4-7.8-7.3
	c-2.8-9-5.1-18.1-6.4-27.5c-0.9-7-2.9-13.9-4.4-20.8c-2.9-13.3-5.9-26.6-8.8-39.9c-1.7-7.9,3.2-14.2,11.1-14.4
	c5.1-0.1,8.7,2.7,9.9,7.6c0.9,3.7,1.6,7.5,2.5,11.2C699.4,101.9,699.6,102.7,699.8,103.5z"/>
<path class="st0" d="M811.1,174.8c0,5.1-3.5,9.3-8.7,10.5c-6.4,1.5-11.3-1.5-12.8-7.9c-4.7-19.4-8.9-39-12.4-58.7
	c-1.5-8.4,6.2-15.5,14.5-13.6c3.7,0.9,5.8,3.3,6.5,6.9c1,4.8,1.8,9.5,2.7,14.3c2.8,15.2,6.3,30.3,9.9,45.3
	C810.9,172.8,811.1,173.8,811.1,174.8z"/>
<path class="st1" d="M134.3,172.4c0,0.9,0.5,1.5,0.9,2.1c4.5,7,7,14.6,8.1,22.8c0.2,1.2,0,2.4-0.4,3.5c-0.8,2.7-3.5,3.5-5.7,1.7
	c-1.3-1.1-2.2-2.5-2.9-4c-3.1-6.2-6.2-12.4-9.8-18.3c-0.7-1.2-1.3-1.5-2.6-1.2c-6,1.8-12.1,1.8-18.2,0.1c-1-0.3-1.8-0.1-2.6,0.6
	c-3.9,3.5-7.8,6.9-11.7,10.3c-2.6,2.3-5.7,4.1-8.5,6.2c-0.7,0.5-1.5,0.9-2.4,1c-1.6,0.2-3.1-0.6-3.6-2.1c-0.5-1.6-0.6-3.3,0.3-4.9
	c1.8-3.2,4.1-6,7-8.4c3.2-2.6,6.2-5.5,9.6-8c1.4-1,1.3-1.1,0.3-2.4c-1.7-2-3.2-4.1-4.4-6.5c-0.4-0.9-0.9-1.7-1-2.7
	c0.1-2.4,1.8-3.4,3.7-2.3c0.4,0.2,0.7,1.3,1.3,0.5c1.1-1.4,2.9-1.4,4-2.5c1.6-1.5,3.2-1.2,4.5-0.1c1.5,1.2,2.1,0.5,2.5-0.8
	c0.3-0.8,0.7-1.6,1.4-2.2c0.2-0.2,0.7-0.6,0.8-0.5c2,1.6,3.8-0.6,5.8-0.2c3.7,0.6,5.1-0.1,6.9-3.3c0.5-0.8,1.1-1.5,2.1-1.2
	c1.5,0.4,0.4,1.8,0.9,2.9c0.7-0.7,2.5-0.5,1.1-2.2c-0.5-0.6-0.2-1.2,0.4-1.7s1.3-0.6,2-0.3c1.2,0.5,2.1,1.8,3.4,1.6s1.2-1.9,2-2.8
	c0.5-0.6,1.2-0.9,1.9-0.6c1.3,0.5,0.6,1.6,0.6,2.6c1-1.6,1.7-3.2,3.7-3.3c0.4,1,0.9,2,2.2,2.3c1.4,0.3,1.7,1.3,1.4,2.6
	c-0.2,0.9-0.3,1.7-0.6,2.6c-0.5,1.4-1.2,2.4-2.9,2.1c-0.4-0.1-0.8,0-1.2,0.7c2.4,1.1,2.6,3,1.4,5.2c-0.7,1.3-0.9,1.4-3.6,1.2
	c2.4,2.2,2.4,2.2,1,5.3c-0.5,1.2-1.3,2.2-1.8,3.4c-0.2,0.6-0.7,1.3,0,1.8c0.5,0.4,1-0.2,1.5-0.4
	C133.5,172.4,133.9,172.3,134.3,172.4z"/>
<path class="st2" d="M39.3,40.6c1.1-4.2,4.4-5.9,8-7.1c5.2-1.7,10.5-1.3,15.8-0.4C73,34.8,81.7,39.2,90.2,44
	c5.2,2.9,10.3,6,15.5,8.9c0.5,0.3,1,0.5,1.3,1c-1.3,1.5-3.1,1.1-4.8,1.2c-1,0.1-2,0-3,0c-0.5,0-1-0.1-1.5-0.2
	c-1.6-0.4-2.2-1.7-2.8-3.4c-0.8,1.2-1.6,1.7-2.8,1.5c-0.2,0-0.4-0.1-0.6-0.2c-0.4-0.1-0.8-0.3-1.3-0.4c-0.2,0-0.4-0.1-0.6-0.2
	c-1.4-0.3-2.9-0.3-3.8-1.7c-0.2-0.4-0.5-0.4-1-0.2c-2.6,1-4.9,0.5-7.2-1c-0.3-0.2-0.6-0.4-1.1-0.3c-2.9,1-5.5,1-7.9-1.2
	c-0.2-0.2-0.4-0.3-0.6-0.1c-2.1,2.1-4.4,0.3-6.6,0.4c-1.4,0.1-1.6-1.3-2.4-2.6c-0.9,2.6-2.7,2.2-4.5,1.8s-3.7-0.6-4.1-3
	c-2,2.4-5.4,1.3-5.9-2.5c-2.2,3.1-3.7,0.4-5.5-0.4C39.1,41.3,39,40.9,39.3,40.6z"/>
<path class="st0" d="M797.5,70.4c0,1.1,0.1,2.2,0,3.3c-0.6,5.2-5.3,9.3-10.6,9.6c-5.5,0.3-9.9-4.1-10.9-8.6
	c-0.5-2.6-0.4-5.2-0.1-7.9c0.5-4.9,5.3-9.6,11.8-9.3c5.5,0.2,9.9,5.3,9.9,11C797.5,69.1,797.5,69.8,797.5,70.4L797.5,70.4z"/>
<path class="st3" d="M135.8,146.1c-1.4,0.9-2.8,1.8-3.1,3.7c-0.1,0.5-0.4,1.2-1.1,0.8c-0.6-0.3-0.6-0.9-0.3-1.5
	c0.1-0.1,0.2-0.3,0.3-0.4c0.3-0.5,0.7-1,0.1-1.4c-0.8-0.5-1.4-0.1-1.7,0.7c-0.4,0.8-0.6,1.6-1,2.4c-0.6,1.1-1.3,1.2-2.2,0.3
	c-0.8-0.8-2-0.9-2.8-1.8c-0.4-0.4-1,0.1-1.5,0.5s-0.2,0.8,0.2,1.2c0.5,0.5,0.8,1.1,1.3,1.8c-1-0.1-1.4,0-2.1,0.8
	c-0.5,0.5-1,0.8-1.7,0.4c-0.6-0.4-0.7-1-0.3-1.7c0.2-0.3,0.4-0.5,0.5-0.8c0.1-0.6-0.3-0.9-0.9-0.7c-0.8,0.2-1.4,0.8-1.4,1.7
	c0,1.3-0.6,2.1-2,2.2c-0.7,0.1-1.1,0.7-1.7,0.8c-0.8,0.2-1.6,0.5-2.6,0.2c-2.5-0.6-2.5-0.6-4.4,1c-0.1,0-0.4,0-0.4-0.1
	c-1.4-1.7-2.4-1.6-3.3,0.5c-0.3,0.7-0.4,1.4-0.7,2c-0.6,1.3-1.5,1.5-2.3,0.3c-0.7-1-1.8-0.9-2.7-1.3c-0.4-0.2-0.9-0.1-1.1,0.2
	c-0.6,1.4-1.9,1.4-3.1,1.8c-1,0.3-1.7,1.4-2.4,2.4c-0.7-0.8-1-2.2-2.3-2c-1.2,0.2-2.2,0.9-2.4,2.3c-0.4-0.2-0.5-0.6-0.5-1
	c-0.4-1.9-1-3.7-1.5-5.5c1-1.8,2.8-1.8,4.5-1.7c2.5,0.1,2.6,0.1,1.8-2.1c-0.3-0.7,0.2-1.2,0.5-1.7c0.4-0.7,0.9-0.6,1.6-0.4
	c1.6,0.4,3.1,1.1,4.8,0.8c2.2-0.2,4.2-1.3,6.1-1.6c2.5-0.4,4.4-0.8,5.7-3.1c0.3-0.5,1.2-0.2,1.7-0.7c0.3-0.3,1-0.8,0.4-1.1
	c-1.7-0.9-0.6-1.7,0-2.4c0.8-1.1,1.7-2.2,3.4-1.3c0.7,0.7,0.9,1.7,1.2,2.6c1.4,3.5,4.7,4.2,7.4,1.5c3-3,4.7-6.8,5.4-10.9
	c0.1-0.7,0-1.4,0.5-2.1c1.3-0.3,1.1,0.7,1.2,1.4c0.3,1.8,0.5,3.7,0.4,5.7c0.7-0.6,1.4-1.7,2.1-0.9c1.1,1.2,2.3,0.7,3.5,0.6
	c0.7,0.5,0.9,1.5,1.9,1.7c0.2,0.1,0.4,0.2,0.7,0.3c0.9,0.4,1.5,1,1.4,2C140.4,146.7,139.1,147.5,135.8,146.1z"/>
<path class="st4" d="M130,57.4c2.1-1.4,4.3-2.5,6.7-3.3c0.3-0.3,0.7-0.2,1-0.5l0,0c0.3-0.2,0.7-0.2,1-0.5l0,0c1.7-1,3.6-0.5,5.3-0.9
	c2.7-0.5,5.3-1.2,8-1.3c4.1-0.3,8.2-0.8,12.1-2.3c0.7-0.3,1.4-0.1,2.1,0c1.9,0.4,3.1-0.5,4.7-1.5c2.7-1.6,5.5-3.5,8.8-3.3
	c1.1,0.1,2.1,0.5,2.8-0.8c0.3-0.5,1.2-0.7,1.5-0.4c1.6,1.8,3.1,0.2,4.7,0.1c0.8,0,1.6-0.3,1.8-1c0.6-2.5,2.6-2,4.2-1.8
	c1.2,0.2,2.4,0.2,3.5,0.6c3,0.1,5.6,1.3,8.1,2.9c-1.5,1.8-3.5,3.1-5,5c-0.4,0.6-1.1,0.9-1.7,1.1c-1,0.2-1.7,0-2.1-1
	c-1.1-2.9-2.6-2.9-5.6-2c-2.6,0.9-4.5,3.4-7.1,3.4c-1.9,0-2.1,2.7-4.3,1.8c-1.6-0.6-3.6-0.7-5.4,0c-0.5,0.2-1.1,0.2-1.5,0.7
	c-1.4,2.3-3.5,1.4-5.1,0.8c-3.1-1.1-3.1-1.3-4.5,1.6c-3.4,1.5-5.1,1.1-8.2-1.8c-0.7,0.5-0.3,1.5-0.9,2.1c-0.2,0.1-0.4,0.2-0.6,0.3
	c-2.5-0.6-5-0.3-7.4,0.5c-0.2,0-0.4-0.1-0.6-0.2c-0.3-0.1-0.5-0.4-0.6-0.6c-0.1-0.1-0.2-0.3-0.3-0.4c-0.1-0.1-0.2-0.3-0.3-0.4
	c-0.1,0-0.1-0.1-0.2-0.1c-0.1-0.1-0.3-0.1-0.5-0.1c-0.2,0.1-0.4,0.2-0.5,0.4c-0.2,1-0.2,2.1-1.4,2.5c-0.3,0.1-0.6,0.2-0.9,0.3
	c-0.5,0.1-1,0.1-1.5,0.2c-0.2,0.1-0.4,0.1-0.6,0.2c-0.4,0.1-0.8,0.1-1.2,0c-0.2,0-0.4-0.1-0.5-0.2c-0.2-0.1-0.3-0.2-0.4-0.3
	c-0.1-0.1-0.2-0.3-0.3-0.4c-0.1-0.1-0.2-0.3-0.3-0.4c-0.1-0.1-0.2-0.3-0.3-0.4c-0.1-0.1-0.2-0.2-0.4-0.3l-0.2-0.1
	c-0.3,0-0.4,0.1-0.6,0.3c-0.1,0.2-0.2,0.4-0.2,0.6C134.7,59.3,132.4,59.7,130,57.4z"/>
<path class="st5" d="M198.2,40.6c-1.5,0.3-3-0.4-4.5-0.4c-1.7-0.1-1.8-0.1-2.3,1.7c-0.4,1.2-1.2,1.6-2.3,1.6s-2.1-0.2-2.8,1.2
	c-0.3,0.8-1.2,0.5-1.5-0.4c-0.2-0.6-0.3-1.3-1.1-1.2s-1.2,0.4-1.1,1.4c0.1,1.3-1.4,0.7-1.5,0.6c-1-1.4-2.4-0.3-3.5-0.5
	c-0.3,0-0.8,0.1-0.8,0.3c-0.6,2-2.4,1.6-3.7,1.7c-0.9,0.1-1.2,0.3-1.7,1c-1.3,1.9-2.8,2.4-5.1,1.8c-0.4-0.1-0.8-0.4-1.1-0.3
	c-2,0.8-4,1.3-6.1,1.7c-0.4,0.1-0.8,0.5-1.3,0.5c-2.6-0.3-5.2,0.5-7.9,0.5c-0.6,0-1.2-0.2-1.7,0.1c-3,1.7-6.3,0.8-9.5,1.4
	c1.4-1.3,3.2-1.7,4.9-2.4c4.2-1.8,8.3-3.6,12.6-5c4.8-1.6,9.8-2.8,14.7-3.9c7.3-1.6,14.7-2.4,22.3-2.1
	C194.9,39.7,196.6,39.9,198.2,40.6z"/>
<path class="st6" d="M86.2,138.4c1-4.3,2.7-8.4,5.2-12c1.3-0.4,2.2-1.5,3.3-2.2c0.4-0.3,1.7-0.6,0.6-1.8c-0.5-0.6,0.4-1.1,1.1-1
	c1.1,0.2,2.2,0.6,2.6,1.8c0.2,0.5,0.2,1.2,0.9,1.2c0.7,0,0.9-0.5,1.1-1.1c0.3-1,0.7-1.9,2-1c0.2,0.1,0.2,0.2,0.4-0.2
	c0.6-1.5,0.9-3.2,2.2-4.4c0.4-0.4,0-0.9-0.4-1.2c-0.5-0.4-1.1-0.7-0.8-1.5c0.8-0.8,1.6-0.3,2.4,0c0.6,0.3,1.1,1.1,1.8,0.2
	c0.1-0.2,0.2-0.3,0.4-0.5c0.3-0.3,0.7-0.5,1.2-0.5s0.8,0.2,1,0.7c0.5,0.1-1,1.2,0.4,0.8c0.9-0.2,1-1.1,1.5-1.7
	c0.2-0.2,0.3-0.3,0.6-0.4c1.8,0.6,1.9,1,0.7,3.5c0.6-1.3,1.9-2,2.8-3.1c0.8-1,2.4-0.5,3.6-0.3c1,0.2,0.6,1.3,0.3,2
	c-0.3,0.5-0.5,0.9-1,1.2c-0.3,0.4-0.3-0.7-0.7-0.1c-0.1,0.2-0.2,0.3-0.3,0.4c-0.1,0.1-0.2,0.3-0.1,0.4c0,0.1,0,0.2,0.1,0.2
	c0.1,0.2,0.2,0.3,0.3,0.5c0.6,0.9,1.9,1.9,0.2,2.9c-1.4,0.9-2.6,0.4-3.4-1.4c-1.7,2.2-1.9,2.2-3.8,0.1c-0.1-0.2-0.3-0.6-0.4-0.4
	c-1.3,1.3-2.5-0.4-3.8-0.1c-0.2-0.2-0.1,0.5-0.1,0.2c0-0.2,0.1-0.2,0.2-0.1c0.7,1.1,1.5,1.4,2.8,0.7c1.3-0.7,1.6,0.9,2.2,1.6
	c0.7,0.8-0.3,1.2-0.7,1.7c-0.7,1.1-2.5,0-3,1.5c0.1,0.4,0.5,0.6,0.8,0.8c1.1,0.9,1.3,1.6-0.4,1.9c-0.7,0.1-1.3,0.5-1.9,0.8
	c-1.4,0.7-2.2,0.4-2.4-1.2c-0.4-0.1-0.6,0.3-0.9,0.3s-0.5-0.1-0.7,0c0.1,0.1,0.2,0.3,0.3,0.4c0.2,0.3,0.2,0.5,0.1,0.8
	c-1.3,2-1.2,1.9-2.8,0.1c-0.3-0.4-0.8,0.1-1.2,0.4c-0.6,0.9-0.8,2-1.6,2.8c-0.8,1.2-1.2,2.4-0.9,3.9c0.4,2.2-1,3.2-3.1,2.5
	c-1.4-0.4-2.7-0.6-3.9-2c-1.4-1.7-2.1-1.3-3.1,0.7C87.4,137.8,87.2,138.7,86.2,138.4z"/>
<path class="st7" d="M98.7,79.9c0.7-2.1,1.8-3.8,3.4-5.3c2.7-3.7,6.9-4.2,11-4.5c1-0.1,2-0.2,2.8-0.5c1.7-0.6,3.2-0.7,5,0
	c1.3,0.5,2.7-0.9,4.2-1.2c0.3-0.1,0.6-0.5,0.8-0.5c1.7,0.5,2.8-1,4.2-1.3c1.7-0.5,2.9,0.5,3.5,2.1c0.1,0.2,0,0.5,0.2,0.5
	c0.1,0-0.2-0.3,0-0.4c1-0.6,1.8,0.3,2.8,0.3c0.3,0.1,0.5,0.4,0.7,0.7c0.2,0.6,0.6,1.1,1,1.6c0.5,1.3,0.2,2.3-1.1,3
	c-1.1,0.6-2,2-3.5,0.5c-2.1-2.1-4.6-0.2-6.9-0.3c-0.2,0.1-0.4,0.1-0.7,0.2c-0.4,0.1-0.8,0.1-1.2,0c-0.8-0.3-1.3-0.7-1.1-1.6
	c0.2-0.8,0.9-0.7,1.5-0.7c0.4,0,0.8,0.3,1.9,0.3c-1.2-0.2-1.7-0.5-2.4-0.5c-1.1,0.1-2.1,0-1.4,1.7c0.6,1.6-0.2,2.9-1.3,4
	c-0.6,0.6-1.3,1.1-2.1,0.3c-0.7-0.7-0.1-1.3,0.3-1.9c0.3-0.3,0.5-0.6,0.4-1.1c-0.4,0.6-0.7,1.6-1.7,1.1c-1.3-0.7-1-2-1.1-3.3
	c0.2,1.7-1.3,2-2.1,2.9c-0.2,0.2-0.3,0.3-0.5,0.4c-0.6,0.4-2.1-0.2-1.3,1.6c0.5,1.1-1.1,2.1-2.4,1.4c-1-0.6-1.8-0.8-2.9-0.6
	c-1.5,0.2-1.2-1.1-1.3-1.4C104.3,77.3,102,79.9,98.7,79.9z"/>
<path class="st8" d="M136.7,69.4c-0.6,0.3-1.1,0.6-1.7,0c-0.4-0.4-0.8-0.5-1.2,0l0,0c-0.2-0.2-0.5-0.4-0.7-0.6c-1.6-2-1.7-2-4.2-1.1
	c-0.1,0.5,0.6,0.8,0.3,1.5c-0.6-0.4-1.6,0.6-2.1-0.5c-0.3-0.6-0.6-0.7-1-0.1c-0.5,0.9-1.4,1-2.3,1c-0.3,0-0.7-0.1-0.9,0.2
	c-1.1,1.3-2.2,1.3-3.4,0c-0.7-0.7-1.7-0.5-2.3,0.2c-0.6,0.7-1.3,0.8-2.1,0.3c-0.7-0.4-0.8-0.1-0.7,0.6c0.1,0.4-0.3,0.7-0.5,0.5
	c-1.5-2-3-0.5-4.4,0c-0.5,0.2-0.9,0.4-1.4,0.2c-0.5-0.2-0.9-0.1-1.3,0.1c-1.6,0.8-3.3,1.6-4.6,2.9c1-2.2,3-3.6,4.7-5.2
	c1.3-1.1,2.7-2.2,4.3-2.9c0.4-0.2,0.6-0.5,0.6-0.9c0.6-0.8,1.4-1.3,2.2-1.8c3.6-0.8,7.2-0.4,10.8-1.2c2.3-0.5,4.5-1.4,6.9-1.6
	c1.3,0.7-0.2,1.3,0,2.1c1.3-0.7,2.5-1.6,3.9-2s2.4-0.2,2.2,1.6c-0.5,0.7-1.7,0.5-2.2,1.3c1.4,1.4,3.4,1.8,4.7,3.4
	c-0.5,0.7-1.4,0.6-1.9,1.1c-0.2,0.2-0.5,0.4-0.7,0.6C137.3,69.3,137,69.4,136.7,69.4z"/>
<path class="st9" d="M39.4,41.7c0.4-0.3,0.8-0.4,1.3,0c0.7,0.5,1.4,1,2.2,1.5c0.6-0.4,0.5-1.1,0.8-1.6c0.3-0.4,0.5-0.9,1.1-0.7
	c0.5,0.1,0.7,0.6,0.8,1.1c0,0.2,0,0.5,0,0.7c0.2,1.6,1.6,2.9,3.1,2.7c0.5,0,0.7-0.4,0.7-0.8c0.1-0.6,0.2-1.4,1.1-1.3
	c0.7,0.1,0.8,0.7,0.8,1.3c0,1.3,0.7,1.8,1.9,1.9c0.9,0.1,1.7,0.4,2.6,0.5c1.8,0.4,1.8,0.4,2.6-1.2c0.2-0.4,0.4-1,0.9-1
	c0.6,0,0.7,0.6,0.8,1.1c0.2,1.5,1.1,2.2,2.6,2c1-0.1,1.9,0.2,2.8,0.4c1,0.2,2.2,0.3,2.2-1.3c0-0.3,0.2-0.6,0.6-0.7
	c0.5,0,0.7,0.3,0.8,0.7c0.2,1.7,1.3,1.9,2.7,1.9c1,0,2,0.5,3.1,0.4c0.6,0,1-0.1,1.4-0.7c0.8-1.2,1-1.2,1.6,0c0.5,0.9,1.2,1.1,2,1.4
	c1.2,0.4,2.5,0.1,3.8,0.5c0.8,0.3,0.8-0.6,1-1c0.5-0.7,1.3-0.8,1.4,0c0.4,1.9,1.6,2.1,3.1,2.2c0.4,0,0.8,0.1,1.1,0.5
	c-1,1-2.4,1-3.7,1.1c-1,0.1-2,0.1-2.9,0.6c-1,0.4-2,0-3.1,0c-1-0.1-2.1-0.2-2.9,0.6h-0.2h-0.2c-1.8-1.1-3.6-1.8-5.7-2
	c-0.9-0.1-1.7,0.1-2.5,0.6c-0.3,0-0.6,0-0.9,0c-0.3-0.2-0.6-0.3-0.9-0.5c-2.2-1.3-4.5-1.4-6.9-0.9c-0.8,0.2-1.5,0.5-2.3,0l0,0
	c-2.1-1.4-4.2-2.3-6.6-0.8c-0.2,0.1-0.5,0-0.6-0.2c-0.2,0-0.3,0-0.5-0.1c-0.3-0.1-0.6-0.3-0.8-0.5c-1.3-1.9-3-2.2-5-1.3
	c-0.6-0.2-1.1-0.5-1.5-1c-0.7-1.2-1.5-2.2-2.5-3.1C39.7,44,38.7,43.1,39.4,41.7z"/>
<path class="st10" d="M135.8,146.1c1.2-0.1,2.4,0.3,3.5-0.2c1.4-0.6,0.4-2.2,1-3.2c0.1-0.1,0.1-0.3,0.2-0.4c0.8-1.8-1-0.9-1.5-1.4
	h-0.2h-0.2c-0.3-1.1,0.5-1.9,1.2-1.9c1.5-0.1,2.5-1.2,3.9-1.6c1.3,0.7,0.7,2,0.8,3.1c-0.1,1.3-0.4,2.5-0.6,3.8c-0.2,1,0,1.8,0.8,2.6
	c1.5,1.5,1.3,2.2-0.5,3.3c-1.9,1.1-3.2,5.2-2.1,7.1c0.9,1.6,1,2.5-1.1,3.2c-1.7,0.5-1.9,2-1.3,3.5c0.3,0.8,0.9,1.6,0.3,2.4
	c-0.1,0.2-0.3,0.4-0.4,0.6c-1.7,0.3-2.7,1.2-3.2,2.9c-0.4,1.2-1.5,1.8-2.1,2.8l0,0c-0.6,0.4-1.1,0.9-1.7,1.3c-0.5,0.3-1,0.6-1.5,0
	c-0.4-0.4-0.7-0.9-0.5-1.5c0.4-1,0.9-2,1.5-3c0.4-0.6,0.7-1.2,0.9-1.9c0.3-0.9,1.1-1.8,0.9-2.7c-0.2-0.9-1.4-0.9-2.1-1.4
	c-0.5-0.3-1-0.7-0.6-1.3c0.3-0.5,0.8-0.4,1.3-0.3c2.8,0.6,2.7,0.6,3.6-1.9c0.4-1.1,0.2-1.8-0.8-2.3c-0.3-0.1-0.6-0.3-0.8-0.5
	c-0.4-0.3-1.1-0.6-0.8-1.3c0.3-0.6,0.9-0.9,1.6-0.9c0.8,0,1.5,0.9,2.2,0.1c0.7-0.7,0.9-1.7,1-2.7c0.1-0.9,0.8-1.9,0.4-2.8
	c-0.4-0.8-1.5-0.7-2.4-1C135.1,148.1,135.6,147,135.8,146.1z"/>
<path class="st11" d="M86.2,138.4c1-0.5,1-1.6,1.3-2.4c0.6-1.4,1.6-1.6,2.7-0.6c0.7,0.7,1.4,1.6,2.2,2c1.1,0.6,2.6,0.4,3.8,1.2
	c0.2,0.2,0.5-0.2,0.7-0.5c0.9-1.4,0.7-2.7-0.8-3.8c1.1-0.4,1.8-1.1,1.7-2.3c0,0,0.4-0.1,0.6-0.2c0.8,0.9,0.6,1.9,0.4,2.9
	c-0.3,1.3-0.3,2.7,0,4c0.2,1.3,0.6,2.6,1.1,3.8c0.6,1.5,1,2.9-1.1,3.6c-0.9,0.3-0.6,1-0.2,1.5c0.7,0.9,0.6,1.6-0.6,1.9
	c-1.3,0.2-2.7,0.8-3-1.4c-0.2-1.1-1.4-0.8-2.2-0.7c-0.8,0.1-1.5,0.5-2.2,0.9c-0.7,0.5-1.5,0.3-1.9-0.4c-0.6-0.9-0.1-1.5,0.9-1.7
	c-1.9,0.1-2.8,0.9-2.5,2.8c0.2,0.9,0.4,1.9-1.2,2c-0.8,0.1-0.4,0.9-0.4,1.4c-0.1,1.1,0.1,2.2-0.6,3.2c0.5,1.9,1.5,3.8,1.4,5.9
	c-1.9-4.2-2.4-8.6-2.1-13.2C84.4,144.9,85.1,141.6,86.2,138.4z"/>
<path class="st12" d="M131.9,61.3c-2.6,0.9-5.2,1.4-7.9,2.1c-3.1,0.8-6.3,0.2-9.3,1.1c-0.3,0.1-0.7-0.2-1.1-0.3
	c-1,0.1-1.3-0.8-2-1.1c-2.1-1.1-3.7-2.9-5.8-4.2c-2-1.2-4-2-6-2.9c-0.5-0.3-1.2-0.5-1.1-1.3c2.8-0.1,5.6,0.2,8.3-0.5
	c3.8,1.7,7.2,4.1,10.7,6.3c1.2,0.7,2.2,1.9,3.4,2.1c1.2,0.2,2.2-1.4,3.4-2c1.8-1,3.4-2.3,5.4-3c1.1,0.7,2.4,0.7,3.6,0.9
	c2.1,0.3,0.5-2.2,1.7-2.7C137,59.2,135.7,61.4,131.9,61.3z"/>
<path class="st13" d="M102.7,108.2c-1.7-1.4-3-3.1-3.9-5.2c0.1-0.8-0.9-1.5-0.2-2.2c0.9-0.8,2-1.4,3-2.1c0.6-0.4,0.8,1,1.3,1.7
	c-1.5-3.4-1.3-4.2,1.1-4.8c0.2,0.1,0.3,0.2,0.5,0.4c0.2,0.4-0.1,1.2,0.9,0.9c0.2,0,0.4,0,0.6,0.1c1.3,1.9,3.4,0.9,5.1,1.2
	c0.8,0.1,1.3,0.2,1.7,0.8c0.2,0.4,0.5,0.7,0.7,1c0.3,0.5,0.7,1,0.9,1.6c-0.9,1.5-2.4,0.6-3.6,1.1v0.2c0,0.1,0.1,0.1,0.2,0.2
	s0.2,0.3,0.3,0.5c0.3,0.7,0.7,1.3,0.9,2c0.4,1.4,1.5,1.5,2.6,1.6c1.3,0.1,2.4,0.4,2.8,1.7c0.3,1.3-0.8,1.7-1.6,2.4
	c-0.5,0.4-1,0.8-1.6,1.1c-0.9,0.3-1.8,0.4-2.2-0.7c-0.3-0.8-0.1-1.6,1.4-1.8c-1.6-0.2-2.7,0.4-3.7-0.1c-1.4-0.8-0.5-1.9,0-2.9
	c-1.5,0.3-1.1,1.3-1.1,2.1c0,0.9,0.3,2-1.2,2.1c-0.3-0.1-0.6-0.2-0.8-0.5c-0.2-0.3,0.1-1.4-0.9-0.6c-0.2,0-0.4-0.1-0.5-0.3
	c-0.1-1.4-2.1-2.1-1.6-3.9C102.4,106.3,103.4,107.6,102.7,108.2z"/>
<path class="st14" d="M131.9,61.3c1.2-0.2,2-1.2,3.1-1.6c0.7-0.3,0.8-0.9,0.6-1.6c-0.3-0.8-0.4-1.7-0.3-2.5l0,0
	c0.5-0.4,0.9-0.4,1.4,0l0,0c0.2,0.1,0.4,0.3,0.5,0.5l0,0c0.3,0.2,0.2,0.7,0.5,0.9l0,0c0.2,0.2,0.3,0.3,0.5,0.5l0,0
	c0.7,0.5,1.3,0.3,2,0l0,0c0.4-0.4,1.1-0.1,1.5-0.5c0.3,0,0.6,0,0.9,0c2.1-0.4,0.6-2.4,1.5-3.3c0.3,0,0.6,0,0.8,0
	c0.2,0.2,0.3,0.3,0.5,0.5l0,0c0.1,0.2,0.3,0.3,0.5,0.5l0,0c0.3,0.3,0.2,0.7,0.5,1l0,0c0.2,0.1,0.4,0.3,0.6,0.2
	c2.5-0.5,5-0.7,7.6-0.7c0.1,0,0.3,0,0.4,0c0.7-0.9-0.2-2,0.5-2.8c1-0.6,1.6,0.1,1.7,0.9c0.4,1.9,1.5,2.1,3.1,2
	c1.3-0.1,2.5-0.1,3.7-0.4c0.3-0.3,0.7-0.4,1-0.7c1.6-2,1.6-2,3.7-0.4c0.6,0.5,1.4,0.4,2,0.8c0.3,0.3,0.3,0.6,0,0.8
	c-0.3,0.3-0.7,0.3-1.1,0.4c-2.5,0.6-2.5,0.7-2.8,2.5c-3.1,0.2-6.3,0-9.5,0.5c-2,0.3-4.2-0.1-6.3,0c-1.8,0.1-3.3,0.6-4.1,2.2l0,0
	c-0.4,0.3-0.9,0.3-1.4,0.1c-3.3-1.6-4.1-1.4-5.9,1.5c-0.1,0.1-0.3,0.2-0.4,0.2c-0.5,0-0.9,0.1-1.4,0.1c-1.1-1.6-1.1-1.6-2.5-0.9
	c-1.3,0.6-2.5,1.4-3.7,2.1c-0.4,0.2-0.8,0.3-1.1,0c-0.4-0.4-0.1-0.7,0.2-1C131,62.3,131.5,61.8,131.9,61.3z"/>
<path class="st15" d="M98.8,54.6c0.7,0.8,1.8,1,2.7,1.5c0.4,0.2,0.9,0.4,1.3,0c1-0.9,1.5-0.4,1.8,0.7c0.5,1.7,1.6,2.4,3.3,1.9
	c0.6-0.2,1-0.1,1,0.5c0.1,1.2,1,1.7,1.8,2.3c1.1,0.8,2.3,1.4,3,2.6c0,1.3-1,1.4-2,1.5c-2-1.1-4.1-2.2-6.1-3.4
	c-1.2-0.8-2.7-0.8-3.9-1.4c-2-2-4.3-3.1-7.2-2.4c-0.2,0-0.3,0-0.4-0.1c-0.9-0.7-1.4-1.8-2.5-2.3c-0.4-0.3-0.8-0.5-1.3-0.6
	c-0.2,0-0.4-0.1-0.6-0.2c-0.4-0.1-0.7-0.2-1.1-0.3c-0.3,0-0.6-0.1-0.8-0.2c-0.4-0.1-0.9-0.2-1.4,0c-0.2,0.1-0.3,0.2-0.5,0.3
	c-0.4,0.4-0.9,0.8-1.5,0.5c-0.3-0.3-0.4-0.6-0.4-1c-0.1-0.2-0.1-0.5-0.3-0.7c-0.1-0.1-0.2-0.3-0.2-0.4c0.3-0.6,0.8-1,1.5-0.9
	c1.8,0.2,3.5-0.5,5.3-0.5l0,0c0.4,0.5,1,0.1,1.5,0.5l0,0c2.2-0.1,4.2,0.2,5.8,1.9C97.9,54.6,98.3,54.6,98.8,54.6z"/>
<path class="st16" d="M166.9,58c0-0.9-0.6-1-1.2-1.1c-0.3-0.1-0.6-0.3-0.6-0.6c0-0.5,0.4-0.3,0.6-0.4c1.7-0.4,3.3-0.9,5-1.3
	c0.2-0.2,0.5-0.4,0.8-0.5c2.8-0.1,5.6-0.1,7.4-2.7c0.5,0,0.8,0.3,1.1,0.7c1.7,2.2,3.3,2.4,5.3,0.5c0.3-0.3,0.6-0.4,1-0.5
	c0.2,0,0.4,0.1,0.7,0.1c0.6,0.3,0.8,1,1.2,1.5c0.1,0.1,0.3,0.3,0.5,0.4c1.5,0.3,3.1,0.1,4.6,0c0.2,0,0.4,0.1,0.6,0.2
	c0.6,1.3,0.6,2.6-0.2,3.8c-1.9,0.7-4.1-0.4-5.8,1c-0.6,0-1.2,0-1.9,0c-2-1.3-4-1.9-6.1-0.3c-0.3,0.2-0.8,0.1-1.1-0.1l0,0
	c-3.4-1.3-6.7-1.2-10.1-0.1c-0.6,0-1.2,0-1.8,0C166.7,58.5,166.7,58.3,166.9,58z"/>
<path class="st17" d="M104.6,114.9c0.1,0.4,0.2,0.7,0.6,0.9c1.8,0.9,2,1.7,0.5,2.8c-0.7,0.5-1.2,0.9-0.9,1.9
	c0.3,0.9-1.7,1.3-0.7,2.5c-0.3,0.2-0.6,0.4-0.9,0.2c-0.4-0.3-0.5-0.8-1.1-0.8c-0.7,0.3-0.4,0.9-0.5,1.4c-0.2,1.1-1,1.5-1.9,1.5
	c-0.8,0-1.3-0.6-1.3-1.6c0-1.3-0.9-1.7-2.8-1.7c0.1,1,1.5,1,1.5,2.2c-0.6,0.2-1.9-1-1.8,0.8c0,0.3-0.4,0.4-0.7,0.3
	c-0.3-0.1-0.8-0.2-0.8,0.1c-0.2,1.7-1.4,1-2.3,1c2.3-4.6,5.4-8.7,8.5-12.8c0.7-0.9,1-2,2.2-2.5C103.1,113.4,103.5,114,104.6,114.9z"
	/>
<path class="st18" d="M140.1,166.2c0-0.6-0.1-1.2-0.5-1.8c-0.9-1.2-0.8-3.5,0.2-4.5c0.5-0.6,1.2-0.3,1.8-0.4c1-0.2,1.3-0.9,0.6-1.5
	c-1.6-1.3-1.2-2.7-0.6-4.3c0.3-0.7,0.4-1.5,0.5-2.3c0.2-1.2,0.6-2.1,2.1-2.1c0.6,0,1.1-0.3,1.2-1c0.1-0.7-0.2-1.1-0.8-1.3
	c-1.6-0.6-1.6-1.6-1.2-3c0.4-1.3,0.4-2.8,0.6-4.2c0.7-0.4,1.1-1.5,2.2-1.2c0.4,0.6,0.6,1.3,0.9,2c0,0.6,0.1,1.1-0.2,1.7
	c-0.2,8.2-2.1,16-6.1,23.1C140.5,165.7,140.3,165.9,140.1,166.2z"/>
<path class="st19" d="M144,100.2c-0.1,0.6-0.4,1.1-1,1.4c-0.6,0.5-1.5,0.6-2.1,1.3c-0.4,0.4-0.5,1.2-1.4,1.2
	c-0.5-0.8-1.2-1.3-2.1-1.6c-1.8-3-1.8-3,1.2-4.5c1.4-0.7,1.5-2.2,2.2-3.2c0.2-0.3,0.3-0.6,0.4-1c-0.1-0.2-0.3-0.4-0.5-0.5
	s-0.3-0.2-0.4-0.4c-0.2-0.4-0.2-0.8-0.1-1.2c0.1-0.2,0.2-0.4,0.4-0.5c0.3-0.3,0.7-0.5,1-0.8c1.3-1.5,0.5-3.3,0.6-5
	c-0.1-0.8-0.8-1.1-1.4-1.5c-0.8-0.6-1-1.3-0.3-2.2c0.3-0.3,0.6-0.4,0.9-0.5c0.2-0.1,0.5-0.1,0.7,0c3,0.2,3,0.2,3.2,3.1
	c0,0.6,0.2,1.1,0.3,1.6c0.2,1,0.2,2,0.2,3c-0.3,1.4,1.3,3-0.3,4.3C144.1,95.2,143.5,97.6,144,100.2z"/>
<path class="st20" d="M98.7,79.9c1.3-0.7,2.8-1.1,4.1-1.9c1.1-0.8,2.4-1.3,3.7-0.5c0.7-0.7-0.3-1.1-0.1-1.6c0.7-0.6,1.8,0.3,1.8,1.6
	c0,0.3-0.2,0.6,0.3,0.9c1.1-0.5,2.4-1.5,3.4,0.5c0.3,0.6,1.3,0.1,2-0.1c-0.2-1.1-0.9-2-1-3.5c0.8,1.2,1.8,1,2.7,0.9
	c1.8,2,2,3.4,0.7,4.9c-0.3,0.3-0.6,0.6-0.9,0.8c-0.9,0.6-1.4,0.2-1.9-0.6c0,1-0.3,1.6-1.4,1c-3-3.3-4.7-3.3-7.5-0.1
	c-0.5,0.5-0.6,1.1-0.9,1.7c-0.2,0.2-0.4,0.3-0.6,0.3c-0.6,0-1.2-0.1-1.9-0.2c-2.6-0.2-3.7,0.8-3.7,3.3c0,0.8-0.1,1.5-0.5,2.2
	c0,0.5,0,1.2,0,1.8c0,0.3,0,0.7-0.1,1c-0.1,0.2-0.2,0.4-0.3,0.6C96.4,93,96.2,93,96,92.8c-0.7-1.3-0.1-2.7,0.1-4
	C96.3,85.8,97,82.7,98.7,79.9z"/>
<path class="st21" d="M201,48.3c0-0.7,0-1.3,0.8-1.6c1.2-0.4,2-1.2,2.6-2.3c0.4-0.8,1.1-1,2-1c3.2,1.7,6,3.7,6.2,7.7
	c-0.2,0.1-0.4,0.2-0.6,0.2c-0.8-0.2-1.5,0.2-2.2,0.6c-1,0.7-1.7,0.4-2.4-0.4c-0.5-0.4-0.8-1.2-1.7-1C203,51,202.1,50.5,201,48.3z"/>
<path class="st22" d="M104.1,95.8c-1.1,0.5-1.3,0.8-1.9,1.9c-0.3,0.5,0,0.7,0.2,1c0.3,0.6,0.5,1.1,0.7,1.7c0.1,0.3,0.3,0.6,0,0.9
	c-1.1-0.4-0.7-1.7-1.6-2.5c0,0.9-0.4,1.5-1.2,1.6c-1.3,0.2-1.8,0.8-1.4,2.1c0,0.1-0.1,0.3-0.2,0.4c-1.4-2-2.2-4.2-2.4-6.7
	c-0.4-0.9-0.1-1.8-0.2-2.7c0.1-0.3,0.5-0.7,0.7-0.5c1.8,1.6,3.9,0.5,5.9,0.8C103.8,94.1,104.9,94.2,104.1,95.8z"/>
<path class="st23" d="M166.9,58c0,0.3,0,0.6,0.1,0.8c-6.7,0.6-13.5,0.9-20.2,2c0.1-2.3,0.1-2.4,2.2-2.7c1.9-0.3,3.8-0.1,5.7-0.6
	c0.5-0.1,1,0,1.3,0.4c0.7,0.6,1.4,0.7,2-0.1c0.2-0.2,0.6-0.3,0.9-0.3c2.3,0,4.6,0,6.9,0C166.2,57.5,166.6,57.8,166.9,58z"/>
<path class="st16" d="M204.9,58.9c-0.3,0-0.6,0-0.9,0.1c-1.5-1.2-3.4-0.9-5.1-1.2c-0.4-0.4,0.4-2.1-1.3-1.2
	c-0.5,0.3-1.1-0.2-1.4-0.7c-0.6-0.8-1.4-1.1-2.2-1.3h-0.1c-1.4-1.1-1.2-2.2-0.2-3.4c1.2-0.6,2.2-0.1,2.7,0.9c1,2.2,2.8,2.2,4.7,1.7
	c0.1-0.2,0.2-0.3,0.3-0.6c0.1-0.4,0.2-0.9,0.4-1.3c0.5-0.6,1.2-0.7,2-0.4c1.1,0.3,0.3,2.4,2,2.1c0.4,0.7-0.1,1-0.5,1.3
	c-0.3,0.3-0.9,0.4-0.9,1c0,0.4,0.3,0.8,0.2,1.3c0.2-0.3,0.3-0.8,0.9-0.7c0.2,0.2,0.3,0.4,0.3,0.6C205.9,57.9,205.6,58.5,204.9,58.9z
	"/>
<path class="st24" d="M146.8,142.3c0-0.7-0.1-1.3-0.1-2c-0.9-3.4-0.7-7-1.1-10.5c-1.5-2.1-2.4-4.3-2.5-6.9c-0.1-2.1,0.2-3.6,2-4.6
	c0.1,0,0.3-0.1,0.4-0.1c0.8,2.1,1,4.3,1.2,6.5c0.4,5.3,0.9,10.6,0.6,16C147.2,141.3,147.2,141.9,146.8,142.3z"/>
<path class="st25" d="M137.7,68.5c0.5-1.2,1.5-0.9,2.5-1c3.7,2.5,5.9,5.9,7.1,10.1c-0.5,1.8-1.5,1.1-2.2,0.3
	c-0.6-0.6-0.9-1.4-1.8-1.7c-0.1-1.3-0.3-2.2-1.6-3C140,72.1,139.2,69.9,137.7,68.5z"/>
<path class="st26" d="M205.4,56.5c-0.3,0.3-0.5,0.7-0.8,1c-0.1-0.8-1-1-1.3-1.6c-0.3-0.5,0.3-0.8,0.6-1.1c0.6-0.4,1.5-0.3,1.9-1.2
	c0-0.2,0.1-0.4,0.2-0.4c2-0.7,3.8-2.1,6-2.1c0.1,0,0.3,0.1,0.5,0.1c0.2,0.6,0.2,1.3,0.1,1.9C211.2,55.9,208,57.3,205.4,56.5z"/>
<path class="st27" d="M144,112.1c0.8,2,1.4,4,1.5,6.2c-0.1,0.1-0.2,0.1-0.2,0.2c-2,0.4-3.2-0.4-3.7-2.4c-0.1-0.6-0.4-1.2-0.7-1.8
	c-1.1-2.3-0.6-4.1,1.4-5.6c0.3-0.1,0.5-0.1,0.7,0.1l0,0C143.3,109.8,143.2,111.1,144,112.1z"/>
<path class="st28" d="M143.4,76.1c0.7,0.1,2.2-1.3,1.8,1c-0.1,0.8,1.1,1,2.1,0.4c1.4,3.6,1.9,7.3,1,11.1c-0.3-0.2-0.4-0.5-0.5-0.8
	c0-0.2-0.1-0.4-0.1-0.7c0-0.2,0-0.4,0-0.7c-0.3-1.4,0.4-3.5-2.2-3.5c-0.2-0.1-0.3-0.3-0.3-0.5c0.7-1.5-0.3-2.2-1.2-3.1
	C143.6,78.3,142.8,77.4,143.4,76.1z"/>
<path class="st29" d="M144,100.2c-1.2-1.4-1.1-2.8-0.2-4.4c0.5-0.9,0.1-2.4,1.6-2.9c0.7-0.5,1.3-0.3,2-0.1c0.1,0.2,0.1,0.4-0.1,0.5
	C146.6,95.8,145.7,98.2,144,100.2z"/>
<path class="st30" d="M89.7,55c0.1,0,0.3,0,0.4,0c0.4,0.4,1.1,0,1.5,0.5c1.4,0.4,2,1.5,2.4,2.8c-3-0.8-6.1-1.6-9.1-2.3
	c0.6-0.3,0.7-0.9,1-1.5l0,0c0.6-0.4,1.3-0.3,1.9,0c0.3,0,0.6,0,0.9,0.1C89,54.8,89.4,54.7,89.7,55z"/>
<path class="st31" d="M104.6,114.9c-0.7,0-1.2-0.3-1.7-0.7c-1.2-0.8-1.2-1.1-0.5-2.5c0.1-0.1-0.1-0.4-0.2-0.7
	c0.3-0.6,0.8-1.2,1.4-1.5c0.1,0.1,0.2,0.1,0.3,0.2c0.7,0.8,0.8,1.9,1.3,2.8c0.1,0.2,0.1,0.4,0,0.5c1.2,0.7,3,0.3,3.7,1.9
	c0.1,0.4,0.6,0.9,0.1,1.2c-0.5,0.4-1.3,0.4-1.7-0.1C106.5,115.4,105.7,114.9,104.6,114.9z"/>
<path class="st32" d="M139.1,62.6c0.1-0.1,0.1-0.3,0.2-0.4c0.6-0.6-0.7-1.7,0.3-2.1c1.5-0.5,2.9-1.1,4.5-1.2c0.6,0,0.8,0.5,0.9,0.9
	c0.3,0.8,1,0.9,1.7,0.9c-0.9,0.8-2,0.3-2.9,0.6C142.3,61.8,140.7,62.2,139.1,62.6z"/>
<path class="st33" d="M139.6,103.9c0.6-0.3,0.3-1.2,1-1.4c0.9,0.1,1.4,0.5,1,1.5c0.1,0.1,0.1,0.2,0,0.3c0.3,0.8,0.1,1.6-0.4,2.2
	c-0.9,1.1-0.2,1.6,0.5,2.3c-1,1.8-2.1,1.2-3.2,0.2c-1.1-1-2.2-2-0.8-3.6C138.1,104.8,138.7,104.1,139.6,103.9z"/>
<path class="st34" d="M168.8,58.8c0-0.8,0.2-1.4,1.2-1.4c2.4,0,4.9,0,7.3,0c1,0,1.3,0.8,1.6,1.5C175.6,58.8,172.2,58.8,168.8,58.8z"
	/>
<path class="st35" d="M58,51.7c0.5,0,1.1,0.1,1.4-0.1c2.4-1.9,4.9-0.4,7.3-0.2c0.6,0.1,0.8,0.7,0.8,1.3c0.1,0.1,0.2,0.2,0.1,0.3
	c0,0.1-0.1,0.1-0.1,0.1c-2.8-0.3-5.5-0.9-8.4-0.9C58.8,52.2,58.3,52.1,58,51.7z"/>
<path class="st36" d="M188,59.3c0-0.9,0.3-1.4,1.4-1.4c1.6,0.1,3.3,0,4.9,0c0.7,0.1,1.1,0.9,1.8,0.8c0.3-0.1,0.5-0.2,0.6-0.5
	c0.2-0.3,0.4-0.5,0.7-0.5c1.3-0.1,0.5,1.8,1.7,1.7c-1.3,0.7-2.8,0.5-4.2,0.4C192.6,59.7,190.3,59.5,188,59.3z"/>
<path class="st37" d="M84.4,54.1c0,0.5,0,0.9,0,1.4c0.1,0.1,0.2,0.2,0.1,0.3c0,0.1-0.1,0.1-0.1,0.1c-2.3-0.2-4.5-1.1-6.8-1.5
	c0-0.9,0.4-1.4,1.4-1.4c1.5-0.1,2.9,0.6,4.4,0.5c0.1,0,0.3,0,0.4,0C84.1,53.8,84.3,53.9,84.4,54.1z"/>
<path class="st38" d="M50.8,50.7c1.1,0.1,0.8-1.6,1.9-1.4c1.5,0.3,3,0.6,4.4,0.9c0.8,0.2,0.9,0.8,0.9,1.5
	C55.6,51.8,53.2,51.4,50.8,50.7z"/>
<path class="st39" d="M199.2,59.4c-0.5-0.1-1.3,0.2-1.2-0.9c0.1-0.5-0.4-0.5-0.8-0.6c0.2-1.1,0.8-0.8,1.4-0.5c0.5,0,1.2,0.2,1.6,0
	c1.8-0.7,2.9,0,3.7,1.5C202.4,59.6,200.8,59.4,199.2,59.4z"/>
<path class="st40" d="M69,53.1c0.4-1.1,1.1-1.7,2.3-1.2c0.3,0.1,0.6,0.2,0.9,0.2c2,0,3.8,0.5,4.9,2.4C74.5,54,71.8,53.6,69,53.1z"/>
<path class="st41" d="M179,58.9c0.4-0.1,1,0,1.3-0.4c0.3-0.6,0.6-1.1,1.4-1c1.2,0.1,2.4-0.2,3.5,0.3c0.6,0.3,0.7,1,1,1.5
	c-2.2,0.2-4.4-0.3-6.6-0.1C179.4,59.3,179.2,59,179,58.9z"/>
<path class="st42" d="M102.7,108.2c-0.7-2.6-0.7-2.6,1.6-3.3c-0.2,1.3-0.3,2.5,1.3,3c0.7,0.2-0.2,1.1,0,1.7
	c-0.6,0.4-1.3-1.1-1.9,0.1l-0.1-0.2C103.3,109.1,103,108.7,102.7,108.2z"/>
<path class="st43" d="M134.3,172.4c0.8-1.7,1.7-3.3,2.5-5.1c0.4-0.9,1-1.2,1.9-0.7c0.3,0.1,0.6,0.1,0.9,0.1
	C138.3,169,136.5,170.9,134.3,172.4z"/>
<path class="st44" d="M205.4,56.5c2.8-0.2,5.3-1.2,7.2-3.3c-0.2,2.1-1.3,3.7-3.4,4.3c-1.4,0.6-2.7,0.5-3.8-0.5
	C205.4,56.8,205.4,56.6,205.4,56.5z"/>
<path class="st45" d="M94.5,58.5c1,0.2,0.8-1.5,1.7-1.3c0.8,0.2,1.4,0.7,2.2,0.9c1.4,0.5,2.9,0.9,3.3,2.7
	C99.3,59.9,96.9,59.2,94.5,58.5z"/>
<path class="st46" d="M44.6,48.9c0.9-0.5,1.2-2,2.9-1.1c1,0.5,2,0.7,2.3,2c0.1,0.3,0.5,0.6,0.7,0.9C48.3,50.4,46.5,49.6,44.6,48.9z"
	/>
<path class="st47" d="M39.4,41.7c0.2,1.5,1.1,2.5,2.3,3.2s1.7,1.6,1.4,3c-2.2-0.9-3.5-2.6-4.2-4.8c-0.2-0.8-0.4-1.7,0.4-2.4
	C39.3,41,39.3,41.4,39.4,41.7z"/>
<path class="st29" d="M141.5,108.7c-2.2-0.5-2.3-0.7-0.9-2.3c0.5-0.6,0.8-1.3,1-2.1c0.8,1.4,1.2,2.8,1.4,4.4c-0.2,0-0.4,0-0.6,0.1
	C142.1,109,141.8,109,141.5,108.7z"/>
<path class="st48" d="M147.3,93.4c0-0.2,0-0.3,0-0.5c-0.6-0.6-0.2-1.4-0.2-2c0.1-0.7-0.7-0.9-1-1.4c-0.1-0.2-0.2-0.4-0.2-0.7
	c0.1-1.6,0.9-2,2.3-1.2c0,0.4,0.1,0.7,0.1,1.1C148.3,90.3,148.3,91.9,147.3,93.4z"/>
<path class="st49" d="M205.4,57c1.3-0.2,2.5,0.7,3.8,0.5c-1.2,1.1-2.8,1.1-4.3,1.4C205.3,58.3,205.4,57.6,205.4,57z"/>
<path class="st50" d="M141.6,104c0-0.7-0.6-1-1-1.5c0.5-1.1,1.5-1,2.5-0.9C142.9,102.6,142.1,103.2,141.6,104z"/>
<path class="st29" d="M144,112.1c-1.3-0.8-1.2-2.1-1-3.4C143.7,109.7,144,110.8,144,112.1z"/>
<path class="st51" d="M96.4,93.4c0,1,0,2,0,3c-0.7-1.1-0.5-2.3-0.5-3.4c0.2,0,0.4,0,0.5,0C96.5,93.1,96.6,93.2,96.4,93.4
	C96.5,93.3,96.5,93.4,96.4,93.4z"/>
<path class="st9" d="M84.4,55.9c0-0.1,0-0.3,0-0.4c0.7,0.1,0.9-0.7,1.4-1c0.1,0.8-0.1,1.4-1,1.5C84.7,56,84.6,56,84.4,55.9z"/>
<path class="st5" d="M137.7,53.6c-0.2,0.4-0.6,0.5-1,0.5C136.9,53.7,137.3,53.6,137.7,53.6z"/>
<path class="st5" d="M138.6,53.1c-0.2,0.4-0.6,0.5-1,0.5C137.9,53.2,138.2,53.1,138.6,53.1z"/>
<path class="st40" d="M67.6,53.1c0-0.1,0-0.3,0-0.4c0.2,0.1,0.3,0.3,0.5,0.4C67.9,53.1,67.8,53.1,67.6,53.1z"/>
<path class="st0" d="M383.9,159.7c-3.8-2.3-6.5-5.7-8.6-9.5c-2-3.8-3.3-7.8-4.3-11.9c-2-8.6-2.3-17.4-2-26.2
	c0.1-2.8,0.1-5.6-1.4-8.1c-0.4-0.5-0.4-1.2-0.5-1.8c-1.2-6-3.3-11.8-6.5-17.1c-2.5-4.2-6.4-6-11.2-5.1c-2.9,0.5-5.3,1.9-7.1,4.2
	c-0.7,0.9-1.3,1.2-2.4,0.9c-5.4-1.3-10.8-1.2-16.1,0.4c-21.3,6.3-36,19.7-43.9,40.4c-2.7,7-3.4,14.4-1.9,21.9
	c1.6,8.3,5.9,15.2,12.3,20.6c9.9,8.4,21.3,12.6,34.3,11.2c12.5-1.3,22.2-7.5,29.9-17.2c0.5-0.7,0.8-1.6,1.8-2.1
	c1.8,3.1,3.6,5.9,5.7,8.6c3.2,3.9,6.8,7.4,11.2,10c4.7,2.8,9.7,1.9,13.1-2.3C390.7,171.1,390.1,163.6,383.9,159.7z M345.9,117.8
	c-0.1,8.7-1.6,17.1-5.2,25.1c-1.5,3.4-3.4,6.5-5.9,9.2c-5.7,6.1-12.5,8-20.4,5.3c-3.3-1.1-6.3-2.7-8.9-5c-5.4-4.7-7.2-10.8-5.4-17.6
	c3.7-13.6,12.3-23,25.8-27.6c5.3-1.8,10.4-1.1,14.9,2.4c1.2,0.9,2.6,1.6,4.1,1.8c0.8,0.1,1.1,0.5,1.1,1.2
	C345.9,114.4,345.9,116.1,345.9,117.8z"/>
<path class="st0" d="M620.1,141.2c7-0.4,13.9-1.7,20.4-4.7c7.2-3.3,12.6-8.4,15.2-16c2.1-6,2.4-12.2,1-18.4
	c-2.2-10-8.5-16.4-17.7-20.2c-7.5-3.1-15.4-3.9-23.5-3c-16.4,1.8-29.1,9.4-37.2,23.8c-9.7,17.3-10.4,35.4-3.6,53.8
	c3.5,9.6,9.4,17.6,18,23.3c9.5,6.2,19.9,8.4,31.1,7.1c10.1-1.2,19.1-5.1,27-11.4c4.7-3.8,5-9.3,1-13.8c-4.3-4.7-11.6-5.9-16.8-1.5
	c-2.1,1.8-4.5,3.3-7.1,4.4c-3.8,1.6-7.6,2.4-11.7,1.8c-5.1-0.8-9.3-3.3-12.8-6.9c-5.3-5.5-8.2-12.1-9.9-19.6c0.7,0,1,0,1.3,0
	C603.2,141.4,611.6,141.7,620.1,141.2z M603.1,107.5c5.8-4,12.1-6.7,19.1-7.7c2-0.3,4-0.3,6,0.2c3.8,0.8,6.2,3.1,7,6.9
	c0.8,3.9-0.1,7.3-3.4,9.8c-2.5,1.8-5.5,2.6-8.5,3c-6,0.9-12,0.5-17.9-0.2c-3.4-0.4-6.8-0.9-10.2-1.7
	C596.8,113.4,599.4,110.1,603.1,107.5z"/>
<path class="st0" d="M241.5,139.6c2.5-0.6,4.8-1.4,7.1-2.3c11.8-4.8,18.1-13.6,18.7-26.4c0.6-13.4-5.9-23.8-18.3-28.9
	c-7.9-3.3-16.1-4-24.5-3c-17,2-29.8,10.5-37.6,25.8c-8.5,16.5-8.9,33.8-2.6,51.2c3.2,8.8,8.3,16.4,15.8,22.1
	c10.5,8,22.5,10.5,35.5,8.5c9.2-1.4,17.5-5.2,24.8-11.1c4.7-3.8,5.1-9.3,1-13.8c-4.4-4.8-11.5-5.8-16.6-1.6
	c-2.2,1.8-4.6,3.4-7.3,4.5c-3.8,1.6-7.6,2.5-11.7,1.8c-4.7-0.8-8.7-3-12.1-6.3c-5.7-5.6-8.9-12.4-10.6-20.3c4,0.5,7.8,1,11.7,1.4
	C223.8,141.9,232.7,141.7,241.5,139.6z M204.8,117.7c1.6-4.2,4-7.4,7.5-9.9c6-4.2,12.5-7,19.8-8c2.3-0.3,4.6-0.2,6.9,0.5
	c4,1.3,6.1,4.7,6,9.3c-0.1,3.7-1.9,6.3-5.1,8s-6.6,2.2-10.2,2.5c-8.1,0.5-16.1-0.6-24-2.1C205.4,118,205.2,117.8,204.8,117.7z"/>
<path class="st0" d="M996,110.2c-4-6.3-9.1-11.5-15.8-15c-5.8-3.1-11.9-4-18.3-2.3c-2.5,0.7-4.7,1.9-7,3.2c-0.6-0.7-1.1-1.4-1.8-2.2
	c-2.2-2.4-4.9-3.5-8.2-3c-1.8,0.3-3.4,1.2-4.9,2.3c-8.2,6-14.6,13.6-18.9,22.8c-4.9,10.5-6.6,21.6-3.8,32.9
	c5.2,20.8,18.5,34,39,39.4c14.7,3.9,27.4-0.3,37.3-11.9c6.7-7.9,10.3-17.1,11.4-27.4C1006.5,135,1003.6,122,996,110.2z M980.9,155.4
	c-0.6,1.5-1.4,2.9-2.3,4.2c-4.4,6.5-10.9,9.1-18.5,7.3c-14.7-3.5-20.6-15.2-21.5-25.1c-0.7-8.1,1-15.7,5.7-22.5
	c0.5-0.6,0.9-1.4,1.9-2c1.7,7.4,5.4,10.4,12,9.6c6.4-0.8,10-5.5,9.9-13.2c2.5,0.8,4.5,2.2,6.1,4c5,5.5,8.1,12,9.1,19.4
	C984.2,143.4,983.4,149.5,980.9,155.4z"/>
<path class="st9" d="M97.4,54.5c-0.6,0-1.5,0.1-1.7-0.6c-0.4-1.4-1.2-1-2.2-0.9c-0.7,0.1-1.5,0.3-2-0.5c1,0,2.2,0.4,2.6-1.2
	c0.2-0.9,1.2-0.7,1.4,0.3C95.9,52.9,96.2,54,97.4,54.5z"/>
<path class="st9" d="M91.6,52.6c-0.5,0-1.1,0.1-1.5-0.5C90.7,52.1,91.3,52.1,91.6,52.6z"/>
<path class="st52" d="M97.8,149c0.4-0.1,1.2-0.2,0.5-0.8c-0.5-0.4-1.1-0.6-1-1.4c0.1-0.7-0.3-1.6,1.2-1.4c1.2,0.2,1.5-0.6,1-1.8
	c-0.1-0.3-0.2-0.6-0.2-0.9c0.5-0.2,0.9,0.1,1.3,0.3c2.6,1.4,4.3,1.1,6.1-1.3c2.2-2.9,3-6.3,3.7-9.7c0.6-0.9,1.4,0.2,2-0.2
	c0.2-0.1,0.4-0.2,0.6-0.3s0.4-0.1,0.6-0.2c1.2,0.3,1.8,1.5,2.8,2c-0.2,2.5,0.1,5.1-1.3,7.4c-1.7,0.2-1.7,0.2-3.7,2.8
	c0.6,0.5,1.1-0.8,1.6,0c0.4,0.7,0.1,1.4-0.4,1.9c-0.6,0.6-1.1,1.1-2,1.1c-1.1,0-1.5,0.7-1.5,1.7c-0.1,1.3-1.8,2.3-2.8,1.6
	s-1.5-0.7-2.5,0.3c-0.8,0.8-2.5,0.9-3.8,1.1c-0.7,0.1-1.4,0-2.1,0C97.1,150.6,97.3,149.8,97.8,149z"/>
<path class="st53" d="M137.2,138.9c-0.5,0-1,0-1.4,0.6c-0.9,1.1-1,1.1-1.7-0.2c-0.1-0.3,0-0.7-0.3-0.8c-0.5-0.1-1.3-0.8-1.4,0.5
	c0,0.5,0.2,1.3-0.7,1.1c-0.6-0.1-1.3-0.4-0.9-1.3c0.2-0.5,0.2-0.9-0.2-1.3c-0.5-0.5-0.4-0.8,0.2-1c0.1-0.1,0.3-0.3,0.3-0.3
	c-1.2-1.3,0-3.1-1.1-4.5c-0.8-0.5-1.8-0.2-2.6-0.6c-0.7-1.3-1.9-0.8-2.9-0.8c-2,0-4.2,1.1-6.1-0.4c-0.8-0.8-0.4-1.5,0.4-1.9
	c1.2-0.8,2.4-2,3.9-1.1c1.6,0.9,2.9,1.1,4.5,0.3c1.1-0.5,2.1,0.6,2.9,1.3c1,0.8,1.6,1.4,2.7,0c2.2-2.6,5.3-2.5,8.3-2
	c0.7,1.4,0.5,2.4-1.1,3c-1.4,0.5-0.8,1,0.1,1.5c0.2,0.1,0.4,0.2,0.6,0.4c1.5,2.1,0.9,4.3,0.6,6.6C140.2,139,138.8,139.4,137.2,138.9
	z"/>
<path class="st54" d="M127.6,131.2c1.4-0.9,1.4-0.9,2.4,0.5c0,5.5-2.2,10-6,13.8c-2.9,2.9-6.7,1.9-8.1-2c-0.3-0.9-0.6-1.8-0.9-2.7
	c0.1-2.6,0.5-5.1,1-7.7c-0.4-1.1,0.2-1.9,0.6-2.8c0.1-0.2,0.3-0.3,0.5-0.4c0.3-0.1,0.7-0.1,1,0c0.2,0.1,0.4,0.2,0.5,0.4
	c0.3,0.4,0.5,0.8,0.6,1.2c0,0.3,0,0.7,0,1c-0.3,1.7,0,3.5-0.3,5.2c0,0.2-0.1,0.4-0.1,0.7c-0.2,1.7-0.3,3.7,1.4,4.4
	c1.5,0.5,2.2-1.5,3-2.6c0.9-1.2,1.5-2.6,2-4C125.8,134.5,126,132.5,127.6,131.2z"/>
<path class="st55" d="M97.8,149c0,0.8,0,1.6,0,2.4c-0.3,0.6-0.8,0.3-1.2,0.2c-1-0.1-1.9-1-3.1-0.4c-0.2,0.1-0.7-0.6-1.1-0.9
	c-0.4,0.6-0.8,1.1-1.1,1.7c0.6,0.6,1.6,0.5,1.9,1.6c-0.8,0.5-1.6,1.1-2.4,1.6c-0.3,0.2-0.7,0.4-0.9,0.3c-1.3-1.2-2.4-0.2-3.7,0.1
	c-0.4,0.1-0.9-0.1-1.4,0.2c0-1.6-0.2-3.2,0.2-4.7c0.2-0.7,0.1-0.9,1-0.5c0.9,0.5,0.9-0.6,0.7-0.9c-1.1-1.5-0.1-2.4,0.7-3.5
	c0.6-0.7,1.1-0.3,1.6-0.5c0.8-0.3,1.5-0.6,1.7,0.2c0.3,1-0.7,1-1.3,1.1c-0.3,0-0.7-0.1-0.7,0.4c0,0.2,0.1,0.5,0.3,0.6
	c0.3,0.2,0.8,0.5,1,0.1c0.6-1.1,1.8-0.9,2.7-1.2c2.1-0.6,3,0.2,2.9,2.5C96.5,149.1,97.2,149,97.8,149z"/>
<path class="st56" d="M137.2,138.9c1.1-0.8,2.7-0.2,3.8-1c0.6-1.8,0.1-3.7,0.3-5.5c0.1-0.9-0.7-0.9-1.2-1.2l0,0
	c-0.6-1.2,0.5-1.5,1.2-1.9s1.2,0.1,1.6,0.6c2,2.1,2,4.6,1.3,7.2c-0.1,0.1-0.2,0.2-0.3,0.3c-0.3,0.1-0.7,0.1-0.8,0.4
	c-0.2,1.5-0.9,1.6-2.3,1.3c-1.1-0.3-1.6,0.9-2.2,1.7C137.4,140.7,137.1,140,137.2,138.9z"/>
<path class="st1" d="M113.3,154.1c-0.4,0-1.7-1-1.7-1.5s0.4-1,0.9-0.9c0.8,0.1,1.8-0.2,2.4,0.8C115,152.8,113.8,154,113.3,154.1z"/>
<path class="st56" d="M139.1,140.8c0.4,0,0.8-0.1,1.1,0c1,0.2,1,0.7,0.3,1.4C140.7,141.2,139.5,141.4,139.1,140.8z"/>
<path class="st53" d="M133.6,140.5c0.3,0.1,0.5,0.3,0.6,0.6c0,0.3-0.2,0.4-0.4,0.3c-0.3-0.1-0.6-0.2-0.6-0.6
	C133.1,140.6,133.3,140.5,133.6,140.5z"/>
<path class="st1" d="M127.3,148.1c0.1-0.1,0.1-0.3,0.2-0.4c0.1,0,0.3,0.1,0.4,0.2c-0.1,0.1-0.1,0.3-0.2,0.4
	C127.6,148.3,127.4,148.2,127.3,148.1z"/>
<path class="st57" d="M179.4,51.7c-0.9,0-1.2,0.7-1.3,1.4c-0.1,1.3-0.9,1.4-1.9,1.4c-1.8,0-3.6,0-5.4,0c-1.3,0-2.6,0.1-2.9-1.6
	c-0.1-0.4-0.3-0.7-0.8-0.7s-1,0.4-1,0.8c0,1.4-0.9,1.6-2.1,1.5c0-0.1,0.1-0.1,0.1-0.2c0.1-0.9-0.2-1.8,1-2.3
	c1.3-0.5,2.4-0.5,3.3,0.5c0.5,0.5,0.9,0.5,1.5,0.5c0.5,0,1.1-0.4,1.4-0.2c1.1,0.9,1.5,0.2,1.8-0.7c0.2-0.5,0.3-0.9,0.9-0.9
	c1.2,0,2.4-0.1,3.5-0.7c0.2-0.1,0.6-0.1,0.7,0c1,1.4,2.6,0,3.8,0.8c0.3,0.2,0.6-0.2,0.7-0.5c0.1-0.3,0.1-0.6,0.1-0.9
	c0-0.7,0.1-1.4,1-1.4c0.8,0-0.1,1.1,0.5,1.3c1.6-0.7,3.2-1.5,4.3-2.8c0.5-0.5,1.1-0.8,1.7-0.6c0.8,0.3,1.3,0.5,1.4-0.7
	c0-0.4,0.7-0.3,1.1-0.3c0.8,0,1.6,0,2.4-0.1c1.7-0.2,3.1,0.9,2.8,2.5c-0.2,1.5,0.7,1.3,1.6,1.4c-0.5,1.6-1.8,1.2-2.9,1.2
	c-1.3,0-2.4,0.7-3.5,0.8c-2.5,0.2-3.3,2.5-5.1,3.3l0,0c-0.4-0.6,0-1.6-1-1.9l0,0c-0.8-0.4-1.3-0.5-1.9,0.5c-0.9,1.5-1.2,1.2-2.8,0.2
	C181.5,52.8,180.4,52.3,179.4,51.7z"/>
<path class="st58" d="M188.1,54.5c0.4-2,2.7-2.3,3.4-3.9c0-0.1,0.4-0.1,0.4-0.1c0.8,2.4,1.1-0.2,1.7-0.2c1,0.1,1.8-1,3.1-0.4
	c0.5,0.3,2,0.2,2.8-0.7c0.3-0.6,1.2-0.3,1.4-1c1.1-0.1,0.6,1.2,1.5,1.5c1.9,0.6,1.9,0.8,3.6-0.2c0.5,0.5,1,1.1,1.6,1.6
	c-1.2,0.8-2.6,0.5-3.9,0.5c-0.7,0-1.4-0.3-1.9,0.4c-0.4,0.5-0.3,1,0,1.4c0,0.2,0,0.3,0,0.5c-1.6,0.3-3,0.9-4.1-1.3
	c-0.6-1.2-2.2-2.2-4-1.6c-0.6,1.1-0.6,2.2,0,3.3C191.9,55.2,190,55.4,188.1,54.5z"/>
<path class="st59" d="M154.5,55.1c-2.7,0.3-5.4,1.5-8.2,0.5c1.1,0.1,2.1-0.4,3.1-0.8c1-0.4,2.1-1,3.3,0
	C153.2,55.2,153.9,55,154.5,55.1z"/>
<path class="st12" d="M144,53.6c0,0.8-0.1,1.5-0.1,2.3c0,1-0.7,1.1-1.4,1c0.5-0.5,1.1-1,1-1.9C143.4,54.5,143.4,53.9,144,53.6z"/>
<path class="st59" d="M155.5,52.2c-0.3,0.9,0.3,2-0.5,2.8C155.1,54.1,154.5,53,155.5,52.2z"/>
<path class="st12" d="M140.1,57.5c-0.7,0.3-1.3,1.4-2,0C138.8,57.5,139.4,57.5,140.1,57.5z"/>
<path class="st12" d="M136.7,55.6c-0.5,0-0.9,0-1.4,0C135.8,54.9,136.2,54.9,136.7,55.6z"/>
<path class="st12" d="M141.6,57c-0.4,0.5-0.9,0.5-1.5,0.5C140.4,56.9,141,57,141.6,57z"/>
<path class="st12" d="M137.7,57c-0.4-0.2-0.5-0.5-0.5-0.9C137.6,56.2,137.7,56.6,137.7,57z"/>
<path class="st59" d="M146.3,55.5c-0.4-0.2-0.5-0.6-0.5-1C146.2,54.8,146.3,55.1,146.3,55.5z"/>
<path class="st59" d="M145.8,54.6c-0.2-0.2-0.3-0.3-0.5-0.5C145.5,54.2,145.7,54.4,145.8,54.6z"/>
<path class="st12" d="M138.2,57.5c-0.2-0.2-0.3-0.3-0.5-0.5C137.8,57.1,138,57.3,138.2,57.5z"/>
<path class="st59" d="M145.4,54.1c-0.2-0.2-0.3-0.3-0.5-0.5C145,53.8,145.2,53.9,145.4,54.1z"/>
<path class="st12" d="M137.2,56c-0.2-0.2-0.3-0.3-0.5-0.5C136.9,55.7,137,55.9,137.2,56z"/>
<path class="st4" d="M188.4,41.5c-0.1,0.1-0.1,0.3-0.2,0.4c-0.1,0-0.3-0.1-0.4-0.2c0.1-0.1,0.1-0.3,0.2-0.4
	C188.1,41.3,188.2,41.4,188.4,41.5z"/>
<path class="st60" d="M117.5,130.3c-0.2,0-0.3,0-0.5,0.1c-1.6-0.3-2.4,1.4-3.9,1.4l0,0c-0.2,0.2-0.3,0.3-0.5,0.5
	c-0.9,1-1.5,0.4-1.9-0.5c-0.4,0.2-0.7,0-0.9-0.2c-1.6-2.8-0.9-4,2.1-3.9c1.8,0.1,3.4-0.4,5.2-0.3c-2.8-1.2-5.7-1.9-8.7-2.3
	c0.5-1.1,1-1.8,2.5-1.4c0.9,0.3,1-1.3,2.1-1.3c-0.8-0.6-1.2-1.3-1.6-2c-0.6,0.1-0.9,0.4-1.2,0.6c-1.3,1.1-1.4,1.2-2-0.6
	c-0.2-0.6-0.4-0.6-0.8-0.3c-0.3,0.3-0.6,0.3-0.8-0.1c-0.1-0.1-0.1-0.3,0-0.4c0.4-0.6,2.1-1,2.6-0.6c1,0.8,1.7,1.3,1.8-0.6
	c0-0.4,0.7-0.4,0.9,0.1c0.3,0.6,0.5,1.4,0.8,2c0.6,0.9,1.2,0.9,1.9,0.1c0.3-0.4,0.6-0.7,0.7-1.2c0.1-0.6,0.6-0.5,0.9-0.4
	c0.5,0.1,0.6,0.4,0.5,0.9c-0.2,0.7-0.3,1.3,0.7,1.4c0.8,0.1,1.6-0.1,2.2-0.7c0.2-0.2,0.1-0.6-0.2-0.8c-0.7-0.4-1.1-1-0.9-1.8
	c1.6,0.3,3.1-0.4,4.7-0.7c2.7-0.5,3.7,0.7,2.8,3.2c-0.1,0.2,0.3,0.1,0.4,0.1c0.9,0.6,0.7,1.3,0.3,2.1c-0.4,0.7-1,0.7-1.6,0.3
	c-0.6-0.4-1.3-0.7-1.8-1.1c-0.6-0.6-1.1-0.5-1.7-0.1c-0.4,0.3-0.4,0.7-0.2,1.1c0.3,0.6,0.8,0.8,1.4,0.6c1-0.2,1.9-0.3,2.5,0.7
	c0.1,0.2,0.2,0.4,0.2,0.6c-0.1,0.4-0.3,0.7,0,1.2c0.1-2.5,2.1-3.6,3.9-4.8c-0.5-0.8-1.4-0.9-1.9-1.5c-0.6-0.7-0.4-1.4,0-2
	c0.6-0.9,1.1-0.2,1.5,0.3c0.9,1,2.3,1,3.4,1.6c0.2,0.1,0.4,0.2,0.6,0.2c2.4,0.1,2.4,0.1,2.9,1.9c0.6-0.9-0.2-2.5,1.1-2.8
	c0.8-0.2,1.2,0.5,1.6,1.1c0.2,0.7,0.5,1.2,1.2,1.6c2.2,1.3,2.5,2.4,1.4,4.9c-0.4,0.2-0.7,0.9-1.4,0.5c-1-0.6-2.2,0.3-3.3-0.3
	c-0.4-0.2-0.7,0.3-0.9,0.6c-0.6,0.5-1.1,1.1-2,1.3c-1.1,0.2-0.9,1.1-0.8,2.1c-0.9-0.2-1.6-0.3-2.3-1.1c-0.7-0.9-1.8-1.5-2.8-2.1
	c-0.3-0.2-0.9-0.1-0.5,0.6c0.4,0.8-0.3,1-0.6,0.6c-0.6-0.8-1.2-0.2-1.8-0.3c-0.7-0.1-1.9,0.8-1.9-0.9c0-0.1-0.6-0.4-0.8-0.4
	c-1.4,0.4-2.8,0.9-3.6,2.3c-0.1,0.1,0.1,0.3,0.1,0.4c-0.1,0.1-0.1,0.1-0.2,0.2C118,130,117.7,130,117.5,130.3z"/>
<path class="st61" d="M125.2,124.5c-0.6-0.5-1-1.1-2-0.7c-1.7,0.6-1.8,0.5-2.7-1.3c-0.1-0.3-0.3-0.5-0.4-0.7
	c0.3-0.9,1.2-0.5,1.6-0.9c0.8-0.9,1.5-0.8,1.9,0.4c0.2,0.6,0.9,0.3,1.2,0.5c0.3,0.3,0.6,0.7,0.9,1.1c1.2-1.8,1.2-1.8-0.6-2.2
	c-0.4-0.1-0.8-0.2-1-0.6c0.1-0.1,0.1-0.2,0.2-0.2c0.6-0.1,1.3,0.7,1.7-0.1c0.4-0.7-0.2-1.4-0.6-1.9c-0.4-0.6-1.1-0.7-1.7-0.4
	c-0.3,0.1-0.6,0.6-0.7,0.5c-1.5-0.7-1.7,0.3-1.7,1.4c-1.2-0.4-1.5-1.7-2.7-1.6l0,0c-0.3-0.5,0.2-0.7,0.5-1l0,0
	c0.2-0.2,0.3-0.2,0.5,0c0.3-0.3,0.6-0.6,1-1c0.7-0.4,1.4,0.4,2.1,0.2c0.8-0.2,2.1,0.1,1.2-1.6c-0.7-1.5,0.1-2,1.6-1.4
	c1,0.6,2,1,2.2,2.3c0.1,0.4,0.7,0.4,0.8,0.2c0.3-0.3-0.3-0.3-0.4-0.6c-0.1-0.4-0.2-0.7,0-1.1c1.1-2.3,3.8-3.2,6.2-2.2
	c0.3,0.2,0.5,0.4,0.7,0.7c0.1,0.2,0.1,0.4,0.1,0.7c-0.6,1.2-2.1,0.4-2.9,1.3c1.2,0.9,2.2,0.4,3.1-0.5c0.2-0.1,0.4-0.1,0.6,0
	c0.6,0.5,0.6,1.5,1.8,1.4c1.3-0.1,1.8,1.2,2.4,2.2c0.6,1.7,0.2,2.7-1.9,2.3c-0.6,0.2-0.9-0.9-1.4-0.5c-0.7,0.5-0.5,1.2,0.1,1.9
	c0.1,0.1,0.1,0.4,0.2,0.7c-0.8,0.4-1.5,0.8-2.3,0.7c-0.6-0.9,0.8-1.3,0.3-2c-0.8-0.7-1.8,0.9-2.6-0.2c0-0.1,0.1-0.1,0.1-0.2
	c-0.2,0.3,0-0.1-0.1,0.2c-0.6-0.3-1.2-0.4-1.8-0.6c-1.1-0.4-2.4-0.5-2.5-2.2c-0.9,1.2-1.2,2,0.4,2.3c0.5,0.1,0.9,0.3,1.3,0.6
	c0.6,0.4,0.4,1.3-0.1,1.3c-1,0-1.1,1.1-1.5,1.1c-1.3,0.1-1.4,1.3-2.1,2c-0.5,0.5-0.6,1,0.3,1.2c0.2,0.1,0.4,0.3,0.2,0.5
	c-0.1,0.2-0.4,0.3-0.6,0.3C124.9,126.6,124.7,126.1,125.2,124.5z"/>
<path class="st62" d="M104.6,127.4c0.4-0.2,0.1-1.2,1-1c0.8,0.8-0.5,2.1,0.8,2.7c0.6,0.3,0.5,1.7,1.7,0.9c0.4-0.2,0.7,0.5,0.7,1
	c0,0.2,0,0.5-0.1,0.7c-0.1,0.5-0.2,0.9-0.2,1.4c-0.7,2.4-1.9,4.7-3.2,6.8c-0.5,0.9-1.3,1.7-2.5,1.5s-1.6-1.2-2-2.1
	c-0.5-1.4-0.8-2.9-0.6-4.4c0.3-2.1,1-4.2-0.4-6.2c0.4-0.6,1.1-0.5,1.6-0.8c0.4-0.2,0.8-0.2,1,0.2s0.1,0.7-0.2,1
	c-0.3,0.3-0.5,0.6,0,0.9c0.3,0.2,0.6,0,0.8-0.3c0.4-0.5,0.7-1,1.1-1.5C104.1,128,104.2,127.6,104.6,127.4z"/>
<path class="st60" d="M125.2,113.5c-0.4-0.1-0.8-0.6-1.3-0.1c-0.3,0.5-0.1,0.9,0.3,1.2c0.3,0.2,0.7,0.3,1,0.5
	c-2.1,2.2-2.6,2.2-4.9,0.8c0.1-0.4,0.2-0.8,0.3-1.1c0.1-0.2,0-0.6-0.2-0.6c-1.1,0.2-2.1,0.3-3.2,0c-0.1,0-0.3,0.2-0.3,0.3
	c-0.1,0.7,0.5,2.2-1.3,1.2c-0.1,1.1-1.2,1.4-1.6,2.2c-0.1,0.2-0.1,0.5-0.6,0.3c-0.1-1.1,0.6-2.1,0.8-3.2c0.3-1.3-0.5-1.1-1.2-1.1
	c-0.4,0-0.8-0.1-0.9-0.6s0.3-0.7,0.7-0.8c0.6-0.1,1.3,0,1.9-0.2c1.1,0,2.1-0.4,3.1-1c0.7-0.5,1.5-0.9,2.4-0.5c0,0.1,0.1,0.2,0.2,0.2
	s0.2-0.1,0.1-0.2c0.5-0.9,1.5-0.8,2.3-0.8c0.6,0,1.3,0.1,1.8-0.4s1-1.2,1.8-0.6c0.7,0.5,0.4,1.3,0.2,1.9c-0.4,0.7-0.9,1.5-1.2,2.2
	C125.4,113.4,125.3,113.4,125.2,113.5z"/>
<path class="st63" d="M108.4,131.7c-0.4-1.6-0.5-1.6-1.4-0.8c-0.3,0.3-0.3,0.9-1,0.9c-0.6-0.5,0-0.8,0.2-1.2
	c0.2-0.3,0.3-0.8,0.1-0.9c-1.8-0.8-0.6-2.2-0.8-3.4c1.5,0.2-0.2,1.6,0.8,2.1c1.5-0.1,2.4-1.9,4.2-1.3c-0.1-1.5-2.2-0.8-2.1-2.2
	c0.9,0,1.7,0.1,2.6-0.3c0.5-0.2,1.4-0.4,1.6-0.1c0.9,1.6,1.7,0.6,2.5,0c0.7,0.7-0.3,1.1,0,1.6c0.7,0.4,1.3-0.1,2-0.2
	c0.8-0.1,1.3,0.3,1.3,1s-0.6,0.9-1.1,1.1c-0.4,0.2-0.8-0.1-1.1-0.2c-1.7-0.4-3.4,0.8-5.2,0.1c-0.4-0.1-1.2,0.1-1.7,0.7
	c1,0.4-0.1,1.6,0.7,2.1c0.1,0.1,0.2,0.2,0.3,0.4C109.8,131.9,109.2,132.2,108.4,131.7z"/>
<path class="st64" d="M114.6,112.5c0,1-0.7,0.5-1.2,0.5c-0.3,0-0.7-0.2-0.8,0.2c0,0.2,0.3,0.5,0.5,0.7l0,0c-0.5,1.1-1.1,1.9-2.4,1
	c-0.2-0.4-0.6-0.5-1-0.5c-0.3,0.3-0.7,0.2-1,0.5l0,0c-1.4-0.6-2.7-1.2-4.3-1c-0.3,0-0.7-0.2-0.6-0.6c0.1-0.5,0.7-0.2,1-0.3l0,0
	c-1.1-0.8-1.1-2.1-1.4-3.3c0.6-1.2,1.2-0.5,1.9-0.1c0.2,0,0.3,0,0.5,0c0.4,0,0.7,0.2,1,0.5c0.2,0.2,0.3,0.3,0.5,0.5
	c2.2,0,4,1.6,6.2,1.7c0.2,0,0.5,0,0.7,0C114.5,112.4,114.6,112.5,114.6,112.5z"/>
<path class="st65" d="M99.8,128.8c1-0.1,1.5,0.3,1.4,1.3c0,1.6,0.1,3.3-0.5,4.9c-1.7,0.7-1.6,2.6-2.4,3.9c-0.9-1.2-0.5-2.6-0.3-3.9
	c0.2-1.1,0.3-2.2,0.4-3.3C99.2,131,99.2,129.8,99.8,128.8z"/>
<path class="st60" d="M110.8,114.9c1,0.1,1.8-0.1,2.4-1c0.3,0.9-0.7,1.3-0.7,2.1c0,0.4-0.4,0.7-0.8,0.4c-0.6-0.5-1,0-1.4,0.4
	C110.1,115.9,110.6,115.5,110.8,114.9z"/>
<path class="st63" d="M104.6,127.4c0,0.4-0.1,0.8-0.5,1c-0.2-0.2-0.3-0.3-0.5-0.5s-0.3-0.3-0.5-0.5c-0.5-0.7,0-0.8,0.5-0.6
	C104,126.9,104.3,127.2,104.6,127.4z"/>
<path class="st60" d="M119,116.9c-0.2,0.3-0.3,0.6-0.5,1c-0.3,0-0.7,0-0.6-0.4C118,116.9,118.5,116.9,119,116.9z"/>
<path class="st31" d="M108.9,114.9c0.2-0.4,0.6-0.5,1-0.5C109.6,114.8,109.3,114.9,108.9,114.9z"/>
<path class="st60" d="M119.4,116.9c-0.2,0-0.3,0-0.5,0c0-0.2,0-0.6,0.2-0.6C119.5,116.3,119.4,116.6,119.4,116.9z"/>
<path class="st62" d="M103.1,127.4c0.2,0.2,0.3,0.3,0.5,0.5C103.4,127.7,103.3,127.6,103.1,127.4z"/>
<path class="st66" d="M112.2,81.9c0.3,0.1,0.8,0.4,0.9-0.2c0.1-0.4-0.2-0.9,0.2-1.3c0.7,0.2,0.5,1.5,1.5,1.1
	c1.2-0.5,1.9-2.1,1.6-3.6c-0.2-0.8-0.2-0.8-2-0.7c0-0.7,0.9-0.6,1.1-1.2l0,0c1.6-1.1,2.7-0.6,2.9,1.4c0.1,1,0.1,1.1,1.1,1.1
	c0.6,0,2.3-0.6,1.6,1.3c-0.1,0.2,0.3-0.1,0.5-0.1c1.8,0,1.7-2.1,3-2.6c1.2-0.5,1.7-1.6,1.5-3c0.2,0,0.3,0,0.5,0
	c2.6,0.7,2.8,1,2.4,3.5c1.2-2.3,3.3-2,5.2-1.8c1.2,0.1,1.9,1.1,1.8,2.4c-0.5,1.2-1.4,1.8-2.6,1.4c-1-0.4-1.2,0.3-1.5,1
	c-0.4,0.8-0.9,1.5-1.6,2.1c-0.1,0.5-1.8,0.2-0.7,1.5c0.5,0.6,0.2,1.4-0.4,1.9c-0.7,0.6-1.4,0.6-2.1,0c-0.2,0.1,0.3-0.6-0.3-0.2
	c-0.7,0.3-1.3,0.2-1.9-0.2c-0.2-0.1-0.3-0.3-0.5-0.4c-0.3-0.3-0.6-0.6-0.9-0.8c-1.3-0.8-2.6-1.3-4.1-0.9c-1.6,0.4-2.8,1.2-2.8,3.1
	c0,0.3,0-0.1,0,0.2c-0.1,0.8,0.2,1.9-0.9,2.3c-1,0.3-0.9-1.2-1.9-1.4c-1.1,2.7-4.3,2.6-6.4,4.3c-0.7,0.6-2.3,0.7-3.3-0.4
	c-0.9-1.1-1.1-2.3-0.2-3.5c0.2-0.3,0.4-0.5,0.7-0.7c0.3-0.2,0.7-0.2,1-0.1c0.2,0.1,0.4,0.2,0.5,0.4c0.6,0.2-0.5,1.1,0.7,1.2
	s1.1-0.7,1.2-1.4c0.5-0.6,1.2-1,1.9-1.3c1.7-0.4,2.3-1.4,1.6-3.1C111.8,82.7,111.8,82.2,112.2,81.9z"/>
<path class="st67" d="M126.2,74.2c0.1,0.2,0.1,0.5,0.2,0.7c1.2,1.4,1.2,1.3-0.5,1.9c-0.6,0.2-0.9,1.1-1.7,1.4
	c-1.2,0.4,0,1.3-0.2,2.2c-1.4-0.5-2.7,0.3-4.2,0.4c0-0.9,1.1-0.7,1.2-1.5c-1.1-0.8-2.2,0.3-3.2,0.4c-0.4-0.5-0.4-1.1-0.1-1.4
	c1-1.1-0.7-1.5-0.7-2.4c0-0.3-1,0.1-1.5,0.3c0.1-0.5-0.2-1.3,0.7-1.3c1.2,0.1,1.4-0.6,1.1-1.5s0.2-1.2,0.8-1.3
	c0.4,0,1.3,0.1,0.7,0.9c-0.6,0.9,0.2,1.8,0,2.7c0,0.2,0.4,0.7,0.9,0.6c0.3-0.1,0.6-0.4,0.5-0.7c-0.2-0.7,0-1.2,0.8-1.6
	c0.3,1.2,1.1,2.3-0.5,3.2c-0.3,0.2-0.6,0.6-0.3,1c0.3,0.4,0.7,0.3,1.1,0c1.9-1.2,2.3-3.3,0.9-5.3c-0.1-0.2-0.2-0.4-0.4-0.9
	c1.9,0.4,3.9-1,5.4,1c-0.7,0.4-1.1-0.1-1.6-0.2c-0.5,0-1-0.1-1.2,0.4c-0.3,0.8,0.4,1,0.9,1.1C125.5,74.5,125.9,74.3,126.2,74.2z"/>
<path class="st67" d="M135.8,78.5c-0.1-1.1-0.7-2.4-1.7-2.2c-1.5,0.3-3.4-0.8-4.4,1.3c-0.2,0.5-0.4,1.1-1.1,1.1
	c-0.1-0.1-0.2-0.3-0.2-0.4c1-2.1,0-3.3-1.8-4.2c0.5-0.2,1-0.7,1.6-0.4c1.1,0.6,1.5,0.2,1.8-0.8c0.2-0.5,0.8-1,1.3-0.3
	c0.8,1.1,1.9,1.6,3.2,1.7c0.7,0,0.3,0.8,0.9,1.1c0.4-0.7,0.3-1.9,1.9-1.7c0.9,0.1,0.8-1.5,0.8-2.4c0.1,0,0.2-0.1,0.3-0.1
	c1.8,1.8,1.9,2.3,0.4,4c-0.7,0.8-1.1,1.4,0.3,1.8c0.2,0.1,0.5,0.2,0.7,0.3c0.6,0.4,1.5,0.7,1.3,1.5s-1.2,0.7-1.9,0.6
	c-0.7-0.2-1.4-0.3-2.2-0.1c-0.2,0-0.4,0-0.6-0.1c-0.2-0.1-0.3-0.2-0.5-0.4C135.8,78.7,135.8,78.6,135.8,78.5z"/>
<path class="st67" d="M132.4,69.4c0.8,0.8,1.5,1.6,2.2,2.3c0.3,0.3,0.2,0.8,0,1.1c-0.3,0.4-0.7,0.4-1.1,0.2
	c-0.8-0.3-2.1-0.4-1.3-1.8C132.5,70.7,131.8,70.2,132.4,69.4z"/>
<path class="st67" d="M138.1,71.4c-1.4-0.2-1.4-0.2-0.9-1.5c0.1,0,0.2-0.1,0.3-0.1C138.1,70.1,138.5,70.6,138.1,71.4L138.1,71.4z"/>
<path class="st67" d="M136.7,69.4c0.2-0.2,0.3-0.3,0.5-0.5c0.3,0.3,0.3,0.6,0,0.9l0,0C137,69.7,136.9,69.6,136.7,69.4z"/>
<path class="st67" d="M133.8,69.4c0.1,0,0.2,0.1,0.2,0.1C134,69.7,133.9,69.6,133.8,69.4L133.8,69.4z"/>
<path class="st26" d="M137.2,69.9c0-0.3,0-0.6,0-0.9c0.2-0.2,0.3-0.3,0.5-0.5c1.4,0.2,2,1.4,2.7,2.4c0.8,1,1.2,2.4,2.9,2.5
	c0.7,0,1.1,0.9,0.5,1.7c-0.3,0.3-0.4,0.7-0.4,1.1c0.3,1.1,0.7,2.2,1,3.3c0.5,0.9,1.8,1.5,1,2.9c0,0.2,0,0.3,0,0.5
	c0.7,1,0.8,1.9-0.1,2.9c-0.8-0.7-0.4-1.6-0.4-2.4c0-1.1-0.3-1.9-1.6-1.4c-0.5,0.1-0.9,0-1.3-0.4c-0.2-0.7-0.4-1.4-0.5-2.1
	c-0.3-1.6-1.2-2.3-2.9-1.8c-1.6-0.8-1.7-1.3-0.8-2.3c0.5-0.6,1.7-0.6,1.6-1.5c0-0.9-0.6-1.7-1.3-2.4
	C137.9,70.8,137.7,70.2,137.2,69.9z"/>
<path class="st7" d="M122.9,68.2c-0.1,0.1-0.3,0.2-0.4,0.2s-0.2-0.1-0.3-0.2c0.1-0.1,0.3-0.2,0.4-0.2S122.8,68.2,122.9,68.2z"/>
<path class="st56" d="M146.3,138.9c-0.9,0-1.4,1-2.4,1c0.3-0.8,0.4-1.6,0-2.4l0,0c0.2-0.2,0.5-0.3,0.7-0.4
	C146,136.9,146.9,137.2,146.3,138.9z"/>
<path class="st68" d="M98.3,138.9c0-0.5,0-1.1,0-1.6c0.1-1.8,0.4-2.1,2.4-2.3c-0.1,1.6,0.1,3.2,0.7,4.7c0.8,1.8,1.8,2,2.9,0.4
	c1.6-2.3,2.7-4.8,3.5-7.5c0.3-0.3,0.2-0.7,0.5-1l0,0c0.6-0.2,1.3-0.3,1.9-0.5c0.2,0.2,0.3,0.3,0.5,0.5c-0.1,4-1.4,7.5-3.8,10.6
	c-2.2,2.9-4.5,2.9-7.7,0.4C98.9,141.5,98,140.4,98.3,138.9z"/>
<path class="st6" d="M89.8,137.6c0.3,0.1,0.6,0.3,0.5,0.6c0,0.2-0.2,0.4-0.5,0.4c-0.3-0.1-0.5-0.3-0.5-0.7
	C89.4,137.7,89.6,137.6,89.8,137.6z"/>
<path class="st17" d="M120.4,111.6c-0.6-0.8-1.4-0.5-1.8,0c-0.7,0.8-1.7,0.7-2.4,1.4c-0.8,0.8-1-0.2-1.5-0.4l0,0
	c-0.1-0.1-0.2-0.2-0.4-0.3l-0.1-0.2c0.4-0.8,1.2-1.3,1.9-1.8c0.6-0.4,1.2-0.7,0.9-1.4c-0.4-0.7-1.2-1.4-2-1.1
	c-1.4,0.6-2.1-0.9-3.3-0.8c-0.7,0-0.1-1,0.1-1.6c0.6-0.7,1.2-1,2-0.4c0.4,0.2,0.5,0.1,0.6-0.4c1.3-0.8,2.3-0.7,3.3,0.5
	c0.7,0.9,1.9,1.1,3,1.8c-1.6-1.6-1.1-3.1,0-4.5c1.3-0.6,3-0.5,3.7-2.2c0.2-0.2,0.3-0.3,0.5-0.3c0.9,0.5,2.4-0.2,2.8,1.4
	c-1.1,1-2,2.2-3.2,3.2c1,0.7,1.9,1.1,3,0.4c0.3-0.2,0.8-0.5,1.1-0.3c2,1.7,2.8-0.7,4.1-1.3c0.9,0.2,1.1-1.8,2.3-0.6
	c0.1,0.4,0,0.9-0.2,1.3c-0.1,0.2-0.2,0.4-0.3,0.5c-0.5,0.4-0.3,0.8,0,1.2c0.1,0.2,0.2,0.4,0.2,0.6s0,0.4-0.1,0.7
	c-0.5,1.1-1.4,2.2-2.6,2.1c-2.3-0.3-3.8,0.9-5.3,2.1c-0.2,0.1-0.4,0-0.6-0.1c0-0.2,0.1-0.5,0.1-0.7c0.1-0.4,0.5-0.9-0.2-1.1
	c-0.5-0.2-0.5,0.3-0.7,0.7c-0.4,0.9-1.1,1.2-2.1,0.8C122.2,110.4,121.2,110.6,120.4,111.6z"/>
<path class="st69" d="M104.6,88.1c0.3,0.8-1,1.2-0.5,2.2c0.8,1.7,2.3,2.2,3.9,1.1c0.6-0.5,1.3-0.9,1.8-1.6c0.2-0.4,0.5-0.4,0.9-0.4
	c1.6,0.1,2.1-0.4,2.2-1.9c0.1-0.7,0.4-0.8,0.9-0.7c0.9,0.2,1.5,0.8,1.9,2.1c0.6-0.7,0.3-1.6,0.4-2.3c1.6,0.4,3.2,0.7,2.8,3
	c-0.3,0.7-0.3,1.5-0.6,2.1c-0.2,0.3-0.4,0.4-0.7,0.6c-0.2,0.1-0.5,0.2-0.8,0.3c-0.1,0.1-0.5,0.1-0.2,0.5c0,0.1,0,0.2,0,0.3
	c-0.1,0.2-0.2,0.3-0.3,0.5c-0.9,0.5-1.3-0.2-1.8-0.7c-0.3-0.4-0.7-0.6-1.4-0.7c0.8,0.5,1.1,1.1,1.3,1.9c0,0.2,0,0.4-0.1,0.7
	c-0.9,0.9-1.6,0-2.3-0.3c-0.6-0.3-1.3-1.6-1.8,0.1c-1,0.3-2.2,0.3-3.2,0.7c-0.8,0.4-0.7,1.5-1.6,1.7c-0.2,0-0.3,0-0.5,0
	c-0.9,0.3-0.5-0.8-1-1c0-0.2,0-0.3,0-0.5c-0.1-0.6,0.2-1.5-0.9-1.2c-0.7,0.2-1.2-0.2-1.9-0.2c-0.5,0-1.1-0.1-1.3,0.3
	c-0.8,1.6-1.3,1.3-1.9-0.2c-0.3-0.7-0.9-1.1-1.7-1.1c0-0.2,0-0.3,0-0.5s0-0.3,0-0.5c0.2-0.3,1.3-0.6,0-1c0-0.8,0-1.6,0-2.4
	c1.3-0.6,2.6-0.9,3.8,0.1c0.9,0.8,1.1-0.1,1.6-0.6C102.6,87.8,103.3,86.5,104.6,88.1z"/>
<path class="st70" d="M120.9,102.5c-0.4,0.7-0.4,1.5-0.5,2.3c-0.3,1.2,0,1.7,1.5,1.3c-0.8,1.1-1.5,1.3-2.3,0.7
	c-0.9-0.6-2-0.7-2.5-1.9c-0.5-1.1-1.7,0.2-2.3-0.5c-1.3-0.9-1.4-1.8,0-2.7c0.2-0.1,0.3-0.3,0.2-0.3c-0.1-0.1-0.2,0-0.3,0.1
	c-0.1,0.1-0.3,0.1-0.4,0c-1,0-1-0.7-1-1.4c-0.1-0.1-0.1-0.1-0.2-0.2c0-0.2,0.1-0.4,0.2-0.5c0.2-0.2,0.3-0.4,0.5-0.7
	c0.1-0.3,0.3-0.5,0.5-0.6c0.3,0,0.5,0.1,0.7,0.2c0.4,0.2,0.1-0.3,0.3-0.3c0.4-0.2,0.7-0.3,1.1-0.2c0.9,0.2,1.1,0.8,1,1.6
	c0.5-0.2,1-0.6,1.6-0.1c0.6,0.4,1.2,0.8,1.8,1.2C121.4,101.1,121.7,101.8,120.9,102.5z"/>
<path class="st71" d="M114.2,98.2c0,0.3,0,0.6,0,1c-0.3,0.3-0.7,0.2-1,0.5s-0.6,0.3-1,0c0-0.4-0.1-0.8-0.4-1.1
	c-0.7-0.4-0.8,0.7-1.3,0.6c-0.3-0.1-0.4-1.2-0.9-0.6c-0.9,0.9-1.6,0.1-2.4,0.2c-1.1,0-1-1.1-1.6-1.5c0.6-0.7,0.2-1.8,1-2.4
	c0.2,0.2,0.4,0.5,0.6,0.7c0.7,0.7,1.5,1.8,1.8-0.3c0.1-0.5,0.9-0.5,1.3-0.9c0.5-0.2,0.4-1.6,1.5-0.5c0.5,0.5,1.3,1.3,2.3,1
	c1.3,0,1.8,1,1.9,2C116.2,98.1,114.5,97.2,114.2,98.2z"/>
<path class="st17" d="M114.2,112.5c-2.5,0.2-4.6-0.7-6.7-1.9c0.4,0,0.8-0.1,0.8-0.6c0-1,0-2-0.6-2.9c0.8-0.9,2-0.7,2.8-1.5
	c0.8,1.2-0.4,1.6-0.7,2.3c-0.2,0.4-0.4,0.7-0.2,1.1c0.3,0.4,0.6,0.3,1,0.3c1.2-0.2,2.5-0.3,3.7-0.5c0.2,1-0.4,1.4-1.1,1.7
	c-0.4,0.1-1-0.3-0.8,0.6c0.1,0.6,0.3,1.1,1,0.9c0.2,0,0.5,0,0.7,0l0,0c0.1,0.1,0.1,0.2,0.1,0.3C114.2,112.5,114.2,112.5,114.2,112.5
	z"/>
<path class="st72" d="M114.2,101.5c0.5-0.2,0.1-1,0.7-1.1c0.4-0.1,0.7-0.4,1,0.1c0.2,0.3,0.1,0.6-0.2,0.9c-0.1,0.1-0.3,0.2-0.4,0.3
	c-1.4,0.6-1.3,1.6-0.7,2.8c0,0.6,0,1.2,0,2.3c-0.9-1.2-1.6-2.1-2.9-1.4c-0.9-0.4-1-1.1-1-1.9l0,0c-0.7,0-1-0.4-0.9-1.1
	c0.1-1,0.7,0,1-0.2C111.9,101.7,113.2,102.5,114.2,101.5z"/>
<path class="st42" d="M107,110.2c-0.4,0-0.7-0.1-1-0.5c0.3-0.4,0.3-1,1-1.3C107,109,107,109.6,107,110.2z"/>
<path class="st22" d="M104.1,96.3c0.3,0.3,0.6,0.6,1,1c-0.2,0.4-0.4,1-1,0.7c-0.4-0.2,0-0.7,0-1S104.1,96.5,104.1,96.3z"/>
<path class="st72" d="M112.2,99.6c0.3,0,0.6,0,1,0c0,0.2,0,0.3,0,0.5C112.8,100.1,112.5,100,112.2,99.6z"/>
<path class="st9" d="M87.8,54.5c-0.6,0-1.3,0-1.9,0C86.5,53.9,87.1,53.9,87.8,54.5z"/>
<path class="st9" d="M91.6,55.6c-0.5,0-1.1,0-1.5-0.5C90.7,55.1,91.3,54.9,91.6,55.6z"/>
<path class="st9" d="M89.7,55c-0.4,0-0.8-0.1-1-0.4C89.1,54.6,89.5,54.6,89.7,55z"/>
<path class="st9" d="M84.4,54.1c-0.2-0.2-0.3-0.4-0.5-0.5C84.1,53.7,84.3,53.9,84.4,54.1z"/>
<path class="st73" d="M198.6,57.4c-0.5,0.1-1.1-0.1-1.4,0.5c0,0.3,0,0.6,0,0.9c-0.1,0.2-0.3,0.4-0.5,0.5c-1.2,0.2-2-0.2-2.4-1.4
	c-0.4-0.5-1.2-0.9-0.6-1.8c0.4-0.5,0.4-1,0.1-1.6c1.2-0.6,2.1-0.4,2.6,0.9c0.3,0.7,0.8,1.1,1.4,0.5c0.7-0.8,1.2-0.6,1.7,0.1
	C200.3,57.1,198.8,56.8,198.6,57.4z"/>
<path class="st74" d="M179.4,51.7c0.4,0.1,0.8,0.2,1.1,0.3c1.1,0.4,2.2,1,3.4,0.2c0.2,1.2-1.1,0.9-1.2,1.7c0.9,0.3,1.9,0.1,2.1-0.6
	c0.4-2,1.3-1.2,2.3-0.7c-0.5,0-1.2-0.1-1.4,0.6c-0.3,1.2-1.2,1.3-2.2,1.3C180.6,54.7,180.6,54.7,179.4,51.7z"/>
<path class="st58" d="M187.1,52.7c1.3,0.1,0.9,1.1,1,1.9C187.4,54.1,187.6,53.2,187.1,52.7z"/>
<path class="st75" d="M146.3,138.9c0.2-1.5-0.9-1.4-1.9-1.4c-0.6-2.1-0.1-4.2-0.3-6.3c-0.1-1.2,0.9-1.9,2.2-1.8
	c0.3,3.7,0.7,7.4,0.4,11.1C146,140,146,139.5,146.3,138.9z"/>
<path class="st76" d="M146.3,129.3c-1.6,0.7-2.1,1.9-1.9,3.6c0.1,1.5,0,3,0,4.5c-0.2,0-0.3,0-0.5,0c0-2.7,0.6-5.6-2.1-7.6
	c-0.3,0.5-1.6,0.1-1.7,1.4c-0.3,0-0.6,0-0.9-0.1c-0.6-0.1-0.9-0.6-0.9-1.2c0-0.6,0.5-1.1,1-1.1c2,0.1,1.8-1.2,1.8-2.5
	c0-0.7,0-1.4,0-2.1c-0.1-1.2-0.3-2.1-1.9-2.2c-1.5-0.1-1.6-0.5-0.9-2.3c1.8-0.6,1.8-0.6,1.4-2.4c-0.6-1.9-1.7-3.2-3.8-3.3
	c-0.2,0-0.3-0.1-0.5-0.1c-0.4-0.2-0.2-0.7-0.5-0.9c0-0.1,0-0.3,0-0.4s0-0.2,0-0.3c0.2-0.6,0.8-0.9,1.1-1.4c0.3-1.7-1.5-2.6-1.6-4.1
	c0-0.1,0-0.3,0-0.4c0.3-0.3,0.1-0.7,0.3-1.1c0.1-0.3,0.3-0.5,0.5-0.7c0.4-0.4,0.8-0.8,1.1-1.3c0.1-0.2,0.2-0.3,0.4-0.5
	c0.3-0.3,0.6-0.5,1.1-0.3c1.9-0.6,1.9-0.6,2,1.5c-0.3,0.4-0.7,0.8-1,1.3c-0.5,0.7-1.8,1-0.9,2.3c1.4,1.9,2,2.1,3.8,1.2
	c0.3,0,0.6,0,0.9,0c-0.1,0.3-0.2,0.7-0.4,0.9c-1.7,1.4-1.2,3-0.5,4.7c0.2,0.5,0.5,1,0.6,1.5c0.2,1.5,1,2.2,2.5,2.2
	c0.2,0,0.4,0.3,0.6,0.4c-1.3,1.5-1.8,3.1-1.4,5.3c0.4,1.9,0.2,3.9,2.3,5C146.3,128.7,146.3,129.1,146.3,129.3z"/>
<path class="st17" d="M143,85.2c0,1.3,0,2.7,0,4c0,1-0.3,1.7-1.4,1.8c-0.2,0.2-0.4,0.2-0.6,0c-0.2-0.4,0.2-0.9-0.1-1.3
	c-0.5,0.4,0.1,0.8,0,1.2c0,0.2-0.1,0.4-0.2,0.6l0,0c-0.2,0.2-0.4,0.2-0.6,0.2c-1.5-0.3-1.2-1.8-1.9-2.7c-0.2-0.2,0.1,0.1-0.2-0.2
	c0.1,0.1,0.2,0.2,0.3,0.3c-1.4,1.8-0.7,3.6-0.2,5.4c-0.5,0.4-1.1,0.3-1.6,0.1c-2.7-1.4-2.8-4.5-4.3-6.6c1.8-0.3,3.5-1.2,5.1-2
	c1.9-0.1,3.9-1,5.2,1.2C142.1,86.3,141.7,85.6,143,85.2z"/>
<path class="st72" d="M143,85.2c-0.8,0.5-0.2,1.3-0.7,2c-1.1-1-2.4-1.4-3.8-0.7c-0.5,0.2-0.9,0.1-1.2-0.4c-0.7-1.5,0-3-0.2-4.5
	c1.1-1.2,1.3,0.7,2.1,0.6c0.3-1.2-2-2-0.4-3.3c0.6,0,1.3,0,2.2,0c-0.7-0.9-1.3-1.4-2.2-1.5c0.3-0.4,0.8-0.4,1.2-0.6
	c0.9-0.4,1.5-0.1,1.6,0.8c0.2,1.2,1.5,2.3,0.5,3.7c-0.2,0-0.3,0-0.5,0c-0.2,0.1-0.3,0.3-0.5,0.4c-0.8,1-0.4,1.6,0.6,1.8
	C142.6,83.9,143.1,84.3,143,85.2z"/>
<path class="st6" d="M136.2,94.3c0.6,0,1.3,0,1.9,0c0.1,0,0.2,0,0.3-0.1c0.4-0.2,0.8-0.3,1.2-0.4c0.7-0.1,1.4-0.1,1.9,0.5
	c-0.1,1.1-0.9,2-1.3,3c-0.3,0.9-0.7,1.2-1.7,1.3c-2.1,0.2-2.3,0.7-0.9,2.4c0.4,0.5-0.1,0.9,0,1.3c-0.3,0.2-0.6,0.4-0.9,0.5
	c-1.1-1-1.1-2.4-1.2-3.7c-0.1-1.1,0.3-2.2-1.3-2.8c-1.2-0.5-0.1-1.2,0.5-1.7c0.2-0.1,0.4-0.2,0.6-0.3c0.2-0.1,0.4-0.1,0.6-0.1
	C136,94.3,136.1,94.3,136.2,94.3z"/>
<path class="st77" d="M141.5,94.3c-0.8,0-1.6,0-2.4,0c-0.3,0.3-0.6,0.3-1,0l0,0c-2.5-2.6-2.5-2.6,0-5.3l0,0c0.3,0,0.7,0,0.7,0.4
	c-0.1,1,0.7,1.4,1.2,2c0.5,0.4,0,1.1,0.5,1.4c0.1,0,0.3,0,0.4,0c0.3,0.3,0.7,0.2,1,0.5C142,93.8,141.9,94.1,141.5,94.3z"/>
<path class="st78" d="M145.3,85.7c0-1,0-1.9,0.1-2.9c0.5-0.1,1.1-0.4,1.6-0.4c0.6,0,1.2,0.3,1.1,1c-0.3,1.1,0.4,2.2,0.2,3.3
	c-0.1,0.1-0.2,0.2-0.1,0.3c0,0.1,0.1,0.2,0.1,0.2c0,0.1,0,0.3,0,0.4c-1.8,0.1-1.8,0.1-1.9,1.9c-0.5,0.3-0.7-0.2-0.9-0.5
	C145.4,87.9,145.4,86.8,145.3,85.7z"/>
<path class="st79" d="M145.4,89.1c0.3,0.2,0.6,0.3,0.9,0.5l0,0c0.4,0.4,1.1,0.5,1.4,1c-0.2,0.8-0.3,1.6-0.5,2.4
	c-0.6,0.5-1.2,0-1.9,0c0.3-0.6,1.1-1.2,0.3-2C145.2,90.4,145.4,89.7,145.4,89.1z"/>
<path class="st80" d="M140.6,92.9c-0.6-0.3-0.5-0.9-0.5-1.4c0.2,0,0.3,0,0.5,0C140.6,91.9,140.6,92.4,140.6,92.9z"/>
<path class="st80" d="M140.6,91.5c0-0.2,0-0.3,0-0.5c0.1-0.2,0.3-0.2,0.5,0c0.2,0,0.3,0,0.5,0C141.3,91.4,141,91.5,140.6,91.5z"/>
<path class="st80" d="M142,93.4c-0.4,0-0.7-0.1-1-0.5C141.4,92.9,141.8,93,142,93.4z"/>
<path class="st26" d="M141,81.9c0.2-0.1,0.3-0.3,0.5-0.4C141.4,81.6,141.2,81.7,141,81.9z"/>
<path class="st81" d="M110.4,86.7c-0.7,0.3-1.1,0.9-1.9,1c-0.8,0.6-1.6,0.5-2.4-0.1l0,0c-0.8-0.4-1.8-0.5-2.3-1.5
	c-0.2-0.8-0.8-1.5-0.1-2.3l0,0c0.5-0.6,0-1.4,0.5-1.9c0.7-0.7,1.2-1.7,2.1-2.2c2.4-1.3,4.6-0.5,6,2.2c0,0.5,0,0.9,0,1.4
	C112.1,84.7,111.8,86,110.4,86.7z"/>
<path class="st51" d="M103.6,83.8c0.2,0.8,0.3,1.6,0.5,2.3c0.2,0.5,0.7,0.9,0.9,1.5c-0.2,0.2-0.3,0.3-0.5,0.5
	c-1.4-0.9-2.2,0.2-2.6,1.1c-0.3,0.8-0.8,1-1.5,1.5c-0.6-2.4-2.6-1.5-4.1-1.6c0.3-0.5,1.1-0.7,0.7-1.6c-0.4-0.7-0.2-1.4,0.1-2.1
	c0.2-0.5,0-1.4,0.6-1.4c1.1-0.1,1.8-1.2,2.8-0.9C101.6,83.4,102.7,83.1,103.6,83.8z"/>
<path class="st51" d="M96.4,91.5c0.8,0.3,1.1-1.5,2.3-0.5c-0.8,0.6-1.3,1.4-2.3,1.4C96.4,92.1,96.4,91.8,96.4,91.5z"/>
<path class="st51" d="M104.1,81.9c-0.1,0.7,0.1,1.4-0.5,1.9C103.7,83.1,103.4,82.4,104.1,81.9z"/>
<path class="st82" d="M203.9,51.7c1.2-0.9,2.6-0.5,3.9-0.5c0.3,0.6,0.6,1.1,1.4,0.5c0.5-0.4,1.2-0.7,1.8-1.1
	c0.6-0.3,0.8,0.1,1.1,0.5c-2.2,0.6-4,2-6.2,2.5C204.2,53.8,204.2,53.8,203.9,51.7z"/>
<path class="st83" d="M193.8,51.2c1-1,2.2-0.4,3,0s2.4,0.4,2,2.1c-0.1,0.5,0.3,0.7,0.7,0.7c0.8,0,1.6,0,2.4,0
	c-1.5,1-3.2,0.4-4.8,0.4c-0.7,0-0.8-0.8-0.9-1.5C195.9,51.7,195.2,51.1,193.8,51.2z"/>
<path class="st83" d="M202,53.6c-0.3-0.5-1.3-1,0-1.4C202,52.6,202,53.1,202,53.6z"/>
<path class="st78" d="M145.4,82.4c0.3-1.2-1-1.8-1-2.9C146.5,80.6,146.5,80.6,145.4,82.4z"/>
<path class="st48" d="M148.2,87.2c-0.1-0.1-0.1-0.2-0.2-0.4c0,0,0.1-0.1,0.2-0.1C148.2,86.8,148.2,87,148.2,87.2z"/>
<path class="st39" d="M196.7,59.3c0.2-0.2,0.3-0.3,0.5-0.5C197.1,59.1,196.9,59.3,196.7,59.3z"/>
<path class="st78" d="M147.7,90.5c-0.7,0-1.2-0.3-1.4-1C147,89.5,147.7,89.5,147.7,90.5z"/>
<path class="st53" d="M113.2,131.7c0.9-0.7,1.8-1.4,2.8-2.1c0.7-0.5,1,0,1.1,0.7c-0.3,0.9-0.7,1.9-1,2.8c-0.5,0-0.9,0-1.4,0
	c-0.6,0-0.9-0.1-0.6-1C114.4,131.5,113.5,131.9,113.2,131.7z"/>
<path class="st11" d="M101.4,147.3c-0.5,0.3-0.9,0.1-1.2-0.1c-0.2-0.1-0.7-0.2-0.5-0.6c0.2-0.4,0.6-0.5,1-0.2
	C101,146.6,101.3,146.8,101.4,147.3z"/>
<path class="st3" d="M110.5,145.3c-0.1,0.2-0.4,0.3-0.7,0.2c-0.2-0.1-0.3-0.3-0.2-0.5c0.1-0.2,0.4-0.2,0.6-0.2
	C110.5,144.8,110.7,144.9,110.5,145.3z"/>
<path class="st53" d="M112.7,132.2c0.2-0.2,0.3-0.3,0.5-0.5C113,131.9,112.9,132,112.7,132.2z"/>
<path class="st84" d="M127.6,131.2c-0.6,1.8-1.3,3.5-1.9,5.3c-1.6,1.9-3.9,2.2-6.1,2.9c-0.7,0.2-1.3,0-1.1-1l0,0
	c0.2-2.3,0.8-4.2,3.5-4.5c0.3,0,0.6-0.5,0.5-1.1c-1,0.5-1.9,1.5-3.1,0.9c-0.6-0.3-0.9-0.8-0.5-1.6c0-0.3,0-0.6,0-0.9
	c-0.3-0.3-0.2-0.7-0.5-1l0,0c-0.1-0.1-0.2-0.2-0.1-0.3s0.1-0.2,0.2-0.2l0,0c1.7,0.8,3.4,0.2,5.1,0.1c0.9,0,1.9-0.3,2.8-0.3
	C127.8,129.7,127.8,129.7,127.6,131.2z"/>
<path class="st76" d="M140.1,131.2c0.5,0,1.3,0,1.3,0.7c0,2,0.6,4.1-0.4,6c0-1.5,0-3,0.1-4.5C141.2,132.5,140.8,131.8,140.1,131.2z"
	/>
<path class="st85" d="M118.5,138.4c0.2,0.3,0.5,0.9,0.8,0.6c0.5-0.5,1.1-0.6,1.7-0.5c0.5,0.1,0.8,0,0.6-0.5
	c-0.1-0.4,0.1-0.6,0.4-0.7c0.6-0.2,1.5,1.2,1.8,0.1c0.4-1.4,1.5,0,1.8-0.8c-0.8,2.7-2.3,5-4.3,6.9c-0.9,0.8-1.5,0.9-2.1-0.2
	C118.5,141.7,117.6,140.2,118.5,138.4z"/>
<path class="st86" d="M119,132.2c0.1,0.7,0.3,1.4,1.1,1.3c0.7-0.1,1.6-0.1,1.8-1.2c0.1-0.5,0.2-1,0.8-0.9c0.6,0.1,0.6,0.7,0.6,1.1
	c0.1,1.6-1.2,2.9-2.9,2.8c-0.4,0-0.8-0.2-1.2,0.2c0.1,1,1.2,2.4-0.6,3c0-1.6,0-3.1,0-4.7C118.5,133.1,118.5,132.6,119,132.2z"/>
<path class="st53" d="M118.5,129.8c0,0.2,0,0.3,0,0.5c-0.3,0-0.6,0-0.9,0C117.7,129.9,118.1,129.8,118.5,129.8z"/>
<path class="st53" d="M118.5,130.3c0.4,0.2,0.5,0.6,0.5,1C118.6,131,118.5,130.7,118.5,130.3z"/>
<path class="st58" d="M196.1,48.3c0,0.3-0.2,0.4-0.5,0.4c-0.1,0-0.3-0.1-0.4-0.2c0.2-0.1,0.3-0.3,0.5-0.4
	C195.9,48.1,196,48.1,196.1,48.3z"/>
<path class="st87" d="M129.3,123.6c1.3-0.8,2.6-1.3,4-2.3c-0.3,1.1,0,1.8,0.7,2.5c0.6,0.6,0.3,1.2-0.6,1.2c-0.6,0-1.5,0.3-1.7-0.4
	C131.2,123.4,130.3,123.5,129.3,123.6z"/>
<path class="st60" d="M134.4,106.8c1.2,1,1.9,2.3,2.5,3.6c0.2,0.5-0.1,0.7-0.6,0.7c-0.5,0.4-1.1,0.5-1.6,0.8c-0.1,0-0.2,0.1-0.3,0.1
	c-0.2,0-0.3,0-0.5,0c-0.9,0.2-1.4-1.2-2.4-0.5c-1,0.8-2.1,1.7-3,2.6c-0.4,0.4-0.1,0.8,0.3,1c0.4,0.2,1,0.3,1.6,0.5
	c-0.9,0.9-2.1,0-2.8,0.9c-0.1,0.1-0.7-0.3-0.6-0.5c0.6-1.6-0.9-1.9-1.6-2.6l0,0c0.3-0.8,0.7-1.5,1.8-1.5c1,0.1,1.9-0.2,2.4-1.2
	c-0.9,0.2-1.7,1.2-2.7,0.3c0.4-1.1,1.9-1.4,2.2-2.7c0.1-0.3,0.4-0.3,0.8-0.1C131.9,109.2,133.1,108.8,134.4,106.8z"/>
<path class="st53" d="M134.8,113c0.3,0.2,0.5,0.5,0.5,0.9c-0.9,2-0.9,2.1-2.6,1.3c-0.5-0.2-1.1,0-1.6-0.3c0.1-0.9,0.6-1.3,1.5-1.5
	C133.4,113.2,134.2,113.8,134.8,113z"/>
<path class="st53" d="M135.8,114c2.8-0.5,2.9-0.4,3.8,2.4c0.1,0.3,0.1,0.6,0.1,0.9c-0.4-0.5-0.8-1-1.2-1.4c-0.3-0.3-0.6-0.5-1-0.2
	c-1.4,1.3-1.4,0.3-1.4-0.8C136,114.6,135.8,114.3,135.8,114z"/>
<path class="st60" d="M132.4,120.2c0-0.6,0.2-1.1,0.7-1.5C133.7,119.6,132.9,119.8,132.4,120.2L132.4,120.2z"/>
<polygon class="st60" points="125.2,124.5 125.3,124.3 125.4,124.4 "/>
<path class="st60" d="M134.8,112.6c-0.2-0.2-0.3-0.3-0.5-0.5l0,0C134.8,112,135,112.1,134.8,112.6L134.8,112.6z"/>
<path class="st63" d="M108.4,131.7c0,0.4-0.1,0.8-0.5,1C107.9,132.3,108,131.9,108.4,131.7z"/>
<path class="st85" d="M126.6,111.1c1.5,0.3,2.3-1.2,3.5-1.7c0.3,0.8-0.3,1.2-0.4,1.8c-0.2,1.1-1.1,1.4-2,1.3c-1-0.1-1.9,0-2.5,0.9
	c-0.1-1,0.1-1.8,1-2.4C126.3,111.1,126.5,111.1,126.6,111.1z"/>
<path class="st17" d="M120.3,112c0,0-0.1,0.2-0.3,0.3c-0.3,0.1-0.4-0.1-0.3-0.3c0.1-0.2,0.3-0.2,0.5-0.3
	C120.4,111.5,120.5,111.6,120.3,112z"/>
<path class="st31" d="M104.9,111.6c0,0.1-0.1,0.1-0.1,0.2c0-0.1-0.1-0.1-0.1-0.2s0.1-0.1,0.1-0.2
	C104.9,111.5,104.9,111.5,104.9,111.6z"/>
<path class="st31" d="M105,113c0.1,0,0.2,0.1,0.2,0.1C105.2,113.3,105.1,113.3,105,113L105,113z"/>
<path class="st60" d="M114.2,112.5c0-0.2,0-0.3,0-0.5c0.2,0.2,0.3,0.3,0.5,0.5C114.5,112.5,114.3,112.5,114.2,112.5z"/>
<path class="st88" d="M118.5,89.5c0.4-0.7,0.2-1.3-0.5-1.6c-0.7-0.3-1.4-0.7-1.9-1.3c0.2-2.7,2.3-4.3,5.1-3.7c1.1,0.2,2.1,0.7,3,1.4
	c0.3,0.3,0.2,0.7,0.5,1l0,0c0.3,0.6,0.1,1.2-0.3,1.7c-1.9,1.1-2.7,2.8-2.8,4.9c-1.1-0.2-2.2,1-3.4,0.2
	C118.4,91.2,118,90.3,118.5,89.5z"/>
<path class="st89" d="M137.2,81.4c0.7,1.6,0.4,3.2,0,4.8c-1.4,1.6-3.1,2.4-5.2,1.9c-0.1,0-0.2,0-0.3,0c-0.2,0-0.4-0.1-0.6-0.2
	c-0.2-0.1-0.4-0.2-0.5-0.4c-0.5-0.6-0.8-1.1-0.8-1.9c0.3-1.1-0.3-2.2,0.4-3.3c0.5-0.6,1-1.3,1.4-1.9c1.1-1.4,2.6-0.5,3.9-0.9
	C136.3,79.9,137,80.4,137.2,81.4z"/>
<path class="st90" d="M130,82.4c0,1.3,0,2.5,0,3.8c0,0.1,0.1,0.2,0.1,0.2c-0.7,1.7-2.4,1.2-3.7,1.4c-0.8,0.1-2.1,0.5-2.2-1.1
	c0.2-0.5,0.3-1,0.5-1.4c0.8,0.4,1.6,0.5,2.4,0.5l0,0c0.7,0.7,1.3,0.7,1.9-0.1c0.6-0.8,0-1.2-0.5-1.8c-0.3-0.3-0.8-0.6-0.8-1.3
	C128.6,82.6,129.5,83.3,130,82.4z"/>
<path class="st69" d="M106,87.6c0.8,0,1.6,0,2.4,0.1c0.8,1.8,0.7,1.9-1.2,1.8c-0.3,0-0.6,0-0.9,0s-0.6,0.2-0.9-0.1
	C105.9,88.8,106.6,88.4,106,87.6z"/>
<path class="st91" d="M135.7,80c-1.5-0.1-2.9-0.1-4.3,0.5c0.1-0.3,0.2-0.6,0.2-0.9c0-0.9,0.6-1.3,1.2-0.7c1.2,1.1,2,0.2,2.9-0.3l0,0
	c0.1,0.2,0.3,0.3,0.5,0.5l0,0C136.5,79.5,136.2,79.8,135.7,80z"/>
<path class="st92" d="M110.4,86.7c0.8-1,1.3-2.3,1.9-3.4C113.3,85.5,113.2,85.7,110.4,86.7z"/>
<path class="st69" d="M105,87.6c-0.6-0.3-1-0.8-0.9-1.5c0.6,0.5,1.3,1,1.9,1.5C105.7,87.6,105.4,87.6,105,87.6z"/>
<path class="st90" d="M127.1,85.7c0-0.2,0-0.5,0.1-0.7c0.1-0.3,0.3-0.6,0.6-0.3c0.2,0.2,0.1,0.6-0.1,0.8
	C127.6,85.6,127.3,85.6,127.1,85.7L127.1,85.7z"/>
<path class="st90" d="M124.7,85.2c-0.4-0.2-0.5-0.6-0.5-1C124.6,84.5,124.7,84.8,124.7,85.2z"/>
<path class="st66" d="M135.7,80c0.2-0.3,0.3-0.7,0.5-1c0.8,0.1,1.6-1,2.4,0c0,0.6-0.5,1.2,0.3,1.6c0.5,0.3,0.7,0.8,0.9,1.3
	c0.3,0.9-0.3,1.4-1,1.6s-0.6-0.5-0.7-0.9c-0.1-0.6-0.4-1-1-1.2C136.6,81,136.1,80.6,135.7,80z"/>
<path class="st66" d="M136.2,79c-0.2-0.2-0.3-0.3-0.5-0.5C135.9,78.7,136.1,78.8,136.2,79z"/>
<path class="st72" d="M131,87.6c0.2,0,0.3,0,0.5,0.1s0.3,0.3,0.5,0.4l0,0c1.1,0.8,2.4,1.5,2.4,3.2c0,1,0.4,1.7,1.4,2
	c0.4,0.1,0.4,0.6,0.4,1l0,0c-0.2,0.1-0.3,0.3-0.5,0.5c-0.2,0-0.3,0-0.5,0c-1.1,0.4-2.2,0.4-3.3,0.3c-2.4-0.2-3.5,0.5-4.7,3
	c0.8-0.1,1-1.7,2-0.8c1.1,2.5,0.7,3.3-1.8,3.7c-1-0.2-2-0.3-2.9-1c-1-1.5,1.3-2.8,0-4.3c-0.1,0.3-1.8-0.4-0.6,1.2
	c1,1.3-0.6,1.6-1.5,2.3c0.7,0.3,1.6,0.1,2.1,0.8c-0.3,2.3-2.1,2.3-3.8,2.4c0.1-0.7,0.1-1.4-0.7-1.8c-0.4-0.1-0.7-0.3-1.1-0.5
	c-1.2-0.8-1.1-0.8-1.9,0.5c-0.7-0.3-0.3-0.7-0.3-1.2c0-1.4-0.2-1.5-1.9-0.9c-0.3-0.2-0.6-0.3-1-0.5c-0.2-0.2-0.4-0.5-0.6-0.8
	c0.7-0.5,1.4,0,2.2-0.4c-0.3-0.9-1.1-1.5-1.6-2.2c0-0.2,0-0.3,0-0.5c0.1-0.6-0.2-1.5,1-1.4c0.3,0.8,0.8,0.9,1.4,0.5
	c0.2,0,0.3-0.1,0.2-0.3c-0.1-0.1-0.1-0.2-0.2-0.2l0,0c-0.1-0.1-0.1-0.2-0.1-0.3c0-0.1,0.1-0.2,0.1-0.2c0.2-0.2,0.3-0.3,0.5-0.5
	c0.2,0.3,0.6,0.2,0.9,0.3c0.2,0.1,0.3,0.3,0.5,0.4c0.3,0.2,0.4,0.5,0.5,0.7c0.8,1.4,1.5,1.3,1.9-0.2c0.2-0.5,0.5-0.9,0.7-1.4
	c0-0.3,0.2-0.6,0.2-0.9c0-0.9-0.8-2,0.4-2.4c1.4-0.5,3-0.6,4.3,0.5c0.9,0.8,0.9,1.7-0.2,2.3c0.6,0.2,1.6,0.7,1.3-0.9
	c-0.5-3-0.1-3.4,2.9-2.8C130.7,87.6,130.8,87.6,131,87.6z"/>
<path class="st17" d="M129,97.2c-1,0.3-0.6,1.7-1.8,1.9c-0.3,0-0.1-0.6-0.4-0.8c-0.8-0.5-0.5-1.1,0.1-1.5c0.8-0.6,1.7-1,2.1-2.1
	c0.2-0.7,1.2-0.9,1.6-0.6c1.5,1,3.2-0.1,4.7,0.7c-0.2,0.5-1,0.5-1.1,1.2c0.8,0.5,1.7,0.6,2.6,0.9c0.4,0.2,0.7,0.8,0,0.9
	c-0.9,0.1-0.8,0.4-0.6,1.1c0.3,1.4,0.5,2.8,0.7,4.1c0,0.1,0,0.3,0,0.4c-0.7,0.3-1.4,0.1-1.9-0.5c-0.4-0.5-0.8-0.4-0.9,0.2
	c-0.2,0.7-0.6,0.5-1,0.3c-2.7-0.1-3.5-2.8-1.6-6.2C130.4,97.6,129.7,97.6,129,97.2z"/>
<path class="st6" d="M129,97.2c1-0.2,1.9-0.5,2.9-0.7c0.2-0.1,0.5,0,0.6,0.3c0.1,0.1,0,0.4,0,0.4c-2.7,1-1.5,3.2-1.5,5
	c0,0.2,0,0.5,0.1,0.7c0.8,0.4,1-0.7,1.6-0.6c0.3,0.3,0.2,0.7,0.2,1.1c-0.7,0.2-0.4,1.5-1.6,1.4c-0.6,0-0.1,1-0.6,1.6
	c-0.3-1.1-1.3-1.2-2.1-1.5c-0.4-0.1-0.8,0-1,0.4c-0.1,0.3-0.2,0.7-0.6,0.7c-1-0.1-1.9-0.7-2.9-0.9c-0.5-0.1-0.8-0.7-0.8-1.5
	c1.1,0,1.9-0.3,2.2-1.5c0.2-1,1.3-0.7,1.9-1.2C129.8,99.9,129.8,99.9,129,97.2z"/>
<path class="st6" d="M134.8,103c0.7-0.1,1.3,0.1,1.9,0.5c-0.3,0.7-0.8,1.1-1.4,1.4c-0.1,0-0.2-0.1-0.2-0.1c-0.3-0.2-0.4-0.6-0.7-0.8
	C134.3,103.5,134.4,103.2,134.8,103z"/>
<path class="st6" d="M135.3,104.9c-0.2,0.2-0.3,0.3-0.5,0.5s-0.2,0.4-0.5,0.5c-0.6,0-1.2-0.2-1.2-0.8c0-0.8,0.7-0.5,1.2-0.6
	C134.7,104.4,135,104.6,135.3,104.9C135.2,104.8,135.3,104.9,135.3,104.9z"/>
<path class="st17" d="M135.2,104.8c-0.4,0-0.7-0.1-0.9-0.4c0-0.2,0-0.3,0-0.5C134.9,103.9,135.3,104.2,135.2,104.8z"/>
<path class="st60" d="M134.3,105.8c0.2-0.2,0.3-0.3,0.5-0.5c0,0.4-0.1,0.8-0.5,1C134.3,106.2,134.3,106,134.3,105.8z"/>
<path class="st93" d="M110.3,94.3c-0.2,0.7-1.8,1.1-0.3,2.1c0.3,0.2-0.3,0.7-0.7,0.7c-1.3,0.3-2.5-0.7-2.8-2.3
	C107.8,94.8,109,94.1,110.3,94.3z"/>
<path class="st71" d="M115.1,92.9c-0.6,0.3-0.3,1.2-1,1.4c-0.6-0.7-0.8-1.8-2.3-1.4C113.5,91.6,113.7,91.6,115.1,92.9z"/>
<path class="st71" d="M116.6,92.9c0.3,0.1,0.6,0.1,0.9,0.3c0.3,0.2,0.5,0.5,0.3,0.8c-0.4,0.5-0.7,0.1-1-0.2
	c-0.1-0.1-0.2-0.3-0.2-0.4C116.6,93.2,116.6,93.1,116.6,92.9z"/>
<path class="st72" d="M118.5,89.5c0,1,0,1.9,0,2.9c-0.1,0.2-0.3,0.2-0.4,0H118c-0.2-0.1-0.2-0.2-0.2-0.3c0.1-0.1,0.1-0.2,0.2-0.2
	C118.1,91.1,117.7,90.2,118.5,89.5z"/>
<path class="st71" d="M114.9,90.8c-0.1,0.1-0.1,0.3-0.2,0.4c-0.1,0-0.3-0.1-0.4-0.2c0.1-0.1,0.1-0.3,0.2-0.4
	C114.6,90.7,114.8,90.8,114.9,90.8z"/>
<path class="st71" d="M118,91.9c0,0.2,0,0.3,0,0.5c-0.4,0-0.7-0.1-0.9-0.5C117.4,91.9,117.7,91.9,118,91.9z"/>
<path class="st71" d="M116.6,92.4c0,0.2,0,0.3,0,0.5C116.2,92.7,116.2,92.6,116.6,92.4z"/>
<path class="st72" d="M115.5,98.9c0.1,0.2,0,0.3-0.2,0.3c0,0-0.1-0.1-0.1-0.2s0-0.3-0.1-0.4C115.2,98.7,115.4,98.8,115.5,98.9z"/>
<path class="st72" d="M113.2,99.6c0.2-0.4,0.6-0.5,1-0.5C114,99.5,113.6,99.6,113.2,99.6z"/>
<path class="st13" d="M110.8,103.4c0.2-0.3,0.4-0.5,0.8-0.2l0.1,0.2C111.4,103.9,111.1,103.4,110.8,103.4L110.8,103.4z"/>
<path class="st16" d="M195.8,57.8c-0.3,0-0.4-0.2-0.4-0.4s0-0.5,0.2-0.4c0.1,0,0.2,0.3,0.4,0.5C196,57.6,195.9,57.7,195.8,57.8z"/>
<path class="st53" d="M134.8,112.6c-0.2-0.2-0.3-0.3-0.5-0.5c0.2-1.3,1.2-0.9,1.9-1C135.9,111.7,135.5,112.2,134.8,112.6z"/>
<path class="st77" d="M141,91c-0.2,0-0.3,0-0.5,0c-0.1-0.2-0.2-0.4-0.4-0.6c-0.9-1.2-0.4-1.5,0.9-1.2c0.2,0,0.4-0.5,0.8-0.2
	C141.8,89.8,141.3,90.3,141,91z"/>
<path class="st77" d="M138.2,89.1c-0.9,0.1-1.6-0.2-1.6-1.2c0-0.2,0.2-0.5,0.4-0.4C138,87.5,138.2,88.2,138.2,89.1L138.2,89.1z"/>
<path class="st17" d="M138.2,94.3c0.3,0,0.6,0,1,0C138.8,94.8,138.5,94.8,138.2,94.3z"/>
<path class="st17" d="M135.8,94.8c0.2-0.2,0.3-0.3,0.5-0.5C136.1,94.5,135.9,94.7,135.8,94.8z"/>
<path class="st94" d="M110,81.4c-0.6,1.3-0.7,2.3-0.3,3.3c0.3,0.8-0.4,1.3-1.1,0.8c-0.9-0.6-1.4-0.5-2,0.2c-0.3,0.3-0.7,0.4-1.1,0.1
	c-0.3-0.3-0.4-0.7-0.1-1.1c0.2-0.3,0.4-0.7,0.7-0.9c1.1-0.7-1.4-2.2,0.6-2.6C107.6,82.1,108.6,81.5,110,81.4z"/>
<path class="st93" d="M131,87.6c-0.3,0.5-0.8,1-1.3,0.6c-0.5-0.3-0.8-1.3-1.4-0.3c-0.4,0.7-1.2,1.5,0,2.2c1.1,0.7-0.2,1.4,0.1,2
	c-0.2,0.1-0.5,0.3-0.6,0.2c-0.9-0.4-2.1-0.3-2.6-1.4c0.1-0.5,0.4-0.3,0.7-0.2c0.4,0.2,0.8,0.1,1-0.3s0-0.8-0.3-1.1
	c-0.7-0.7-3.4-1-4.3-0.5c-0.4,0.2-0.5,0.8-0.2,1c0.9,0.8-0.1,1.4-0.1,2c-0.2,0.2-0.3,0.2-0.4,0c-0.4-2.5,0.2-4.4,2.9-5.3
	c0.7,1.5,2,0.4,2.9,0.5c0.7,0.1,1.7-0.5,2.6-0.4c0.1,0,0.2-0.4,0.3-0.6C130.4,86.6,130.7,87.1,131,87.6z"/>
<path class="st95" d="M121.4,91.9c0.1,0,0.3,0,0.4,0c-0.3,0.6-0.4,1.2-0.5,1.8c0,0.7-0.3,1.3-1,1.4c-0.8,0.1-1.6-0.2-1.8-1.1
	c-0.2-0.5-0.3-1.1-0.5-1.6c0.1,0,0.3,0,0.4,0c0.1-0.1,0.3-0.2,0.3-0.3C120,90.7,120,90.7,121.4,91.9z"/>
<path class="st96" d="M132.5,81.9c0.7,0.6,1.5,0.6,2.5,0.3c0.5-0.2,0.8,0.5,0.4,1c-0.4,0.5-0.7,0.9-0.4,1.7c0.4,1.1,0.2,1.2-1,0.7
	c-0.6-0.3-0.9,0.1-1.2,0.4c-0.4,0.2-0.8,0.2-1-0.2c-0.2-0.3-0.3-0.6,0-0.9c0.6-0.7,0.7-1.3,0.1-2.1
	C131.5,82.4,131.9,82.1,132.5,81.9z"/>
<path class="st93" d="M131.9,88.1c-0.2-0.1-0.3-0.3-0.5-0.4C131.6,87.8,131.8,88,131.9,88.1z"/>
<path class="st97" d="M124.7,100.1c-2.4,0-2.4,0-3.6-1.1c0.6-0.7,1.5-0.2,2.2-0.7c0.3-0.2,0.8-0.4,0.7-0.8c0-0.3-0.3-0.5-0.6-0.7
	c-0.4-0.2-1-0.1-1.3-0.9c1-0.4,2.2-0.5,3-1.5C126.3,96.6,125.3,98.3,124.7,100.1L124.7,100.1z"/>
<path class="st6" d="M133.1,101.1c-0.1,0.2-0.3,0.3-0.5,0.2c-0.2-0.1-0.4-0.3-0.3-0.5c0-0.1,0.3-0.2,0.4-0.2
	C132.9,100.6,133.2,100.7,133.1,101.1z"/>
<path class="st88" d="M119.8,92.4c0,0.1-0.1,0.1-0.1,0.2c0-0.1-0.1-0.1-0.1-0.2s0.1-0.1,0.1-0.2C119.7,92.3,119.8,92.4,119.8,92.4z"
	/>
</svg>
