<?xml version="1.0" encoding="utf-8"?>
<!-- Generator: Adobe Illustrator 24.1.0, SVG Export Plug-In . SVG Version: 6.00 Build 0)  -->
<svg version="1.1" id="Layer_1" xmlns="http://www.w3.org/2000/svg" xmlns:xlink="http://www.w3.org/1999/xlink" x="0px" y="0px"
	 viewBox="0 0 223 223" style="enable-background:new 0 0 223 223;" xml:space="preserve">
<style type="text/css">
	.st0{fill:none;stroke:#C6C6C6;stroke-width:3;stroke-miterlimit:10;opacity:0.2}
</style>
<g>
	<circle class="st0" cx="53.8" cy="167.9" r="6.5"/>
	<polygon class="st0" points="160.8,51.4 166,55.6 172.4,53.7 170,59.9 173.8,65.5 167.1,65.1 163,70.4 161.3,64 155,61.7 
		160.6,58.1 	"/>
	<path class="st0" d="M180.7,157.5c-2.6,2.6-8.3-3-11-0.4c-2.6,2.6,3,8.3,0.4,11c-2.6,2.6-8.3-3-11-0.4c-2.7,2.7,3,8.3,0.4,11
		c-2.7,2.7-8.3-3-11-0.4"/>
	<path class="st0" d="M43.4,43.6c2.6,2.6-3,8.3-0.4,11c2.6,2.6,8.3-3,11-0.4c2.6,2.6-3,8.3-0.4,11c2.7,2.7,8.3-3,11-0.4
		s-3,8.3-0.4,11"/>
</g>
</svg>
